<?xml version="1.0" encoding="utf-8" standalone="no"?>
<!DOCTYPE svg PUBLIC "-//W3C//DTD SVG 1.1//EN"
  "http://www.w3.org/Graphics/SVG/1.1/DTD/svg11.dtd">
<!-- Created with matplotlib (https://matplotlib.org/) -->
<svg height="292.998032pt" version="1.1" viewBox="0 0 335.824735 292.998032" width="335.824735pt" xmlns="http://www.w3.org/2000/svg" xmlns:xlink="http://www.w3.org/1999/xlink">
 <defs>
  <style type="text/css">
*{stroke-linecap:butt;stroke-linejoin:round;}
  </style>
 </defs>
 <g id="figure_1">
  <g id="patch_1">
   <path d="M 0 292.998032 
L 335.824735 292.998032 
L 335.824735 0 
L 0 0 
z
" style="fill:none;"/>
  </g>
  <g id="axes_1">
   <g id="PathCollection_1">
    <path clip-path="url(#p39ee9e0a56)" d="M 111.301632 251.541272 
L 111.155166 252.996652 
L 112.659258 253.376967 
L 113.140237 252.410439 
L 113.367256 251.718371 
L 112.593779 250.859664 
" style="fill:#5c5cff;"/>
   </g>
   <g id="PathCollection_2">
    <path clip-path="url(#p39ee9e0a56)" d="M 112.593779 250.859664 
L 113.367256 251.718371 
L 113.140237 252.410439 
L 112.659258 253.376967 
L 111.155166 252.996652 
L 111.301632 251.541272 
M 109.577764 250.12394 
L 109.21795 253.699267 
L 112.912947 254.633561 
L 114.094534 252.259161 
L 114.652235 250.559006 
L 112.752091 248.449481 
" style="fill:#6666ff;"/>
   </g>
   <g id="PathCollection_3">
    <path clip-path="url(#p39ee9e0a56)" d="M 112.752091 248.449481 
L 114.652235 250.559006 
L 114.094534 252.259161 
L 112.912947 254.633561 
L 109.21795 253.699267 
L 109.577764 250.12394 
M 107.853897 248.706607 
L 107.280735 254.401883 
L 113.166636 255.890156 
L 115.048831 252.107882 
L 115.937215 249.399641 
L 112.910403 246.039298 
" style="fill:#6e6eff;"/>
   </g>
   <g id="PathCollection_4">
    <path clip-path="url(#p39ee9e0a56)" d="M 112.910403 246.039298 
L 115.937215 249.399641 
L 115.048831 252.107882 
L 113.166636 255.890156 
L 107.280735 254.401883 
L 107.853897 248.706607 
M 106.130029 247.289275 
L 105.34352 255.104498 
L 113.420325 257.14675 
L 116.003129 251.956604 
L 117.222195 248.240275 
L 113.068715 243.629115 
" style="fill:#7878ff;"/>
   </g>
   <g id="PathCollection_5">
    <path clip-path="url(#p39ee9e0a56)" d="M 113.068715 243.629115 
L 117.222195 248.240275 
L 116.003129 251.956604 
L 113.420325 257.14675 
L 105.34352 255.104498 
L 106.130029 247.289275 
M 104.406161 245.871942 
L 103.406304 255.807114 
L 113.674015 258.403344 
L 116.957426 251.805325 
L 118.507174 247.08091 
L 113.227026 241.218932 
" style="fill:#8282ff;"/>
   </g>
   <g id="PathCollection_6">
    <path clip-path="url(#p39ee9e0a56)" d="M 113.227026 241.218932 
L 118.507174 247.08091 
L 116.957426 251.805325 
L 113.674015 258.403344 
L 103.406304 255.807114 
L 104.406161 245.871942 
M 102.682294 244.454609 
L 101.469089 256.509729 
L 113.927704 259.659938 
L 117.911723 251.654047 
L 119.792154 245.921545 
L 113.385338 238.808749 
" style="fill:#8a8aff;"/>
   </g>
   <g id="PathCollection_7">
    <path clip-path="url(#p39ee9e0a56)" d="M 113.385338 238.808749 
L 119.792154 245.921545 
L 117.911723 251.654047 
L 113.927704 259.659938 
L 101.469089 256.509729 
L 102.682294 244.454609 
M 100.958426 243.037277 
L 99.531874 257.212345 
L 114.181393 260.916533 
L 118.866021 251.502768 
L 121.077134 244.76218 
L 113.54365 236.398566 
" style="fill:#9494ff;"/>
   </g>
   <g id="PathCollection_8">
    <path clip-path="url(#p39ee9e0a56)" d="M 113.54365 236.398566 
L 121.077134 244.76218 
L 118.866021 251.502768 
L 114.181393 260.916533 
L 99.531874 257.212345 
L 100.958426 243.037277 
M 99.234558 241.619944 
L 97.594658 257.914961 
L 114.435082 262.173127 
L 119.820318 251.35149 
L 122.362113 243.602815 
L 113.701961 233.988383 
" style="fill:#9e9eff;"/>
   </g>
   <g id="PathCollection_9">
    <path clip-path="url(#p39ee9e0a56)" d="M 113.701961 233.988383 
L 122.362113 243.602815 
L 119.820318 251.35149 
L 114.435082 262.173127 
L 97.594658 257.914961 
L 99.234558 241.619944 
M 97.510691 240.202612 
L 95.657443 258.617576 
L 114.688772 263.429721 
L 120.774616 251.200211 
L 123.647093 242.443449 
L 113.860273 231.5782 
" style="fill:#a6a6ff;"/>
   </g>
   <g id="PathCollection_10">
    <path clip-path="url(#p39ee9e0a56)" d="M 113.860273 231.5782 
L 123.647093 242.443449 
L 120.774616 251.200211 
L 114.688772 263.429721 
L 95.657443 258.617576 
L 97.510691 240.202612 
M 95.786823 238.785279 
L 93.720228 259.320192 
L 114.942461 264.686315 
L 121.728913 251.048933 
L 124.932073 241.284084 
L 114.018585 229.168016 
" style="fill:#b0b0ff;"/>
   </g>
   <g id="PathCollection_11">
    <path clip-path="url(#p39ee9e0a56)" d="M 114.018585 229.168016 
L 124.932073 241.284084 
L 121.728913 251.048933 
L 114.942461 264.686315 
L 93.720228 259.320192 
L 95.786823 238.785279 
M 96.702136 235.975778 
L 94.968095 237.134683 
L 93.905055 237.99868 
L 93.803162 239.949405 
L 91.783012 260.022807 
L 115.19615 265.94291 
L 122.68321 250.897654 
L 126.217053 240.124719 
L 114.176897 226.757833 
" style="fill:#babaff;"/>
   </g>
   <g id="PathCollection_12">
    <path clip-path="url(#p39ee9e0a56)" d="M 114.176897 226.757833 
L 126.217053 240.124719 
L 122.68321 250.897654 
L 115.19615 265.94291 
L 91.783012 260.022807 
L 93.803162 239.949405 
L 93.905055 237.99868 
L 94.968095 237.134683 
L 96.702136 235.975778 
M 105.915729 67.167048 
L 106.202138 64.330929 
L 102.75046 65.19035 
L 104.036462 67.638819 
L 104.465402 69.435734 
L 105.737848 68.529801 
M 100.075806 231.869492 
L 94.992491 235.266804 
L 91.876206 237.799601 
L 91.577508 243.518119 
L 89.845797 260.725423 
L 115.449839 267.199504 
L 123.637508 250.746376 
L 127.502032 238.965354 
L 114.335208 224.34765 
" style="fill:#c2c2ff;"/>
   </g>
   <g id="PathCollection_13">
    <path clip-path="url(#p39ee9e0a56)" d="M 105.737848 68.529801 
L 104.465402 69.435734 
L 104.036462 67.638819 
L 102.75046 65.19035 
L 106.202138 64.330929 
L 105.915729 67.167048 
M 114.335208 224.34765 
L 127.502032 238.965354 
L 123.637508 250.746376 
L 115.449839 267.199504 
L 89.845797 260.725423 
L 91.577508 243.518119 
L 91.876206 237.799601 
L 94.992491 235.266804 
L 100.075806 231.869492 
M 107.215509 66.745457 
L 107.990051 59.075701 
L 98.655628 61.399844 
L 102.133381 68.021274 
L 103.29337 72.880699 
L 106.734465 70.43077 
M 103.449475 227.763206 
L 95.016888 233.398926 
L 89.847357 237.600521 
L 89.351854 247.086834 
L 87.908582 261.428038 
L 115.703528 268.456098 
L 124.591805 250.595097 
L 128.787012 237.805988 
L 114.49352 221.937467 
" style="fill:#ccccff;"/>
   </g>
   <g id="PathCollection_14">
    <path clip-path="url(#p39ee9e0a56)" d="M 106.734465 70.43077 
L 103.29337 72.880699 
L 102.133381 68.021274 
L 98.655628 61.399844 
L 107.990051 59.075701 
L 107.215509 66.745457 
M 114.49352 221.937467 
L 128.787012 237.805988 
L 124.591805 250.595097 
L 115.703528 268.456098 
L 87.908582 261.428038 
L 89.351854 247.086834 
L 89.847357 237.600521 
L 95.016888 233.398926 
L 103.449475 227.763206 
M 192.802757 224.585924 
L 193.311045 226.843987 
L 194.138291 228.935784 
L 196.436899 226.826147 
L 194.575153 225.791562 
M 108.51529 66.323867 
L 109.777964 53.820473 
L 94.560795 57.609338 
L 100.2303 68.40373 
L 102.121338 76.325664 
L 107.731081 72.33174 
M 106.823145 223.65692 
L 95.041284 231.531047 
L 87.818508 237.401441 
L 87.1262 250.655549 
L 85.971366 262.130654 
L 115.957218 269.712693 
L 125.546102 250.443819 
L 130.071992 236.646623 
L 114.651832 219.527284 
" style="fill:#d6d6ff;"/>
   </g>
   <g id="PathCollection_15">
    <path clip-path="url(#p39ee9e0a56)" d="M 194.575153 225.791562 
L 196.436899 226.826147 
L 194.138291 228.935784 
L 193.311045 226.843987 
L 192.802757 224.585924 
M 107.731081 72.33174 
L 102.121338 76.325664 
L 100.2303 68.40373 
L 94.560795 57.609338 
L 109.777964 53.820473 
L 108.51529 66.323867 
M 114.651832 219.527284 
L 130.071992 236.646623 
L 125.546102 250.443819 
L 115.957218 269.712693 
L 85.971366 262.130654 
L 87.1262 250.655549 
L 87.818508 237.401441 
L 95.041284 231.531047 
L 106.823145 223.65692 
M 188.667909 218.317743 
L 190.683317 227.271171 
L 193.963423 235.565339 
L 203.077616 227.200433 
L 195.695622 223.098208 
M 109.815071 65.902276 
L 111.565876 48.565245 
L 90.465962 53.818833 
L 98.327219 68.786186 
L 100.949306 79.770628 
L 108.727698 74.232709 
M 110.196814 219.550634 
L 95.06568 229.663169 
L 85.789659 237.202361 
L 84.900545 254.224263 
L 84.034151 262.83327 
L 116.210907 270.969287 
L 126.5004 250.29254 
L 131.356971 235.487258 
L 114.810143 217.117101 
" style="fill:#dedeff;"/>
   </g>
   <g id="PathCollection_16">
    <path clip-path="url(#p39ee9e0a56)" d="M 195.695622 223.098208 
L 203.077616 227.200433 
L 193.963423 235.565339 
L 190.683317 227.271171 
L 188.667909 218.317743 
M 108.727698 74.232709 
L 100.949306 79.770628 
L 98.327219 68.786186 
L 90.465962 53.818833 
L 111.565876 48.565245 
L 109.815071 65.902276 
M 114.810143 217.117101 
L 131.356971 235.487258 
L 126.5004 250.29254 
L 116.210907 270.969287 
L 84.034151 262.83327 
L 84.900545 254.224263 
L 85.789659 237.202361 
L 95.06568 229.663169 
L 110.196814 219.550634 
M 184.533062 212.049561 
L 188.05559 227.698354 
L 193.788556 242.194893 
L 209.718333 227.574719 
L 196.816092 220.404854 
M 186.241958 88.943528 
L 186.604478 92.306043 
L 189.708901 90.237975 
L 192.796164 86.808103 
L 188.244608 82.641761 
L 186.233119 87.098 
M 111.114852 65.480686 
L 113.353789 43.310016 
L 86.37113 50.028327 
L 96.424138 69.168641 
L 99.777274 83.215593 
L 109.724314 76.133679 
M 113.570484 215.444349 
L 95.090076 227.79529 
L 83.76081 237.003281 
L 82.674891 257.792978 
L 82.096936 263.535885 
L 116.464596 272.225881 
L 127.454697 250.141262 
L 132.641951 234.327893 
L 114.968455 214.706918 
" style="fill:#e8e8ff;"/>
   </g>
   <g id="PathCollection_17">
    <path clip-path="url(#p39ee9e0a56)" d="M 196.816092 220.404854 
L 209.718333 227.574719 
L 193.788556 242.194893 
L 188.05559 227.698354 
L 184.533062 212.049561 
M 186.233119 87.098 
L 188.244608 82.641761 
L 192.796164 86.808103 
L 189.708901 90.237975 
L 186.604478 92.306043 
L 186.241958 88.943528 
M 109.724314 76.133679 
L 99.777274 83.215593 
L 96.424138 69.168641 
L 86.37113 50.028327 
L 113.353789 43.310016 
L 111.114852 65.480686 
M 114.968455 214.706918 
L 132.641951 234.327893 
L 127.454697 250.141262 
L 116.464596 272.225881 
L 82.096936 263.535885 
L 82.674891 257.792978 
L 83.76081 237.003281 
L 95.090076 227.79529 
L 113.570484 215.444349 
M 112.68082 211.840411 
L 112.746916 214.143187 
L 95.114473 225.927412 
L 81.731961 236.804201 
L 80.449237 261.361693 
L 80.15972 264.238501 
L 116.718285 273.482475 
L 128.408994 249.989983 
L 133.926931 233.168528 
L 117.714791 215.169939 
L 133.88898 209.984955 
L 118.216216 207.560261 
M 180.398215 205.781379 
L 185.427863 228.125537 
L 193.613689 248.824448 
L 216.35905 227.949005 
L 197.936561 217.711499 
M 183.309959 90.961152 
L 184.678483 103.654745 
L 196.397771 95.847728 
L 208.052281 82.89986 
L 190.870025 67.171797 
L 183.276591 83.994231 
M 112.414632 65.059095 
L 115.141701 38.054788 
L 82.276297 46.237821 
L 94.521057 69.551097 
L 98.605242 86.660557 
L 110.720931 78.034648 
" style="fill:#f2f2ff;"/>
   </g>
   <g id="PathCollection_18">
    <path clip-path="url(#p39ee9e0a56)" d="M 248.461598 153.757846 
L 241.528406 192.894563 
L 241.633164 193.199149 
L 222.789505 228.206447 
L 199.057031 215.018145 
L 176.263367 199.513198 
L 182.800136 228.552721 
L 193.405941 255.370859 
L 156.860115 271.14207 
L 156.57793 271.205154 
L 124.812514 274.109961 
L 156.823796 271.45743 
L 193.440354 255.395919 
L 222.857762 228.315287 
L 241.888187 193.150142 
M 128.448466 33.61367 
L 156.733 36.053651 
L 156.947082 36.36227 
L 193.321417 52.087365 
L 180.320063 80.890462 
L 180.377961 92.978775 
L 182.752488 115.003448 
L 203.086642 101.45748 
L 222.582403 79.798181 
L 241.634065 114.222602 
L 241.830572 114.33654 
L 248.439987 153.534993 
L 241.888187 114.272205 
L 222.857762 79.10706 
L 193.440354 52.026429 
L 156.823796 35.964917 
M 7.212481 173.73968 
L 7.227141 173.707885 
L 7.442125 173.586269 
L 7.710127 134.134951 
L 7.34713 133.733307 
L 7.398354 133.57906 
L 20.22434 95.944857 
L 20.539485 95.902597 
L 44.890324 64.925006 
L 44.798311 64.365428 
L 78.212088 42.50562 
L 92.617976 69.933553 
L 97.43321 90.105522 
L 111.717547 79.935618 
L 113.714413 64.637505 
L 116.929614 32.79956 
L 87.561928 40.11171 
L 78.215267 42.478606 
L 44.741749 64.347946 
L 20.182882 95.901179 
L 7.2 133.719022 
L 7.2 173.703325 
M 44.768741 243.092036 
L 45.148768 242.973904 
L 44.777417 242.950173 
L 20.217642 211.531121 
L 20.223321 211.500126 
L 20.17451 211.496783 
L 20.182882 211.521168 
L 44.741749 243.074401 
M 118.216216 207.560261 
L 133.88898 209.984955 
L 117.714791 215.169939 
L 133.926931 233.168528 
L 128.408994 249.989983 
L 116.718285 273.482475 
L 80.15972 264.238501 
L 80.449237 261.361693 
L 81.731961 236.804201 
L 95.114473 225.927412 
L 112.746916 214.143187 
L 112.68082 211.840411 
M 197.936561 217.711499 
L 216.35905 227.949005 
L 193.613689 248.824448 
L 185.427863 228.125537 
L 180.398215 205.781379 
M 183.276591 83.994231 
L 190.870025 67.171797 
L 208.052281 82.89986 
L 196.397771 95.847728 
L 184.678483 103.654745 
L 183.309959 90.961152 
M 110.720931 78.034648 
L 98.605242 86.660557 
L 94.521057 69.551097 
L 82.276297 46.237821 
L 115.141701 38.054788 
L 112.414632 65.059095 
M 108.511713 208.622889 
L 108.694747 214.999784 
L 95.138869 224.059533 
L 79.703112 236.605121 
L 78.223583 264.930407 
L 78.222505 264.941116 
L 116.971975 274.73907 
L 129.363292 249.838705 
L 135.21191 232.009162 
L 122.451888 217.843087 
L 146.61648 210.096608 
L 148.591432 208.958467 
L 157.639994 201.979584 
L 149.642087 197.435507 
L 141.253313 199.464113 
L 123.840444 196.77021 
M 92.793399 140.366468 
L 90.642092 138.443823 
L 89.121464 139.865594 
L 87.767855 140.908759 
L 88.823949 142.36723 
L 88.798906 144.202826 
L 91.521156 145.158875 
L 124.963824 155.151337 
L 127.496606 159.373313 
L 131.138871 157.191617 
L 128.483958 153.296281 
L 128.014061 152.018535 
L 126.240655 151.841751 
" style="fill:#fafaff;"/>
   </g>
   <g id="PathCollection_19">
    <path clip-path="url(#p39ee9e0a56)" d="M 124.812514 274.109961 
L 156.57793 271.205154 
L 156.860115 271.14207 
L 193.405941 255.370859 
L 182.800136 228.552721 
L 176.263367 199.513198 
L 199.057031 215.018145 
L 222.789505 228.206447 
L 241.633164 193.199149 
L 241.528406 192.894563 
L 248.461598 153.757846 
L 248.469386 153.711174 
L 248.439987 153.534993 
L 241.830572 114.33654 
L 241.634065 114.222602 
L 222.582403 79.798181 
L 203.086642 101.45748 
L 182.752488 115.003448 
L 180.377961 92.978775 
L 180.320063 80.890462 
L 193.321417 52.087365 
L 156.947082 36.36227 
L 156.733 36.053651 
L 128.448466 33.61367 
L 116.97606 32.66304 
L 87.561928 40.11171 
L 116.929614 32.79956 
L 113.714413 64.637505 
L 111.717547 79.935618 
L 97.43321 90.105522 
L 92.617976 69.933553 
L 78.212088 42.50562 
L 44.798311 64.365428 
L 44.890324 64.925006 
L 20.539485 95.902597 
L 20.22434 95.944857 
L 7.398354 133.57906 
L 7.34713 133.733307 
L 7.710127 134.134951 
L 7.442125 173.586269 
L 7.227141 173.707885 
L 7.212481 173.73968 
L 8.13844 176.436906 
L 9.240776 174.046214 
L 25.405505 164.901799 
L 25.515889 148.652768 
L 12.482634 134.231896 
L 14.32182 128.693735 
L 24.093598 100.021236 
L 52.758293 96.177434 
L 52.910462 96.30993 
L 53.036735 96.148678 
L 52.969673 95.958221 
L 47.934113 65.334611 
L 77.826993 45.778229 
L 90.714895 70.316008 
L 96.261178 93.550487 
L 112.714164 81.836587 
L 115.014194 64.215914 
L 118.043477 34.218988 
L 155.319879 37.434657 
L 158.865848 42.54649 
L 187.65298 54.991539 
L 177.363536 77.786693 
L 177.445962 94.996399 
L 180.537895 123.675289 
L 179.175848 124.323768 
L 179.173954 125.884572 
L 180.179815 128.331138 
L 182.071155 125.612564 
L 194.408362 117.304341 
L 209.775512 107.067233 
L 213.260247 103.195781 
L 216.665603 109.348912 
L 236.169687 120.657708 
L 241.042942 149.55952 
L 246.070133 154.299808 
L 235.418457 168.065826 
L 232.194585 186.264044 
L 235.017094 194.470541 
L 219.597529 223.116637 
L 200.1775 212.324791 
L 173.452516 194.145639 
L 173.079095 193.717054 
L 172.618537 191.092753 
L 166.684289 188.400882 
L 152.998422 180.625144 
L 130.312038 186.111254 
L 129.464672 185.98016 
L 104.342606 205.405367 
L 104.642578 215.856381 
L 95.163265 222.191655 
L 77.674263 236.406041 
L 76.671852 255.596995 
L 77.609399 264.547908 
L 78.215267 264.943742 
L 116.97606 274.759308 
M 20.17451 211.496783 
L 20.223321 211.500126 
L 20.217642 211.531121 
L 44.777417 242.950173 
L 45.148768 242.973904 
L 44.768741 243.092036 
L 45.375818 243.488659 
L 54.302923 240.713662 
L 45.579609 240.156191 
L 24.064928 212.632693 
L 24.699102 209.171235 
L 19.247964 208.797846 
M 123.840444 196.77021 
L 141.253313 199.464113 
L 149.642087 197.435507 
L 157.639994 201.979584 
L 148.591432 208.958467 
L 146.61648 210.096608 
L 122.451888 217.843087 
L 135.21191 232.009162 
L 129.363292 249.838705 
L 116.971975 274.73907 
L 78.222505 264.941116 
L 78.223583 264.930407 
L 79.703112 236.605121 
L 95.138869 224.059533 
L 108.694747 214.999784 
L 108.511713 208.622889 
M 126.240655 151.841751 
L 128.014061 152.018535 
L 128.483958 153.296281 
L 131.138871 157.191617 
L 127.496606 159.373313 
L 124.963824 155.151337 
L 91.521156 145.158875 
L 88.798906 144.202826 
L 88.823949 142.36723 
L 87.767855 140.908759 
L 89.121464 139.865594 
L 90.642092 138.443823 
L 92.793399 140.366468 
M 100.08556 135.834665 
L 91.409914 128.081155 
L 85.277628 133.814775 
L 79.818888 138.021579 
L 84.07783 143.903203 
L 83.976841 151.30567 
L 94.954944 155.161158 
L 116.022118 161.455899 
L 129.642592 184.160306 
L 149.229499 172.42786 
L 134.952247 151.48002 
L 132.425294 144.608718 
L 122.8885 143.658033 
M 157.412153 266.348589 
L 152.840741 267.370549 
L 120.024475 270.371451 
L 130.317589 249.687426 
L 136.49689 230.849797 
L 127.188985 220.516235 
L 144.816049 214.865501 
L 150.157058 211.787543 
L 172.434748 194.605432 
L 180.172408 228.979904 
L 189.478139 252.510636 
" style="fill:#fffafa;"/>
   </g>
   <g id="PathCollection_20">
    <path clip-path="url(#p39ee9e0a56)" d="M 77.609399 264.547908 
L 76.671852 255.596995 
L 77.674263 236.406041 
L 95.163265 222.191655 
L 104.642578 215.856381 
L 104.342606 205.405367 
L 129.464672 185.98016 
L 130.312038 186.111254 
L 152.998422 180.625144 
L 166.684289 188.400882 
L 172.618537 191.092753 
L 173.079095 193.717054 
L 173.452516 194.145639 
L 200.1775 212.324791 
L 219.597529 223.116637 
L 235.017094 194.470541 
L 232.194585 186.264044 
L 235.418457 168.065826 
L 246.070133 154.299808 
L 241.042942 149.55952 
L 236.169687 120.657708 
L 216.665603 109.348912 
L 213.260247 103.195781 
L 209.775512 107.067233 
L 194.408362 117.304341 
L 182.071155 125.612564 
L 180.179815 128.331138 
L 179.173954 125.884572 
L 179.175848 124.323768 
L 180.537895 123.675289 
L 177.445962 94.996399 
L 177.363536 77.786693 
L 187.65298 54.991539 
L 158.865848 42.54649 
L 155.319879 37.434657 
L 118.043477 34.218988 
L 115.014194 64.215914 
L 112.714164 81.836587 
L 96.261178 93.550487 
L 90.714895 70.316008 
L 77.826993 45.778229 
L 47.934113 65.334611 
L 52.969673 95.958221 
L 53.036735 96.148678 
L 52.910462 96.30993 
L 52.758293 96.177434 
L 24.093598 100.021236 
L 14.32182 128.693735 
L 12.482634 134.231896 
L 25.515889 148.652768 
L 25.405505 164.901799 
L 9.240776 174.046214 
L 8.13844 176.436906 
L 9.064398 179.134132 
L 11.254411 174.384542 
L 37.631092 159.463209 
L 38.649995 161.370602 
L 41.746638 160.638166 
L 39.566448 158.308291 
L 37.394402 156.612278 
L 17.618137 134.730486 
L 21.245286 123.80841 
L 27.962855 104.097614 
L 47.668286 101.455208 
L 53.31511 106.371969 
L 58.000992 100.388097 
L 55.512367 93.32044 
L 51.069914 66.303795 
L 77.441898 49.050837 
L 88.811814 70.698464 
L 95.089146 96.995451 
L 113.71078 83.737557 
L 116.313974 63.794323 
L 119.139362 35.816435 
L 153.906759 38.815663 
L 160.784613 48.73071 
L 181.984543 57.895713 
L 174.407008 74.682924 
L 174.513964 97.014023 
L 176.928549 119.410246 
L 167.621881 123.841213 
L 167.608944 134.505953 
L 174.481844 151.222984 
L 187.405093 132.647364 
L 206.458123 119.816516 
L 214.098613 117.463973 
L 230.508802 126.978877 
L 233.616159 145.407677 
L 243.670769 154.888469 
L 224.160177 180.103578 
L 222.223825 179.042212 
L 222.991722 180.594957 
L 223.410979 181.233284 
L 228.401023 195.741932 
L 216.405554 218.026827 
L 201.29797 209.631437 
L 180.507581 195.489178 
L 176.978154 191.438357 
L 172.625128 166.634462 
L 166.915929 164.044677 
L 152.825901 166.397914 
L 141.420537 149.663758 
L 136.836528 137.198902 
L 119.536344 135.474315 
L 107.37772 131.302862 
L 92.177737 117.718487 
L 81.433793 127.763956 
L 71.86992 135.1344 
L 79.331711 145.439175 
L 79.154776 158.408513 
L 98.388733 165.163442 
L 107.080412 167.760462 
L 113.115138 177.819939 
L 115.536809 190.308429 
L 100.173498 202.187846 
L 100.590409 216.712978 
L 95.187661 220.323776 
L 75.645414 236.206961 
L 75.122649 246.215194 
L 77.001259 264.15059 
M 19.247964 208.797846 
L 24.699102 209.171235 
L 24.064928 212.632693 
L 45.579609 240.156191 
L 54.302923 240.713662 
L 45.375818 243.488659 
L 45.982895 243.885282 
L 63.457077 238.453419 
L 46.3818 237.362209 
L 27.912213 213.734266 
L 29.174883 206.842345 
L 18.321418 206.098909 
M 122.8885 143.658033 
L 132.425294 144.608718 
L 134.952247 151.48002 
L 149.229499 172.42786 
L 129.642592 184.160306 
L 116.022118 161.455899 
L 94.954944 155.161158 
L 83.976841 151.30567 
L 84.07783 143.903203 
L 79.818888 138.021579 
L 85.277628 133.814775 
L 91.409914 128.081155 
L 100.08556 135.834665 
M 189.478139 252.510636 
L 180.172408 228.979904 
L 172.434748 194.605432 
L 150.157058 211.787543 
L 144.816049 214.865501 
L 127.188985 220.516235 
L 136.49689 230.849797 
L 130.317589 249.687426 
L 120.024475 270.371451 
L 152.840741 267.370549 
L 157.412153 266.348589 
M 157.964192 261.555107 
L 149.103552 263.535944 
L 123.122788 265.911769 
L 131.271886 249.536148 
L 137.78187 229.690432 
L 131.926083 223.189384 
L 143.015617 219.634395 
L 151.722683 214.616619 
L 170.888026 199.834968 
L 177.544681 229.407087 
L 185.550336 249.650412 
" style="fill:#fff2f2;"/>
   </g>
   <g id="PathCollection_21">
    <path clip-path="url(#p39ee9e0a56)" d="M 77.001259 264.15059 
L 75.122649 246.215194 
L 75.645414 236.206961 
L 95.187661 220.323776 
L 100.590409 216.712978 
L 100.173498 202.187846 
L 115.536809 190.308429 
L 113.115138 177.819939 
L 107.080412 167.760462 
L 98.388733 165.163442 
L 79.154776 158.408513 
L 79.331711 145.439175 
L 71.86992 135.1344 
L 81.433793 127.763956 
L 92.177737 117.718487 
L 107.37772 131.302862 
L 119.536344 135.474315 
L 136.836528 137.198902 
L 141.420537 149.663758 
L 152.825901 166.397914 
L 166.915929 164.044677 
L 172.625128 166.634462 
L 176.978154 191.438357 
L 180.507581 195.489178 
L 201.29797 209.631437 
L 216.405554 218.026827 
L 228.401023 195.741932 
L 223.410979 181.233284 
L 222.991722 180.594957 
L 222.223825 179.042212 
L 224.160177 180.103578 
L 243.670769 154.888469 
L 233.616159 145.407677 
L 230.508802 126.978877 
L 214.098613 117.463973 
L 206.458123 119.816516 
L 187.405093 132.647364 
L 174.481844 151.222984 
L 167.608944 134.505953 
L 167.621881 123.841213 
L 176.928549 119.410246 
L 174.513964 97.014023 
L 174.407008 74.682924 
L 181.984543 57.895713 
L 160.784613 48.73071 
L 153.906759 38.815663 
L 119.139362 35.816435 
L 116.313974 63.794323 
L 113.71078 83.737557 
L 95.089146 96.995451 
L 88.811814 70.698464 
L 77.441898 49.050837 
L 51.069914 66.303795 
L 55.512367 93.32044 
L 58.000992 100.388097 
L 53.31511 106.371969 
L 47.668286 101.455208 
L 27.962855 104.097614 
L 21.245286 123.80841 
L 17.618137 134.730486 
L 37.394402 156.612278 
L 39.566448 158.308291 
L 41.746638 160.638166 
L 38.649995 161.370602 
L 37.631092 159.463209 
L 11.254411 174.384542 
L 9.064398 179.134132 
L 9.990357 181.831358 
L 13.268046 174.72287 
L 36.448056 161.609899 
L 40.866933 169.882063 
L 54.296747 166.705568 
L 44.841494 156.601144 
L 35.421557 149.245712 
L 22.753641 135.229076 
L 28.168751 118.923085 
L 31.832113 108.173993 
L 42.578279 106.732983 
L 53.719759 116.434009 
L 62.965248 104.627515 
L 58.055062 90.682658 
L 54.205716 67.272978 
L 77.056803 52.323446 
L 86.908733 71.08092 
L 93.917114 100.440416 
L 114.707396 85.638526 
L 117.613755 63.372733 
L 120.235247 37.413882 
L 152.493638 40.19667 
L 162.703379 54.914929 
L 176.316106 60.799887 
L 171.450481 71.579155 
L 171.581965 99.031647 
L 173.319202 115.145203 
L 156.067914 123.358657 
L 156.043933 143.127334 
L 159.568831 151.700983 
L 151.440472 153.058536 
L 147.888826 147.847496 
L 141.247761 129.789085 
L 116.184188 127.290596 
L 114.66988 126.771059 
L 92.945559 107.355819 
L 77.589957 121.713137 
L 63.920953 132.24722 
L 74.585592 146.975148 
L 74.332711 165.511356 
L 94.229694 172.499139 
L 98.90949 173.70422 
L 98.08659 182.72277 
L 100.554891 195.451728 
L 96.004391 198.970324 
L 96.53824 217.569575 
L 95.212058 218.455898 
L 73.616565 236.007881 
L 73.573446 236.833393 
L 76.393118 263.753273 
M 18.321418 206.098909 
L 29.174883 206.842345 
L 27.912213 213.734266 
L 46.3818 237.362209 
L 63.457077 238.453419 
L 45.982895 243.885282 
L 46.589972 244.281905 
L 72.611231 236.193177 
L 47.183992 234.568227 
L 31.759498 214.835839 
L 33.650664 204.513454 
L 17.394872 203.399973 
M 185.550336 249.650412 
L 177.544681 229.407087 
L 170.888026 199.834968 
L 151.722683 214.616619 
L 143.015617 219.634395 
L 131.926083 223.189384 
L 137.78187 229.690432 
L 131.271886 249.536148 
L 123.122788 265.911769 
L 149.103552 263.535944 
L 157.964192 261.555107 
M 187.562646 196.832718 
L 180.877213 189.159659 
L 176.361919 163.431148 
L 203.203759 166.138197 
L 184.53331 151.476903 
L 192.739031 139.682164 
L 200.357056 134.55197 
L 217.763571 129.192422 
L 224.847917 133.300045 
L 226.189376 141.255834 
L 241.271406 155.47713 
L 224.608661 177.011736 
L 208.094966 167.96014 
L 214.643783 181.202345 
L 218.219312 186.646154 
L 221.784953 197.013323 
L 213.213578 212.937017 
L 202.418439 206.938082 
M 158.51623 256.761625 
L 145.366363 259.701338 
L 126.221102 261.452088 
L 132.226184 249.384869 
L 139.066849 228.531067 
L 136.66318 225.862532 
L 141.215186 224.403288 
L 153.288309 217.445694 
L 169.341303 205.064504 
L 174.916954 229.834271 
L 181.622534 246.790189 
" style="fill:#ffe8e8;"/>
   </g>
   <g id="PathCollection_22">
    <path clip-path="url(#p39ee9e0a56)" d="M 76.393118 263.753273 
L 73.573446 236.833393 
L 73.616565 236.007881 
L 95.212058 218.455898 
L 96.53824 217.569575 
L 96.004391 198.970324 
L 100.554891 195.451728 
L 98.08659 182.72277 
L 98.90949 173.70422 
L 94.229694 172.499139 
L 74.332711 165.511356 
L 74.585592 146.975148 
L 63.920953 132.24722 
L 77.589957 121.713137 
L 92.945559 107.355819 
L 114.66988 126.771059 
L 116.184188 127.290596 
L 141.247761 129.789085 
L 147.888826 147.847496 
L 151.440472 153.058536 
L 159.568831 151.700983 
L 156.043933 143.127334 
L 156.067914 123.358657 
L 173.319202 115.145203 
L 171.581965 99.031647 
L 171.450481 71.579155 
L 176.316106 60.799887 
L 162.703379 54.914929 
L 152.493638 40.19667 
L 120.235247 37.413882 
L 117.613755 63.372733 
L 114.707396 85.638526 
L 93.917114 100.440416 
L 86.908733 71.08092 
L 77.056803 52.323446 
L 54.205716 67.272978 
L 58.055062 90.682658 
L 62.965248 104.627515 
L 53.719759 116.434009 
L 42.578279 106.732983 
L 31.832113 108.173993 
L 28.168751 118.923085 
L 22.753641 135.229076 
L 35.421557 149.245712 
L 44.841494 156.601144 
L 54.296747 166.705568 
L 40.866933 169.882063 
L 36.448056 161.609899 
L 13.268046 174.72287 
L 9.990357 181.831358 
L 10.916316 184.528584 
L 15.281681 175.061199 
L 35.26502 163.756589 
L 43.08387 178.393524 
L 66.846857 172.77297 
L 50.116539 154.893996 
L 33.448712 141.879146 
L 27.889145 135.727666 
L 35.092217 114.03776 
L 35.701371 112.250372 
L 37.488272 112.010757 
L 54.124408 126.496048 
L 67.929505 108.866934 
L 60.597756 88.044877 
L 57.341518 68.242162 
L 76.671708 55.596054 
L 85.005652 71.463375 
L 91.765562 99.781979 
L 83.806785 106.255709 
L 73.746122 115.662318 
L 55.971986 129.36004 
L 69.839473 148.51112 
L 69.510646 172.614199 
L 72.155958 173.543228 
L 92.557174 178.79669 
L 90.898865 196.970872 
L 74.02459 211.830942 
L 69.921158 211.645834 
L 71.942726 214.928195 
L 69.375811 233.141168 
L 47.986184 231.774246 
L 35.606783 215.937412 
L 38.126445 202.184564 
L 16.468326 200.701036 
L 17.394872 203.399973 
L 33.650664 204.513454 
L 31.759498 214.835839 
L 47.183992 234.568227 
L 72.611231 236.193177 
L 46.589972 244.281905 
L 47.197049 244.678529 
L 72.988877 236.661119 
L 75.784978 263.355955 
M 202.418439 206.938082 
L 213.213578 212.937017 
L 221.784953 197.013323 
L 218.219312 186.646154 
L 214.643783 181.202345 
L 208.094966 167.96014 
L 224.608661 177.011736 
L 241.271406 155.47713 
L 226.189376 141.255834 
L 224.847917 133.300045 
L 217.763571 129.192422 
L 200.357056 134.55197 
L 192.739031 139.682164 
L 184.53331 151.476903 
L 203.203759 166.138197 
L 176.361919 163.431148 
L 180.877213 189.159659 
L 187.562646 196.832718 
M 181.622534 246.790189 
L 174.916954 229.834271 
L 169.341303 205.064504 
L 153.288309 217.445694 
L 141.215186 224.403288 
L 136.66318 225.862532 
L 139.066849 228.531067 
L 132.226184 249.384869 
L 126.221102 261.452088 
L 145.366363 259.701338 
L 158.51623 256.761625 
M 194.617712 198.176257 
L 184.776271 186.880962 
L 181.898656 170.484077 
L 201.681518 172.479215 
L 206.295844 181.809733 
L 213.027645 192.059024 
L 215.168883 198.284714 
L 210.021603 207.847207 
L 203.538909 204.244728 
M 168.649967 101.049271 
L 169.709856 110.88016 
L 146.163024 122.090965 
L 144.834393 122.184527 
L 121.668207 119.063591 
L 116.287828 114.901181 
L 98.524822 99.770426 
L 115.704013 87.539496 
L 118.913536 62.951142 
L 121.331133 39.01133 
L 151.080517 41.577676 
L 164.622144 61.099149 
L 170.647669 63.704061 
L 168.493953 68.475386 
M 159.068269 251.968144 
L 141.629174 255.866733 
L 129.319416 256.992406 
L 133.180481 249.233591 
L 139.230989 230.788588 
L 141.418465 228.017468 
L 154.853935 220.27477 
L 167.794581 210.29404 
L 172.289226 230.261454 
L 177.694731 243.929965 
M 220.863236 139.08475 
L 238.872042 156.065792 
L 225.057145 173.919895 
L 210.16221 165.755584 
" style="fill:#ffdede;"/>
   </g>
   <g id="PathCollection_23">
    <path clip-path="url(#p39ee9e0a56)" d="M 75.784978 263.355955 
L 72.988877 236.661119 
L 47.197049 244.678529 
L 47.804126 245.075152 
L 72.499594 237.398546 
L 75.176838 262.958637 
M 11.842275 187.22581 
L 17.295316 175.399527 
L 34.081985 165.90328 
L 45.300808 186.904985 
L 60.135165 183.396281 
L 70.353556 179.807334 
L 86.204857 183.889159 
L 85.112891 195.856529 
L 74.001486 205.641617 
L 59.909725 205.00593 
L 66.852073 216.278015 
L 64.916569 230.01095 
L 48.788376 228.980264 
L 39.454068 217.038984 
L 42.602226 199.855673 
L 15.54178 198.002099 
L 16.468326 200.701036 
L 38.126445 202.184564 
L 35.606783 215.937412 
L 47.986184 231.774246 
L 69.375811 233.141168 
L 71.942726 214.928195 
L 69.921158 211.645834 
L 74.02459 211.830942 
L 90.898865 196.970872 
L 92.557174 178.79669 
L 72.155958 173.543228 
L 69.510646 172.614199 
L 69.839473 148.51112 
L 55.971986 129.36004 
L 73.746122 115.662318 
L 83.806785 106.255709 
L 91.765562 99.781979 
L 85.005652 71.463375 
L 76.671708 55.596054 
L 57.341518 68.242162 
L 60.597756 88.044877 
L 67.929505 108.866934 
L 54.124408 126.496048 
L 37.488272 112.010757 
L 35.701371 112.250372 
L 35.092217 114.03776 
L 27.889145 135.727666 
L 33.448712 141.879146 
L 50.116539 154.893996 
L 66.846857 172.77297 
L 43.08387 178.393524 
L 35.26502 163.756589 
L 15.281681 175.061199 
L 10.916316 184.528584 
M 203.538909 204.244728 
L 210.021603 207.847207 
L 215.168883 198.284714 
L 213.027645 192.059024 
L 206.295844 181.809733 
L 201.681518 172.479215 
L 181.898656 170.484077 
L 184.776271 186.880962 
L 194.617712 198.176257 
M 168.493953 68.475386 
L 170.647669 63.704061 
L 164.622144 61.099149 
L 151.080517 41.577676 
L 121.331133 39.01133 
L 118.913536 62.951142 
L 115.704013 87.539496 
L 98.524822 99.770426 
L 116.287828 114.901181 
L 121.668207 119.063591 
L 144.834393 122.184527 
L 146.163024 122.090965 
L 169.709856 110.88016 
L 168.649967 101.049271 
M 177.694731 243.929965 
L 172.289226 230.261454 
L 167.794581 210.29404 
L 154.853935 220.27477 
L 141.418465 228.017468 
L 139.230989 230.788588 
L 133.180481 249.233591 
L 129.319416 256.992406 
L 141.629174 255.866733 
L 159.068269 251.968144 
M 210.16221 165.755584 
L 225.057145 173.919895 
L 238.872042 156.065792 
L 220.863236 139.08475 
M 201.672777 199.519796 
L 188.67533 184.602265 
L 187.435393 177.537006 
L 195.959636 178.396692 
L 197.947905 182.417121 
L 207.835978 197.471895 
L 208.552813 199.556105 
L 206.829628 202.757397 
L 204.659378 201.551374 
M 165.717969 103.066895 
L 166.10051 106.615118 
L 157.601848 110.661388 
L 137.748349 112.059469 
L 128.617797 110.829407 
L 116.964647 101.814208 
L 108.931705 94.971644 
L 116.700629 89.440465 
L 120.213316 62.529552 
L 122.427018 40.608777 
L 149.667397 42.958683 
L 165.553925 65.860541 
L 164.1004 67.947172 
L 165.58935 76.212833 
M 37.158497 138.949785 
L 57.015706 138.891815 
L 65.093355 150.047093 
L 64.911724 163.360615 
L 55.391584 153.186849 
M 159.620308 247.174662 
L 137.891985 252.032128 
L 132.417729 252.532724 
L 134.134779 249.082312 
L 136.825492 240.879661 
L 146.215449 228.984351 
L 156.419561 223.103846 
L 166.247859 215.523576 
L 169.661499 230.688637 
L 173.766929 241.069742 
M 222.176266 143.173938 
L 236.472679 156.654453 
L 225.505629 170.828053 
L 213.681184 164.34676 
M 88.631198 95.006343 
L 71.443313 108.9871 
L 63.14045 85.407095 
L 60.47732 69.211345 
L 76.286613 58.868662 
L 83.102571 71.845831 
" style="fill:#ffd6d6;"/>
   </g>
   <g id="PathCollection_24">
    <path clip-path="url(#p39ee9e0a56)" d="M 75.176838 262.958637 
L 72.499594 237.398546 
L 47.804126 245.075152 
L 48.411203 245.471775 
L 72.01031 238.135974 
L 74.568698 262.561319 
M 12.768234 189.923036 
L 19.308951 175.737856 
L 32.898949 168.04997 
L 47.517745 195.416446 
L 49.935029 194.844697 
L 72.222431 187.01682 
L 79.852541 188.981629 
L 79.326917 194.742187 
L 73.978382 199.452291 
L 49.898293 198.366025 
L 61.761419 217.627836 
L 60.457327 226.880732 
L 49.590568 226.186282 
L 43.301353 218.140557 
L 47.078007 197.526782 
L 14.615234 195.303163 
L 15.54178 198.002099 
L 42.602226 199.855673 
L 39.454068 217.038984 
L 48.788376 228.980264 
L 64.916569 230.01095 
L 66.852073 216.278015 
L 59.909725 205.00593 
L 74.001486 205.641617 
L 85.112891 195.856529 
L 86.204857 183.889159 
L 70.353556 179.807334 
L 60.135165 183.396281 
L 45.300808 186.904985 
L 34.081985 165.90328 
L 17.295316 175.399527 
L 11.842275 187.22581 
M 204.659378 201.551374 
L 206.829628 202.757397 
L 208.552813 199.556105 
L 207.835978 197.471895 
L 197.947905 182.417121 
L 195.959636 178.396692 
L 187.435393 177.537006 
L 188.67533 184.602265 
L 201.672777 199.519796 
M 165.58935 76.212833 
L 164.1004 67.947172 
L 165.553925 65.860541 
L 149.667397 42.958683 
L 122.427018 40.608777 
L 120.213316 62.529552 
L 116.700629 89.440465 
L 108.931705 94.971644 
L 116.964647 101.814208 
L 128.617797 110.829407 
L 137.748349 112.059469 
L 157.601848 110.661388 
L 166.10051 106.615118 
L 165.717969 103.066895 
M 55.391584 153.186849 
L 64.911724 163.360615 
L 65.093355 150.047093 
L 57.015706 138.891815 
L 37.158497 138.949785 
M 173.766929 241.069742 
L 169.661499 230.688637 
L 166.247859 215.523576 
L 156.419561 223.103846 
L 146.215449 228.984351 
L 136.825492 240.879661 
L 134.134779 249.082312 
L 132.417729 252.532724 
L 137.891985 252.032128 
L 159.620308 247.174662 
M 213.681184 164.34676 
L 225.505629 170.828053 
L 236.472679 156.654453 
L 222.176266 143.173938 
M 83.102571 71.845831 
L 76.286613 58.868662 
L 60.47732 69.211345 
L 63.14045 85.407095 
L 71.443313 108.9871 
L 88.631198 95.006343 
M 162.677558 65.132146 
L 154.162278 77.356392 
L 158.086521 99.141183 
L 135.848881 100.834141 
L 121.323737 90.445361 
L 117.815552 90.435085 
L 121.513097 62.107961 
L 123.522903 42.206224 
L 148.254276 44.339689 
M 160.172346 242.38118 
L 137.135045 247.531274 
L 151.012433 229.951234 
L 157.985187 225.932921 
L 164.701136 220.753112 
L 167.033772 231.115821 
L 169.839126 238.209518 
M 223.489296 147.263126 
L 234.073315 157.243114 
L 225.954114 167.736212 
L 217.200159 162.937936 
M 85.496833 90.230708 
L 72.136872 101.097802 
L 65.683145 82.769314 
L 63.613122 70.180529 
L 75.901518 62.141271 
L 81.19949 72.228287 
" style="fill:#ffcccc;"/>
   </g>
   <g id="PathCollection_25">
    <path clip-path="url(#p39ee9e0a56)" d="M 74.568698 262.561319 
L 72.01031 238.135974 
L 48.411203 245.471775 
L 49.01828 245.868398 
L 71.521027 238.873402 
L 73.960557 262.164001 
M 14.615234 195.303163 
L 47.078007 197.526782 
L 43.301353 218.140557 
L 49.590568 226.186282 
L 60.457327 226.880732 
L 61.761419 217.627836 
L 49.898293 198.366025 
L 73.978382 199.452291 
L 79.326917 194.742187 
L 79.852541 188.981629 
L 72.222431 187.01682 
L 49.935029 194.844697 
L 47.517745 195.416446 
L 32.898949 168.04997 
L 19.308951 175.737856 
L 12.768234 189.923036 
L 13.691441 192.612246 
M 148.254276 44.339689 
L 123.522903 42.206224 
L 121.513097 62.107961 
L 117.815552 90.435085 
L 121.323737 90.445361 
L 135.848881 100.834141 
L 158.086521 99.141183 
L 154.162278 77.356392 
L 162.677558 65.132146 
M 169.839126 238.209518 
L 167.033772 231.115821 
L 164.701136 220.753112 
L 157.985187 225.932921 
L 151.012433 229.951234 
L 137.135045 247.531274 
L 160.172346 242.38118 
M 217.200159 162.937936 
L 225.954114 167.736212 
L 234.073315 157.243114 
L 223.489296 147.263126 
M 81.19949 72.228287 
L 75.901518 62.141271 
L 63.613122 70.180529 
L 65.683145 82.769314 
L 72.136872 101.097802 
L 85.496833 90.230708 
M 159.801191 64.403751 
L 144.224155 86.765611 
L 144.357055 87.503381 
L 143.603949 87.560715 
L 143.112036 87.208886 
L 119.49045 87.139699 
L 122.812878 61.686371 
L 124.618788 43.803671 
L 146.841156 45.720695 
M 160.724385 237.587698 
L 148.363177 240.351103 
L 155.809417 230.918118 
L 159.550813 228.761997 
L 163.154414 225.982648 
L 164.406045 231.543004 
L 165.911324 235.349295 
M 224.802327 151.352315 
L 231.673952 157.831775 
L 226.402598 164.64437 
L 220.719133 161.529112 
M 49.369131 207.122206 
L 56.670766 218.977656 
L 55.998085 223.750514 
L 50.39276 223.392301 
L 47.148638 219.24213 
M 82.362468 85.455072 
L 72.830431 93.208504 
L 68.225839 80.131532 
L 66.748923 71.149712 
L 75.516423 65.413879 
L 79.296409 72.610742 
M 31.715913 170.196661 
L 43.963056 193.123388 
L 13.704388 192.598151 
L 21.322586 176.076184 
" style="fill:#ffc2c2;"/>
   </g>
   <g id="PathCollection_26">
    <path clip-path="url(#p39ee9e0a56)" d="M 73.960557 262.164001 
L 71.521027 238.873402 
L 49.01828 245.868398 
L 49.625358 246.265022 
L 71.031744 239.61083 
L 73.352417 261.766683 
M 146.841156 45.720695 
L 124.618788 43.803671 
L 122.812878 61.686371 
L 119.49045 87.139699 
L 143.112036 87.208886 
L 143.603949 87.560715 
L 144.357055 87.503381 
L 144.224155 86.765611 
L 159.801191 64.403751 
M 165.911324 235.349295 
L 164.406045 231.543004 
L 163.154414 225.982648 
L 159.550813 228.761997 
L 155.809417 230.918118 
L 148.363177 240.351103 
L 160.724385 237.587698 
M 220.719133 161.529112 
L 226.402598 164.64437 
L 231.673952 157.831775 
L 224.802327 151.352315 
M 47.148638 219.24213 
L 50.39276 223.392301 
L 55.998085 223.750514 
L 56.670766 218.977656 
L 49.369131 207.122206 
M 79.296409 72.610742 
L 75.516423 65.413879 
L 66.748923 71.149712 
L 68.225839 80.131532 
L 72.830431 93.208504 
L 82.362468 85.455072 
M 21.322586 176.076184 
L 13.704388 192.598151 
L 43.963056 193.123388 
L 31.715913 170.196661 
M 156.924824 63.675356 
L 142.831137 83.907771 
L 121.165348 83.844312 
L 124.112658 61.26478 
L 125.714673 45.401118 
L 145.428035 47.101702 
M 161.276423 232.794217 
L 159.59131 233.170932 
L 160.606401 231.885001 
L 161.116439 231.591073 
L 161.607692 231.212184 
L 161.778317 231.970187 
L 161.983521 232.489071 
M 226.115357 155.441503 
L 229.274588 158.420437 
L 226.851082 161.552529 
L 224.238108 160.120288 
M 51.132152 219.600136 
L 51.580113 220.327477 
L 51.538843 220.620295 
L 51.194952 220.598319 
L 50.995923 220.343703 
M 79.228103 80.679437 
L 73.52399 85.319206 
L 70.768534 77.493751 
L 69.884725 72.118896 
L 75.131328 68.686488 
L 77.393328 72.993198 
M 30.532877 172.343351 
L 39.013173 188.218516 
L 18.061148 187.854826 
L 23.336221 176.414512 
" style="fill:#ffbaba;"/>
   </g>
   <g id="PathCollection_27">
    <path clip-path="url(#p39ee9e0a56)" d="M 73.352417 261.766683 
L 71.031744 239.61083 
L 49.625358 246.265022 
L 50.232435 246.661645 
L 70.54246 240.348257 
L 72.744277 261.369365 
M 145.428035 47.101702 
L 125.714673 45.401118 
L 124.112658 61.26478 
L 121.165348 83.844312 
L 142.831137 83.907771 
L 156.924824 63.675356 
M 161.983521 232.489071 
L 161.778317 231.970187 
L 161.607692 231.212184 
L 161.116439 231.591073 
L 160.606401 231.885001 
L 159.59131 233.170932 
L 161.276423 232.794217 
M 224.238108 160.120288 
L 226.851082 161.552529 
L 229.274588 158.420437 
L 226.115357 155.441503 
M 50.995923 220.343703 
L 51.194952 220.598319 
L 51.538843 220.620295 
L 51.580113 220.327477 
L 51.132152 219.600136 
M 77.393328 72.993198 
L 75.131328 68.686488 
L 69.884725 72.118896 
L 70.768534 77.493751 
L 73.52399 85.319206 
L 79.228103 80.679437 
M 23.336221 176.414512 
L 18.061148 187.854826 
L 39.013173 188.218516 
L 30.532877 172.343351 
M 154.048457 62.946961 
L 141.748535 80.604308 
L 122.840245 80.548926 
L 125.412439 60.84319 
L 126.810559 46.998565 
L 144.014915 48.482708 
M 76.093739 75.903801 
L 74.217549 77.429908 
L 73.311228 74.85597 
L 73.020527 73.088079 
L 74.746233 71.959096 
L 75.490247 73.375654 
M 29.349842 174.490042 
L 34.063289 183.313644 
L 22.417909 183.111501 
L 25.349856 176.752841 
" style="fill:#ffb0b0;"/>
   </g>
   <g id="PathCollection_28">
    <path clip-path="url(#p39ee9e0a56)" d="M 72.744277 261.369365 
L 70.54246 240.348257 
L 50.232435 246.661645 
L 50.839512 247.058268 
L 70.053177 241.085685 
L 72.136137 260.972048 
M 144.014915 48.482708 
L 126.810559 46.998565 
L 125.412439 60.84319 
L 122.840245 80.548926 
L 141.748535 80.604308 
L 154.048457 62.946961 
M 75.490247 73.375654 
L 74.746233 71.959096 
L 73.020527 73.088079 
L 73.311228 74.85597 
L 74.217549 77.429908 
L 76.093739 75.903801 
M 25.349856 176.752841 
L 22.417909 183.111501 
L 34.063289 183.313644 
L 29.349842 174.490042 
M 151.17209 62.218566 
L 140.665933 77.300845 
L 124.515143 77.25354 
L 126.71222 60.421599 
L 127.906444 48.596012 
L 142.601794 49.863714 
M 28.166806 176.636732 
L 29.113405 178.408772 
L 26.774669 178.368176 
L 27.363491 177.091169 
" style="fill:#ffa6a6;"/>
   </g>
   <g id="PathCollection_29">
    <path clip-path="url(#p39ee9e0a56)" d="M 72.136137 260.972048 
L 70.053177 241.085685 
L 50.839512 247.058268 
L 51.446589 247.454891 
L 69.563893 241.823113 
L 71.527996 260.57473 
M 142.601794 49.863714 
L 127.906444 48.596012 
L 126.71222 60.421599 
L 124.515143 77.25354 
L 140.665933 77.300845 
L 151.17209 62.218566 
M 27.363491 177.091169 
L 26.774669 178.368176 
L 29.113405 178.408772 
L 28.166806 176.636732 
M 148.295723 61.490171 
L 139.583331 73.997382 
L 126.190041 73.958153 
L 128.012001 60.000009 
L 129.002329 50.193459 
L 141.188674 51.244721 
" style="fill:#ff9e9e;"/>
   </g>
   <g id="PathCollection_30">
    <path clip-path="url(#p39ee9e0a56)" d="M 71.527996 260.57473 
L 69.563893 241.823113 
L 51.446589 247.454891 
L 52.053666 247.851514 
L 69.07461 242.560541 
L 70.919856 260.177412 
M 141.188674 51.244721 
L 129.002329 50.193459 
L 128.012001 60.000009 
L 126.190041 73.958153 
L 139.583331 73.997382 
L 148.295723 61.490171 
M 145.419356 60.761776 
L 138.50073 70.693919 
L 127.864939 70.662767 
L 129.311781 59.578418 
L 130.098214 51.790906 
L 139.775553 52.625727 
" style="fill:#ff9494;"/>
   </g>
   <g id="PathCollection_31">
    <path clip-path="url(#p39ee9e0a56)" d="M 70.919856 260.177412 
L 69.07461 242.560541 
L 52.053666 247.851514 
L 52.660743 248.248138 
L 68.585326 243.297968 
L 70.311716 259.780094 
M 139.775553 52.625727 
L 130.098214 51.790906 
L 129.311781 59.578418 
L 127.864939 70.662767 
L 138.50073 70.693919 
L 145.419356 60.761776 
M 142.542988 60.033381 
L 137.418128 67.390456 
L 129.539837 67.367381 
L 130.611562 59.156828 
L 131.1941 53.388354 
L 138.362433 54.006734 
" style="fill:#ff8a8a;"/>
   </g>
   <g id="PathCollection_32">
    <path clip-path="url(#p39ee9e0a56)" d="M 70.311716 259.780094 
L 68.585326 243.297968 
L 52.660743 248.248138 
L 53.26782 248.644761 
L 68.096043 244.035396 
L 69.703576 259.382776 
M 138.362433 54.006734 
L 131.1941 53.388354 
L 130.611562 59.156828 
L 129.539837 67.367381 
L 137.418128 67.390456 
L 142.542988 60.033381 
M 139.666621 59.304986 
L 136.335526 64.086993 
L 131.214735 64.071994 
L 131.911343 58.735237 
L 132.289985 54.985801 
L 136.949312 55.38774 
" style="fill:#ff8282;"/>
   </g>
   <g id="PathCollection_33">
    <path clip-path="url(#p39ee9e0a56)" d="M 69.703576 259.382776 
L 68.096043 244.035396 
L 53.26782 248.644761 
L 53.874897 249.041384 
L 67.60676 244.772824 
L 69.095435 258.985458 
M 136.949312 55.38774 
L 132.289985 54.985801 
L 131.911343 58.735237 
L 131.214735 64.071994 
L 136.335526 64.086993 
L 139.666621 59.304986 
M 136.790254 58.576591 
L 135.252924 60.78353 
L 132.889632 60.776608 
L 133.211123 58.313646 
L 133.38587 56.583248 
L 135.536192 56.768746 
" style="fill:#ff7878;"/>
   </g>
   <g id="PathCollection_34">
    <path clip-path="url(#p39ee9e0a56)" d="M 69.095435 258.985458 
L 67.60676 244.772824 
L 53.874897 249.041384 
L 54.481974 249.438007 
L 67.117476 245.510251 
L 68.487295 258.58814 
M 135.536192 56.768746 
L 133.38587 56.583248 
L 133.211123 58.313646 
L 132.889632 60.776608 
L 135.252924 60.78353 
L 136.790254 58.576591 
" style="fill:#ff6e6e;"/>
   </g>
   <g id="PathCollection_35">
    <path clip-path="url(#p39ee9e0a56)" d="M 68.487295 258.58814 
L 67.117476 245.510251 
L 54.481974 249.438007 
L 55.089051 249.834631 
L 66.628193 246.247679 
L 67.879155 258.190823 
" style="fill:#ff6666;"/>
   </g>
   <g id="PathCollection_36">
    <path clip-path="url(#p39ee9e0a56)" d="M 67.879155 258.190823 
L 66.628193 246.247679 
L 55.089051 249.834631 
L 55.696128 250.231254 
L 66.138909 246.985107 
L 67.271015 257.793505 
" style="fill:#ff5c5c;"/>
   </g>
   <g id="PathCollection_37">
    <path clip-path="url(#p39ee9e0a56)" d="M 67.271015 257.793505 
L 66.138909 246.985107 
L 55.696128 250.231254 
L 56.303205 250.627877 
L 65.649626 247.722535 
L 66.662874 257.396187 
" style="fill:#ff5252;"/>
   </g>
   <g id="PathCollection_38">
    <path clip-path="url(#p39ee9e0a56)" d="M 66.662874 257.396187 
L 65.649626 247.722535 
L 56.303205 250.627877 
L 56.910282 251.0245 
L 65.160342 248.459962 
L 66.054734 256.998869 
" style="fill:#ff4a4a;"/>
   </g>
   <g id="PathCollection_39">
    <path clip-path="url(#p39ee9e0a56)" d="M 66.054734 256.998869 
L 65.160342 248.459962 
L 56.910282 251.0245 
L 57.517359 251.421123 
L 64.671059 249.19739 
L 65.446594 256.601551 
" style="fill:#ff4040;"/>
   </g>
   <g id="PathCollection_40">
    <path clip-path="url(#p39ee9e0a56)" d="M 65.446594 256.601551 
L 64.671059 249.19739 
L 57.517359 251.421123 
L 58.124436 251.817747 
L 64.181776 249.934818 
L 64.838454 256.204233 
" style="fill:#ff3838;"/>
   </g>
   <g id="PathCollection_41">
    <path clip-path="url(#p39ee9e0a56)" d="M 64.838454 256.204233 
L 64.181776 249.934818 
L 58.124436 251.817747 
L 58.731513 252.21437 
L 63.692492 250.672246 
L 64.230314 255.806916 
" style="fill:#ff2e2e;"/>
   </g>
   <g id="PathCollection_42">
    <path clip-path="url(#p39ee9e0a56)" d="M 64.230314 255.806916 
L 63.692492 250.672246 
L 58.731513 252.21437 
L 59.33859 252.610993 
L 63.203209 251.409673 
L 63.622173 255.409598 
" style="fill:#ff2424;"/>
   </g>
   <g id="PathCollection_43">
    <path clip-path="url(#p39ee9e0a56)" d="M 63.622173 255.409598 
L 63.203209 251.409673 
L 59.33859 252.610993 
L 59.945667 253.007616 
L 62.713925 252.147101 
L 63.014033 255.01228 
" style="fill:#ff1c1c;"/>
   </g>
   <g id="PathCollection_44">
    <path clip-path="url(#p39ee9e0a56)" d="M 63.014033 255.01228 
L 62.713925 252.147101 
L 59.945667 253.007616 
L 60.552744 253.40424 
L 62.224642 252.884529 
L 62.405893 254.614962 
" style="fill:#ff1212;"/>
   </g>
   <g id="PathCollection_45">
    <path clip-path="url(#p39ee9e0a56)" d="M 62.405893 254.614962 
L 62.224642 252.884529 
L 60.552744 253.40424 
L 61.159821 253.800863 
L 61.735358 253.621957 
L 61.797753 254.217644 
" style="fill:#ff0808;"/>
   </g>
   <g id="PathCollection_46">
    <path clip-path="url(#p39ee9e0a56)" d="M 61.797753 254.217644 
L 61.735358 253.621957 
L 61.159821 253.800863 
L 61.478508 254.009071 
" style="fill:#ff0000;"/>
   </g>
   <g id="line2d_1">
    <path clip-path="url(#p39ee9e0a56)" d="M 7.2 173.703325 
L 7.2 133.719022 
M 44.741749 243.074401 
L 20.182882 211.521168 
M 116.97606 274.759308 
L 78.215267 264.943742 
M 156.823796 271.45743 
L 116.97606 274.759308 
M 193.440354 255.395919 
L 156.823796 271.45743 
M 222.857762 228.315287 
L 193.440354 255.395919 
M 241.888187 193.150142 
L 222.857762 228.315287 
M 248.469386 153.711174 
L 241.888187 193.150142 
M 241.888187 114.272205 
L 248.469386 153.711174 
M 222.857762 79.10706 
L 241.888187 114.272205 
M 193.440354 52.026429 
L 222.857762 79.10706 
M 156.823796 35.964917 
L 193.440354 52.026429 
M 116.97606 32.66304 
L 156.823796 35.964917 
M 78.215267 42.478606 
L 116.97606 32.66304 
M 44.741749 64.347946 
L 78.215267 42.478606 
M 20.182882 95.901179 
L 7.2 133.719022 
M 20.182882 95.901179 
L 44.741749 64.347946 
M 161.363557 232.037614 
L 156.823796 271.45743 
M 161.363557 232.037614 
L 193.440354 255.395919 
M 161.363557 232.037614 
L 172.617757 193.98667 
M 90.388914 141.860765 
L 127.006395 153.711174 
M 90.388914 141.860765 
L 68.771247 173.703325 
M 90.388914 141.860765 
L 93.330114 102.165789 
M 90.388914 141.860765 
L 54.213904 128.72148 
M 105.153087 67.414414 
L 116.97606 32.66304 
M 105.153087 67.414414 
L 78.215267 42.478606 
M 105.153087 67.414414 
L 93.330114 102.165789 
M 187.298523 88.216464 
L 222.857762 79.10706 
M 187.298523 88.216464 
L 193.440354 52.026429 
M 187.298523 88.216464 
L 181.156691 124.406499 
M 172.627273 158.6738 
L 181.156691 124.406499 
M 172.627273 158.6738 
L 172.617757 193.98667 
M 172.627273 158.6738 
L 206.932711 167.048517 
M 145.342614 122.910711 
L 127.006395 153.711174 
M 145.342614 122.910711 
L 181.156691 124.406499 
M 37.985624 158.819889 
L 7.2 133.719022 
M 37.985624 158.819889 
L 7.2 173.703325 
M 37.985624 158.819889 
L 68.771247 173.703325 
M 52.899255 96.031272 
L 44.741749 64.347946 
M 52.899255 96.031272 
L 20.182882 95.901179 
M 52.899255 96.031272 
L 54.213904 128.72148 
M 220.547645 138.1019 
L 248.469386 153.711174 
M 220.547645 138.1019 
L 241.888187 114.272205 
M 220.547645 138.1019 
L 206.932711 167.048517 
M 205.223258 200.195936 
L 222.857762 228.315287 
M 205.223258 200.195936 
L 241.888187 193.150142 
M 205.223258 200.195936 
L 172.617757 193.98667 
M 94.955464 238.101751 
L 78.215267 264.943742 
M 94.955464 238.101751 
L 115.037286 213.659021 
M 134.899034 248.96116 
L 116.97606 274.759308 
M 134.899034 248.96116 
L 156.823796 271.45743 
M 134.899034 248.96116 
L 161.363557 232.037614 
M 47.949326 197.073407 
L 20.182882 211.521168 
M 47.949326 197.073407 
L 68.771247 173.703325 
M 47.949326 197.073407 
L 74.034082 214.373658 
M 47.949326 197.073407 
L 37.985624 158.819889 
M 100.800385 172.188344 
L 127.006395 153.711174 
M 100.800385 172.188344 
L 68.771247 173.703325 
M 100.800385 172.188344 
L 90.388914 141.860765 
M 129.752365 185.428222 
L 127.006395 153.711174 
M 129.752365 185.428222 
L 115.037286 213.659021 
M 129.752365 185.428222 
L 100.800385 172.188344 
M 134.325089 57.952326 
L 156.823796 35.964917 
M 134.325089 57.952326 
L 116.97606 32.66304 
M 134.325089 57.952326 
L 143.87579 87.095437 
M 134.325089 57.952326 
L 105.153087 67.414414 
M 166.145969 66.010467 
L 193.440354 52.026429 
M 166.145969 66.010467 
L 156.823796 35.964917 
M 166.145969 66.010467 
L 143.87579 87.095437 
M 166.145969 66.010467 
L 187.298523 88.216464 
M 166.145969 66.010467 
L 134.325089 57.952326 
M 211.231318 108.288173 
L 241.888187 114.272205 
M 211.231318 108.288173 
L 222.857762 79.10706 
M 211.231318 108.288173 
L 181.156691 124.406499 
M 211.231318 108.288173 
L 187.298523 88.216464 
M 211.231318 108.288173 
L 220.547645 138.1019 
M 74.557485 73.563107 
L 78.215267 42.478606 
M 74.557485 73.563107 
L 44.741749 64.347946 
M 74.557485 73.563107 
L 93.330114 102.165789 
M 74.557485 73.563107 
L 105.153087 67.414414 
M 74.557485 73.563107 
L 52.899255 96.031272 
M 115.707295 126.126345 
L 127.006395 153.711174 
M 115.707295 126.126345 
L 93.330114 102.165789 
M 115.707295 126.126345 
L 90.388914 141.860765 
M 115.707295 126.126345 
L 145.342614 122.910711 
M 194.197266 226.699916 
L 193.440354 255.395919 
M 194.197266 226.699916 
L 222.857762 228.315287 
M 194.197266 226.699916 
L 172.617757 193.98667 
M 194.197266 226.699916 
L 161.363557 232.037614 
M 194.197266 226.699916 
L 205.223258 200.195936 
M 147.672839 207.298576 
L 115.037286 213.659021 
M 147.672839 207.298576 
L 172.617757 193.98667 
M 147.672839 207.298576 
L 161.363557 232.037614 
M 147.672839 207.298576 
L 129.752365 185.428222 
M 117.523416 91.009867 
L 93.330114 102.165789 
M 117.523416 91.009867 
L 143.87579 87.095437 
M 117.523416 91.009867 
L 105.153087 67.414414 
M 117.523416 91.009867 
L 134.325089 57.952326 
M 117.523416 91.009867 
L 115.707295 126.126345 
M 164.062082 104.206376 
L 181.156691 124.406499 
M 164.062082 104.206376 
L 143.87579 87.095437 
M 164.062082 104.206376 
L 187.298523 88.216464 
M 164.062082 104.206376 
L 145.342614 122.910711 
M 164.062082 104.206376 
L 166.145969 66.010467 
M 153.856947 176.325178 
L 127.006395 153.711174 
M 153.856947 176.325178 
L 172.617757 193.98667 
M 153.856947 176.325178 
L 172.627273 158.6738 
M 153.856947 176.325178 
L 129.752365 185.428222 
M 153.856947 176.325178 
L 147.672839 207.298576 
M 61.478508 254.009071 
L 44.741749 243.074401 
M 61.478508 254.009071 
L 78.215267 264.943742 
M 94.24985 197.616251 
L 115.037286 213.659021 
M 94.24985 197.616251 
L 74.034082 214.373658 
M 94.24985 197.616251 
L 100.800385 172.188344 
M 94.24985 197.616251 
L 129.752365 185.428222 
M 196.292512 144.368763 
L 181.156691 124.406499 
M 196.292512 144.368763 
L 206.932711 167.048517 
M 196.292512 144.368763 
L 172.627273 158.6738 
M 196.292512 144.368763 
L 220.547645 138.1019 
M 196.292512 144.368763 
L 211.231318 108.288173 
M 71.20776 111.666527 
L 93.330114 102.165789 
M 71.20776 111.666527 
L 54.213904 128.72148 
M 71.20776 111.666527 
L 90.388914 141.860765 
M 71.20776 111.666527 
L 52.899255 96.031272 
M 71.20776 111.666527 
L 74.557485 73.563107 
M 36.473084 113.063395 
L 7.2 133.719022 
M 36.473084 113.063395 
L 20.182882 95.901179 
M 36.473084 113.063395 
L 54.213904 128.72148 
M 36.473084 113.063395 
L 52.899255 96.031272 
M 60.498504 151.534111 
L 68.771247 173.703325 
M 60.498504 151.534111 
L 54.213904 128.72148 
M 60.498504 151.534111 
L 90.388914 141.860765 
M 60.498504 151.534111 
L 37.985624 158.819889 
M 13.691441 192.612246 
L 7.2 173.703325 
M 13.691441 192.612246 
L 20.182882 211.521168 
M 13.691441 192.612246 
L 47.949326 197.073407 
M 51.247384 220.415702 
L 20.182882 211.521168 
M 51.247384 220.415702 
L 44.741749 243.074401 
M 51.247384 220.415702 
L 74.034082 214.373658 
M 51.247384 220.415702 
L 47.949326 197.073407 
M 150.813947 147.026137 
L 127.006395 153.711174 
M 150.813947 147.026137 
L 181.156691 124.406499 
M 150.813947 147.026137 
L 172.627273 158.6738 
M 150.813947 147.026137 
L 145.342614 122.910711 
M 150.813947 147.026137 
L 153.856947 176.325178 
M 31.905715 136.117622 
L 7.2 133.719022 
M 31.905715 136.117622 
L 54.213904 128.72148 
M 31.905715 136.117622 
L 37.985624 158.819889 
M 31.905715 136.117622 
L 36.473084 113.063395 
M 31.905715 136.117622 
L 60.498504 151.534111 
M 191.627426 182.876993 
L 172.617757 193.98667 
M 191.627426 182.876993 
L 206.932711 167.048517 
M 191.627426 182.876993 
L 172.627273 158.6738 
M 191.627426 182.876993 
L 205.223258 200.195936 
M 227.23274 158.921385 
L 248.469386 153.711174 
M 227.23274 158.921385 
L 206.932711 167.048517 
M 227.23274 158.921385 
L 220.547645 138.1019 
M 224.100604 180.514276 
L 241.888187 193.150142 
M 224.100604 180.514276 
L 248.469386 153.711174 
M 224.100604 180.514276 
L 206.932711 167.048517 
M 224.100604 180.514276 
L 205.223258 200.195936 
M 224.100604 180.514276 
L 191.627426 182.876993 
M 224.100604 180.514276 
L 227.23274 158.921385 
M 139.961566 227.723814 
L 115.037286 213.659021 
M 139.961566 227.723814 
L 161.363557 232.037614 
M 139.961566 227.723814 
L 134.899034 248.96116 
M 139.961566 227.723814 
L 147.672839 207.298576 
M 112.485096 252.514294 
L 78.215267 264.943742 
M 112.485096 252.514294 
L 116.97606 274.759308 
M 112.485096 252.514294 
L 115.037286 213.659021 
M 112.485096 252.514294 
L 94.955464 238.101751 
M 112.485096 252.514294 
L 134.899034 248.96116 
M 112.485096 252.514294 
L 139.961566 227.723814 
M 133.13869 105.472852 
L 143.87579 87.095437 
M 133.13869 105.472852 
L 145.342614 122.910711 
M 133.13869 105.472852 
L 115.707295 126.126345 
M 133.13869 105.472852 
L 117.523416 91.009867 
M 133.13869 105.472852 
L 164.062082 104.206376 
M 27.869512 177.17619 
L 7.2 173.703325 
M 27.869512 177.17619 
L 37.985624 158.819889 
M 27.869512 177.17619 
L 47.949326 197.073407 
M 27.869512 177.17619 
L 13.691441 192.612246 
M 73.434175 235.989984 
L 44.741749 243.074401 
M 73.434175 235.989984 
L 78.215267 264.943742 
M 73.434175 235.989984 
L 74.034082 214.373658 
M 73.434175 235.989984 
L 94.955464 238.101751 
M 73.434175 235.989984 
L 61.478508 254.009071 
M 73.434175 235.989984 
L 51.247384 220.415702 
M 73.95694 193.707962 
L 68.771247 173.703325 
M 73.95694 193.707962 
L 74.034082 214.373658 
M 73.95694 193.707962 
L 47.949326 197.073407 
M 73.95694 193.707962 
L 100.800385 172.188344 
M 73.95694 193.707962 
L 94.24985 197.616251 
M 95.219994 217.848242 
L 115.037286 213.659021 
M 95.219994 217.848242 
L 74.034082 214.373658 
M 95.219994 217.848242 
L 94.955464 238.101751 
M 95.219994 217.848242 
L 94.24985 197.616251 
M 95.219994 217.848242 
L 73.434175 235.989984 
L 73.434175 235.989984 
" style="fill:none;stroke:#ffffff;stroke-linecap:square;stroke-opacity:0.25;stroke-width:2.5;"/>
   </g>
   <g id="line2d_2"/>
   <g id="text_1">
    <!-- $\lVert \bm{u} \rVert^{-1} (\bm{u} - \mathbb{E}[\bm{\mathsf{u}}])$ -->
    <defs>
     <path d="M 17.234375 71.59375 
C 17.234375 73.203125 17.234375 75 15.234375 75 
C 13.234375 75 13.234375 72.796875 13.234375 71.296875 
L 13.234375 -21.296875 
C 13.234375 -22.90625 13.234375 -25 15.234375 -25 
C 17.234375 -25 17.234375 -23.203125 17.234375 -21.59375 
z
M 36.734375 71.296875 
C 36.734375 72.90625 36.734375 75 34.734375 75 
C 32.734375 75 32.734375 73.203125 32.734375 71.59375 
L 32.734375 -21.59375 
C 32.734375 -23.203125 32.734375 -25 34.734375 -25 
C 36.734375 -25 36.734375 -22.796875 36.734375 -21.296875 
z
" id="CMSY10-107"/>
     <path d="M 56.296875 31.5 
C 57 34.296875 58.203125 39.09375 58.203125 39.796875 
C 58.203125 41.890625 56.59375 44.203125 53.5 44.203125 
C 51.90625 44.203125 48.203125 43.296875 46.90625 38.890625 
C 46.5 37.5 42 19.390625 41.203125 16.09375 
C 40.59375 13.78125 39.90625 10.890625 39.703125 9.09375 
C 37.90625 6.6875 34 2.578125 28.90625 2.578125 
C 23 2.578125 22.90625 7.59375 22.90625 9.875 
C 22.90625 15.984375 26 23.78125 28.796875 31 
C 29.796875 33.578125 30.09375 34.296875 30.09375 35.984375 
C 30.09375 41.796875 24.296875 45 18.796875 45 
C 8.203125 45 3.203125 31.390625 3.203125 29.390625 
C 3.203125 28 4.703125 28 5.59375 28 
C 6.796875 28 7.5 28 7.90625 29.296875 
C 11.203125 40.421875 16.59375 41.40625 18.203125 41.40625 
C 18.90625 41.40625 19.90625 41.40625 19.90625 39.3125 
C 19.90625 37.015625 18.703125 34.21875 18.296875 33 
C 14.09375 22.5 12.203125 16.890625 12.203125 12 
C 12.203125 0.59375 22.203125 -1 28.09375 -1 
C 31 -1 35.40625 -0.59375 40.796875 4.484375 
C 44 -0.40625 49.796875 -1 52.203125 -1 
C 55.90625 -1 58.796875 1.09375 60.90625 4.6875 
C 63.40625 8.6875 64.703125 14.09375 64.703125 14.59375 
C 64.703125 15.984375 63.203125 15.984375 62.296875 15.984375 
C 61.203125 15.984375 60.796875 15.984375 60.296875 15.484375 
C 60.09375 15.296875 60.09375 15.09375 59.5 12.59375 
C 57.5 4.796875 55.296875 2.578125 52.703125 2.578125 
C 51.203125 2.578125 50.40625 3.578125 50.40625 6.28125 
C 50.40625 7.984375 50.796875 9.578125 51.796875 13.578125 
C 52.5 16.390625 53.5 20.390625 54 22.59375 
z
" id="CMMIB10-117"/>
     <path d="M 65.90625 23 
C 67.59375 23 69.40625 23 69.40625 25 
C 69.40625 27 67.59375 27 65.90625 27 
L 11.796875 27 
C 10.09375 27 8.296875 27 8.296875 25 
C 8.296875 23 10.09375 23 11.796875 23 
z
" id="CMSY10-0"/>
     <path d="M 26.59375 63.40625 
C 26.59375 65.5 26.5 65.5 25.09375 65.5 
C 21.203125 61.1875 15.296875 59.796875 9.703125 59.796875 
C 9.40625 59.796875 8.90625 59.796875 8.796875 59.5 
C 8.703125 59.296875 8.703125 59.09375 8.703125 57 
C 11.796875 57 17 57.59375 21 59.984375 
L 21 7.203125 
C 21 3.6875 20.796875 2.5 12.203125 2.5 
L 9.203125 2.5 
L 9.203125 0 
C 14 0 19 0 23.796875 0 
C 28.59375 0 33.59375 0 38.40625 0 
L 38.40625 2.5 
L 35.40625 2.5 
C 26.796875 2.5 26.59375 3.59375 26.59375 7.15625 
z
" id="CMR17-49"/>
     <path d="M 30.59375 -24.390625 
C 30.59375 -24.296875 30.59375 -24.09375 30.296875 -23.796875 
C 25.703125 -19.125 13.40625 -6.359375 13.40625 24.703125 
C 13.40625 55.765625 25.5 68.421875 30.40625 73.390625 
C 30.40625 73.5 30.59375 73.703125 30.59375 74 
C 30.59375 74.296875 30.296875 74.5 29.90625 74.5 
C 28.796875 74.5 20.296875 67.125 15.40625 56.15625 
C 10.40625 45.109375 9 34.359375 9 24.8125 
C 9 17.625 9.703125 5.484375 15.703125 -7.359375 
C 20.5 -17.734375 28.703125 -25 29.90625 -25 
C 30.40625 -25 30.59375 -24.796875 30.59375 -24.390625 
z
" id="CMR17-40"/>
     <path d="M 25.90625 34 
C 28.40625 34 33.203125 34 36.703125 31.96875 
C 41.5 28.953125 41.90625 23.703125 41.90625 23.125 
C 42 21.765625 42 20.5 43.703125 20.5 
C 45.40625 20.5 45.40625 21.890625 45.40625 23.703125 
L 45.40625 50.796875 
C 45.40625 52.390625 45.40625 54 43.703125 54 
C 42 54 41.90625 52.421875 41.90625 51.578125 
C 41.296875 38 31.09375 38 25.90625 38 
L 25.90625 58.9375 
C 25.90625 65.59375 27.796875 65.59375 30.203125 65.59375 
L 35 65.59375 
C 48.5 65.59375 55.203125 58.734375 55.796875 51.875 
C 55.90625 51.078125 56 49.59375 57.59375 49.59375 
C 59.296875 49.59375 59.296875 51.1875 59.296875 52.890625 
L 59.296875 65.90625 
C 59.296875 69 59.09375 69 56 69 
L 4.796875 69 
C 3 69 1.40625 69 1.40625 67.25 
C 1.40625 65.59375 3.296875 65.59375 4.09375 65.59375 
C 9.796875 65.59375 10.203125 64.796875 10.203125 59.875 
L 10.203125 9.71875 
C 10.203125 5 9.90625 4 4.59375 4 
C 3.09375 4 1.40625 4 1.40625 2.296875 
C 1.40625 0.5 3 0.5 4.796875 0.5 
L 57.796875 0.5 
C 59.703125 0.5 60.703125 0.5 61 1.921875 
C 61.09375 2.015625 63.90625 18.953125 63.90625 19.453125 
C 63.90625 20.5625 63 21.28125 62.203125 21.28125 
C 60.796875 21.28125 60.40625 19.96875 60.40625 19.859375 
C 59.796875 17.21875 58.796875 12.9375 51.5 8.578125 
C 46.296875 5.421875 41.203125 4 35.703125 4 
L 30.203125 4 
C 27.796875 4 25.90625 4 25.90625 10.6875 
z
M 55.796875 65.59375 
L 55.796875 60.875 
C 54.09375 62.734375 52.203125 64.3125 50.09375 65.59375 
z
M 36.296875 36.171875 
C 37.90625 36.875 40.09375 38.375 41.90625 40.46875 
L 41.90625 32.0625 
C 39.5 34.765625 36.40625 36.0625 36.296875 36.0625 
z
M 13.703125 60.078125 
C 13.703125 61.296875 13.703125 63.796875 12.90625 65.59375 
L 23.5 65.59375 
C 22.40625 63.296875 22.40625 59.984375 22.40625 59.078125 
L 22.40625 10.515625 
C 22.40625 6.90625 23.09375 4.90625 23.5 4 
L 12.90625 4 
C 13.703125 5.796875 13.703125 8.296875 13.703125 9.515625 
z
M 50.90625 4 
L 50.90625 4.09375 
C 54.09375 5.734375 56.796875 7.875 58.796875 9.703125 
C 58.703125 9.3125 58 4.8125 57.90625 4 
z
" id="MSBM10-69"/>
     <path d="M 23.5 -25 
L 23.5 -21.515625 
L 14.09375 -21.515625 
L 14.09375 71 
L 23.5 71 
L 23.5 74.484375 
L 10.59375 74.484375 
L 10.59375 -25 
z
" id="CMR17-91"/>
     <path d="M 50 41.4375 
C 50 44.671875 49.296875 46.28125 45.203125 46.28125 
L 41.203125 46.28125 
C 37.40625 46.28125 36.40625 44.96875 36.40625 41.453125 
L 36.40625 17.5625 
C 36.40625 10.90625 32.90625 5.15625 25.796875 5.15625 
C 20.203125 5.15625 19.59375 6.578125 19.59375 11.921875 
L 19.59375 41.453125 
C 19.59375 44.671875 18.90625 46.28125 14.796875 46.28125 
L 10.796875 46.28125 
C 7.203125 46.28125 6 45.171875 6 41.453125 
L 6 12.8125 
C 6 2.03125 11.796875 -1 22.203125 -1 
C 24.90625 -1 32 -1 36.703125 7.578125 
L 36.703125 4.90625 
C 36.703125 1.625 37.40625 0 41.5 0 
L 45.203125 0 
C 49 0 50 1.3125 50 4.84375 
z
" id="CMSSBX10-117"/>
     <path d="M 14.296875 74.484375 
L 1.40625 74.484375 
L 1.40625 71 
L 10.796875 71 
L 10.796875 -21.515625 
L 1.40625 -21.515625 
L 1.40625 -25 
L 14.296875 -25 
z
" id="CMR17-93"/>
     <path d="M 26.296875 24.703125 
C 26.296875 31.875 25.59375 44.015625 19.59375 56.859375 
C 14.796875 67.234375 6.59375 74.5 5.40625 74.5 
C 5.09375 74.5 4.703125 74.390625 4.703125 73.890625 
C 4.703125 73.703125 4.796875 73.59375 4.90625 73.390625 
C 9.703125 68.40625 21.90625 55.75 21.90625 24.75 
C 21.90625 -6.359375 9.796875 -19.015625 4.90625 -24.015625 
C 4.796875 -24.203125 4.703125 -24.3125 4.703125 -24.5 
C 4.703125 -25 5.09375 -25 5.40625 -25 
C 6.5 -25 15 -17.625 19.90625 -6.65625 
C 24.90625 4.390625 26.296875 15.140625 26.296875 24.703125 
z
" id="CMR17-41"/>
    </defs>
    <g transform="translate(45.014418 26.66304)scale(0.24 -0.24)">
     <use transform="scale(0.996264)" xlink:href="#CMSY10-107"/>
     <use transform="translate(49.813383 0)scale(0.996264)" xlink:href="#CMMIB10-117"/>
     <use transform="translate(117.66064 0)scale(0.996264)" xlink:href="#CMSY10-107"/>
     <use transform="translate(167.474023 36.153639)scale(0.697382)" xlink:href="#CMSY10-0"/>
     <use transform="translate(221.715016 36.153639)scale(0.697382)" xlink:href="#CMR17-49"/>
     <use transform="translate(254.19633 0)scale(0.996264)" xlink:href="#CMR17-40"/>
     <use transform="translate(289.477098 0)scale(0.996264)" xlink:href="#CMMIB10-117"/>
     <use transform="translate(379.463563 0)scale(0.996264)" xlink:href="#CMSY10-0"/>
     <use transform="translate(479.090237 0)scale(0.996264)" xlink:href="#MSBM10-69"/>
     <use transform="translate(545.508056 0)scale(0.996264)" xlink:href="#CMR17-91"/>
     <use transform="translate(570.379114 0)scale(0.996264)" xlink:href="#CMSSBX10-117"/>
     <use transform="translate(626.280902 0)scale(0.996264)" xlink:href="#CMR17-93"/>
     <use transform="translate(651.151961 0)scale(0.996264)" xlink:href="#CMR17-41"/>
    </g>
   </g>
  </g>
  <g id="axes_2">
   <g id="patch_2">
    <path clip-path="url(#p343e9744b5)" d="M 248.469386 285.798032 
L 248.469386 280.055125 
L 248.469386 27.367222 
L 248.469386 21.624315 
L 261.678072 21.624315 
L 261.678072 27.367222 
L 261.678072 280.055125 
L 261.678072 285.798032 
z
" style="fill:#ffffff;stroke:#ffffff;stroke-linejoin:miter;stroke-width:0.01;"/>
   </g>
   <g id="QuadMesh_1">
    <path clip-path="url(#p343e9744b5)" d="M 248.469386 285.798032 
L 261.678072 285.798032 
L 261.678072 280.055125 
L 248.469386 280.055125 
L 248.469386 285.798032 
" style="fill:#5c5cff;"/>
    <path clip-path="url(#p343e9744b5)" d="M 248.469386 280.055125 
L 261.678072 280.055125 
L 261.678072 274.312218 
L 248.469386 274.312218 
L 248.469386 280.055125 
" style="fill:#6666ff;"/>
    <path clip-path="url(#p343e9744b5)" d="M 248.469386 274.312218 
L 261.678072 274.312218 
L 261.678072 268.569311 
L 248.469386 268.569311 
L 248.469386 274.312218 
" style="fill:#6e6eff;"/>
    <path clip-path="url(#p343e9744b5)" d="M 248.469386 268.569311 
L 261.678072 268.569311 
L 261.678072 262.826404 
L 248.469386 262.826404 
L 248.469386 268.569311 
" style="fill:#7878ff;"/>
    <path clip-path="url(#p343e9744b5)" d="M 248.469386 262.826404 
L 261.678072 262.826404 
L 261.678072 257.083498 
L 248.469386 257.083498 
L 248.469386 262.826404 
" style="fill:#8282ff;"/>
    <path clip-path="url(#p343e9744b5)" d="M 248.469386 257.083498 
L 261.678072 257.083498 
L 261.678072 251.340591 
L 248.469386 251.340591 
L 248.469386 257.083498 
" style="fill:#8a8aff;"/>
    <path clip-path="url(#p343e9744b5)" d="M 248.469386 251.340591 
L 261.678072 251.340591 
L 261.678072 245.597684 
L 248.469386 245.597684 
L 248.469386 251.340591 
" style="fill:#9494ff;"/>
    <path clip-path="url(#p343e9744b5)" d="M 248.469386 245.597684 
L 261.678072 245.597684 
L 261.678072 239.854777 
L 248.469386 239.854777 
L 248.469386 245.597684 
" style="fill:#9e9eff;"/>
    <path clip-path="url(#p343e9744b5)" d="M 248.469386 239.854777 
L 261.678072 239.854777 
L 261.678072 234.11187 
L 248.469386 234.11187 
L 248.469386 239.854777 
" style="fill:#a6a6ff;"/>
    <path clip-path="url(#p343e9744b5)" d="M 248.469386 234.11187 
L 261.678072 234.11187 
L 261.678072 228.368963 
L 248.469386 228.368963 
L 248.469386 234.11187 
" style="fill:#b0b0ff;"/>
    <path clip-path="url(#p343e9744b5)" d="M 248.469386 228.368963 
L 261.678072 228.368963 
L 261.678072 222.626056 
L 248.469386 222.626056 
L 248.469386 228.368963 
" style="fill:#babaff;"/>
    <path clip-path="url(#p343e9744b5)" d="M 248.469386 222.626056 
L 261.678072 222.626056 
L 261.678072 216.883149 
L 248.469386 216.883149 
L 248.469386 222.626056 
" style="fill:#c2c2ff;"/>
    <path clip-path="url(#p343e9744b5)" d="M 248.469386 216.883149 
L 261.678072 216.883149 
L 261.678072 211.140242 
L 248.469386 211.140242 
L 248.469386 216.883149 
" style="fill:#ccccff;"/>
    <path clip-path="url(#p343e9744b5)" d="M 248.469386 211.140242 
L 261.678072 211.140242 
L 261.678072 205.397336 
L 248.469386 205.397336 
L 248.469386 211.140242 
" style="fill:#d6d6ff;"/>
    <path clip-path="url(#p343e9744b5)" d="M 248.469386 205.397336 
L 261.678072 205.397336 
L 261.678072 199.654429 
L 248.469386 199.654429 
L 248.469386 205.397336 
" style="fill:#dedeff;"/>
    <path clip-path="url(#p343e9744b5)" d="M 248.469386 199.654429 
L 261.678072 199.654429 
L 261.678072 193.911522 
L 248.469386 193.911522 
L 248.469386 199.654429 
" style="fill:#e8e8ff;"/>
    <path clip-path="url(#p343e9744b5)" d="M 248.469386 193.911522 
L 261.678072 193.911522 
L 261.678072 188.168615 
L 248.469386 188.168615 
L 248.469386 193.911522 
" style="fill:#f2f2ff;"/>
    <path clip-path="url(#p343e9744b5)" d="M 248.469386 188.168615 
L 261.678072 188.168615 
L 261.678072 182.425708 
L 248.469386 182.425708 
L 248.469386 188.168615 
" style="fill:#fafaff;"/>
    <path clip-path="url(#p343e9744b5)" d="M 248.469386 182.425708 
L 261.678072 182.425708 
L 261.678072 176.682801 
L 248.469386 176.682801 
L 248.469386 182.425708 
" style="fill:#fffafa;"/>
    <path clip-path="url(#p343e9744b5)" d="M 248.469386 176.682801 
L 261.678072 176.682801 
L 261.678072 170.939894 
L 248.469386 170.939894 
L 248.469386 176.682801 
" style="fill:#fff2f2;"/>
    <path clip-path="url(#p343e9744b5)" d="M 248.469386 170.939894 
L 261.678072 170.939894 
L 261.678072 165.196987 
L 248.469386 165.196987 
L 248.469386 170.939894 
" style="fill:#ffe8e8;"/>
    <path clip-path="url(#p343e9744b5)" d="M 248.469386 165.196987 
L 261.678072 165.196987 
L 261.678072 159.45408 
L 248.469386 159.45408 
L 248.469386 165.196987 
" style="fill:#ffdede;"/>
    <path clip-path="url(#p343e9744b5)" d="M 248.469386 159.45408 
L 261.678072 159.45408 
L 261.678072 153.711174 
L 248.469386 153.711174 
L 248.469386 159.45408 
" style="fill:#ffd6d6;"/>
    <path clip-path="url(#p343e9744b5)" d="M 248.469386 153.711174 
L 261.678072 153.711174 
L 261.678072 147.968267 
L 248.469386 147.968267 
L 248.469386 153.711174 
" style="fill:#ffcccc;"/>
    <path clip-path="url(#p343e9744b5)" d="M 248.469386 147.968267 
L 261.678072 147.968267 
L 261.678072 142.22536 
L 248.469386 142.22536 
L 248.469386 147.968267 
" style="fill:#ffc2c2;"/>
    <path clip-path="url(#p343e9744b5)" d="M 248.469386 142.22536 
L 261.678072 142.22536 
L 261.678072 136.482453 
L 248.469386 136.482453 
L 248.469386 142.22536 
" style="fill:#ffbaba;"/>
    <path clip-path="url(#p343e9744b5)" d="M 248.469386 136.482453 
L 261.678072 136.482453 
L 261.678072 130.739546 
L 248.469386 130.739546 
L 248.469386 136.482453 
" style="fill:#ffb0b0;"/>
    <path clip-path="url(#p343e9744b5)" d="M 248.469386 130.739546 
L 261.678072 130.739546 
L 261.678072 124.996639 
L 248.469386 124.996639 
L 248.469386 130.739546 
" style="fill:#ffa6a6;"/>
    <path clip-path="url(#p343e9744b5)" d="M 248.469386 124.996639 
L 261.678072 124.996639 
L 261.678072 119.253732 
L 248.469386 119.253732 
L 248.469386 124.996639 
" style="fill:#ff9e9e;"/>
    <path clip-path="url(#p343e9744b5)" d="M 248.469386 119.253732 
L 261.678072 119.253732 
L 261.678072 113.510825 
L 248.469386 113.510825 
L 248.469386 119.253732 
" style="fill:#ff9494;"/>
    <path clip-path="url(#p343e9744b5)" d="M 248.469386 113.510825 
L 261.678072 113.510825 
L 261.678072 107.767918 
L 248.469386 107.767918 
L 248.469386 113.510825 
" style="fill:#ff8a8a;"/>
    <path clip-path="url(#p343e9744b5)" d="M 248.469386 107.767918 
L 261.678072 107.767918 
L 261.678072 102.025012 
L 248.469386 102.025012 
L 248.469386 107.767918 
" style="fill:#ff8282;"/>
    <path clip-path="url(#p343e9744b5)" d="M 248.469386 102.025012 
L 261.678072 102.025012 
L 261.678072 96.282105 
L 248.469386 96.282105 
L 248.469386 102.025012 
" style="fill:#ff7878;"/>
    <path clip-path="url(#p343e9744b5)" d="M 248.469386 96.282105 
L 261.678072 96.282105 
L 261.678072 90.539198 
L 248.469386 90.539198 
L 248.469386 96.282105 
" style="fill:#ff6e6e;"/>
    <path clip-path="url(#p343e9744b5)" d="M 248.469386 90.539198 
L 261.678072 90.539198 
L 261.678072 84.796291 
L 248.469386 84.796291 
L 248.469386 90.539198 
" style="fill:#ff6666;"/>
    <path clip-path="url(#p343e9744b5)" d="M 248.469386 84.796291 
L 261.678072 84.796291 
L 261.678072 79.053384 
L 248.469386 79.053384 
L 248.469386 84.796291 
" style="fill:#ff5c5c;"/>
    <path clip-path="url(#p343e9744b5)" d="M 248.469386 79.053384 
L 261.678072 79.053384 
L 261.678072 73.310477 
L 248.469386 73.310477 
L 248.469386 79.053384 
" style="fill:#ff5252;"/>
    <path clip-path="url(#p343e9744b5)" d="M 248.469386 73.310477 
L 261.678072 73.310477 
L 261.678072 67.56757 
L 248.469386 67.56757 
L 248.469386 73.310477 
" style="fill:#ff4a4a;"/>
    <path clip-path="url(#p343e9744b5)" d="M 248.469386 67.56757 
L 261.678072 67.56757 
L 261.678072 61.824663 
L 248.469386 61.824663 
L 248.469386 67.56757 
" style="fill:#ff4040;"/>
    <path clip-path="url(#p343e9744b5)" d="M 248.469386 61.824663 
L 261.678072 61.824663 
L 261.678072 56.081756 
L 248.469386 56.081756 
L 248.469386 61.824663 
" style="fill:#ff3838;"/>
    <path clip-path="url(#p343e9744b5)" d="M 248.469386 56.081756 
L 261.678072 56.081756 
L 261.678072 50.33885 
L 248.469386 50.33885 
L 248.469386 56.081756 
" style="fill:#ff2e2e;"/>
    <path clip-path="url(#p343e9744b5)" d="M 248.469386 50.33885 
L 261.678072 50.33885 
L 261.678072 44.595943 
L 248.469386 44.595943 
L 248.469386 50.33885 
" style="fill:#ff2424;"/>
    <path clip-path="url(#p343e9744b5)" d="M 248.469386 44.595943 
L 261.678072 44.595943 
L 261.678072 38.853036 
L 248.469386 38.853036 
L 248.469386 44.595943 
" style="fill:#ff1c1c;"/>
    <path clip-path="url(#p343e9744b5)" d="M 248.469386 38.853036 
L 261.678072 38.853036 
L 261.678072 33.110129 
L 248.469386 33.110129 
L 248.469386 38.853036 
" style="fill:#ff1212;"/>
    <path clip-path="url(#p343e9744b5)" d="M 248.469386 33.110129 
L 261.678072 33.110129 
L 261.678072 27.367222 
L 248.469386 27.367222 
L 248.469386 33.110129 
" style="fill:#ff0808;"/>
    <path clip-path="url(#p343e9744b5)" d="M 248.469386 27.367222 
L 261.678072 27.367222 
L 261.678072 21.624315 
L 248.469386 21.624315 
L 248.469386 27.367222 
" style="fill:#ff0000;"/>
   </g>
   <g id="matplotlib.axis_1"/>
   <g id="matplotlib.axis_2">
    <g id="ytick_1">
     <g id="line2d_3">
      <defs>
       <path d="M 0 0 
L 3.5 0 
" id="m863a5be27a" style="stroke:#000000;stroke-width:0.8;"/>
      </defs>
      <g>
       <use style="stroke:#000000;stroke-width:0.8;" x="261.678072" xlink:href="#m863a5be27a" y="268.569311"/>
      </g>
     </g>
     <g id="text_2">
      <!-- $-0.0045$ -->
      <defs>
       <path d="M 42 31.640625 
C 42 37.75 41.90625 48.125 37.703125 56.109375 
C 34 63.109375 28.09375 65.59375 22.90625 65.59375 
C 18.09375 65.59375 12 63.40625 8.203125 56.203125 
C 4.203125 48.71875 3.796875 39.4375 3.796875 31.640625 
C 3.796875 25.953125 3.90625 17.28125 7 9.671875 
C 11.296875 -0.609375 19 -2 22.90625 -2 
C 27.5 -2 34.5 -0.109375 38.59375 9.375 
C 41.59375 16.28125 42 24.359375 42 31.640625 
z
M 22.90625 -0.40625 
C 16.5 -0.40625 12.703125 5.078125 11.296875 12.6875 
C 10.203125 18.5625 10.203125 27.15625 10.203125 32.75 
C 10.203125 40.4375 10.203125 46.828125 11.5 52.921875 
C 13.40625 61.390625 19 64 22.90625 64 
C 27 64 32.296875 61.296875 34.203125 53.125 
C 35.5 47.4375 35.59375 40.734375 35.59375 32.75 
C 35.59375 26.25 35.59375 18.265625 34.40625 12.375 
C 32.296875 1.484375 26.40625 -0.40625 22.90625 -0.40625 
z
" id="CMR17-48"/>
       <path d="M 18.40625 4.796875 
C 18.40625 7.6875 16 9.671875 13.59375 9.671875 
C 10.703125 9.671875 8.703125 7.28125 8.703125 4.890625 
C 8.703125 2 11.09375 0 13.5 0 
C 16.40625 0 18.40625 2.390625 18.40625 4.796875 
z
" id="CMMI12-58"/>
       <path d="M 33.59375 64.40625 
C 33.59375 66.5 33.5 66.5 31.703125 66.5 
L 2 19.59375 
L 2 17 
L 27.796875 17 
L 27.796875 7.140625 
C 27.796875 3.5 27.59375 2.5 20.59375 2.5 
L 18.703125 2.5 
L 18.703125 0 
C 21.90625 0 27.296875 0 30.703125 0 
C 34.09375 0 39.5 0 42.703125 0 
L 42.703125 2.5 
L 40.796875 2.5 
C 33.796875 2.5 33.59375 3.5 33.59375 7.140625 
L 33.59375 17 
L 43.796875 17 
L 43.796875 19.59375 
L 33.59375 19.59375 
z
M 28.09375 57.859375 
L 28.09375 19.59375 
L 4 19.59375 
z
" id="CMR17-52"/>
       <path d="M 11.40625 57.6875 
C 12.40625 57.28125 16.5 56 20.703125 56 
C 30 56 35.09375 61.109375 38 64.0625 
C 38 64.953125 38 65.5 37.40625 65.5 
C 37.296875 65.5 37.09375 65.5 36.296875 65.046875 
C 32.796875 63.40625 28.703125 62.078125 23.703125 62.078125 
C 20.703125 62.078125 16.203125 62.484375 11.296875 64.671875 
C 10.203125 65.171875 10 65.171875 9.90625 65.171875 
C 9.40625 65.171875 9.296875 65.0625 9.296875 63.078125 
L 9.296875 34.421875 
C 9.296875 32.640625 9.296875 32.140625 10.296875 32.140625 
C 10.796875 32.140625 11 32.34375 11.5 33.03125 
C 14.703125 37.515625 19.09375 39.40625 24.09375 39.40625 
C 27.59375 39.40625 35.09375 37.21875 35.09375 20.140625 
C 35.09375 16.953125 35.09375 11.171875 32.09375 6.578125 
C 29.59375 2.484375 25.703125 0.390625 21.40625 0.390625 
C 14.796875 0.390625 8.09375 5 6.296875 12.71875 
C 6.703125 12.609375 7.5 12.421875 7.90625 12.421875 
C 9.203125 12.421875 11.703125 13.125 11.703125 16.21875 
C 11.703125 18.90625 9.796875 20 7.90625 20 
C 5.59375 20 4.09375 18.59375 4.09375 15.796875 
C 4.09375 7.09375 11 -2 21.59375 -2 
C 31.90625 -2 41.703125 6.875 41.703125 19.75 
C 41.703125 31.71875 33.90625 41 24.203125 41 
C 19.09375 41 14.796875 39.109375 11.40625 35.53125 
z
" id="CMR17-53"/>
      </defs>
      <g transform="translate(268.678072 274.795961)scale(0.18 -0.18)">
       <use transform="scale(0.996264)" xlink:href="#CMSY10-0"/>
       <use transform="translate(77.487468 0)scale(0.996264)" xlink:href="#CMR17-48"/>
       <use transform="translate(123.177945 0)scale(0.996264)" xlink:href="#CMMI12-58"/>
       <use transform="translate(150.275122 0)scale(0.996264)" xlink:href="#CMR17-48"/>
       <use transform="translate(195.965599 0)scale(0.996264)" xlink:href="#CMR17-48"/>
       <use transform="translate(241.656076 0)scale(0.996264)" xlink:href="#CMR17-52"/>
       <use transform="translate(287.346553 0)scale(0.996264)" xlink:href="#CMR17-53"/>
      </g>
     </g>
    </g>
    <g id="ytick_2">
     <g id="line2d_4">
      <g>
       <use style="stroke:#000000;stroke-width:0.8;" x="261.678072" xlink:href="#m863a5be27a" y="239.854777"/>
      </g>
     </g>
     <g id="text_3">
      <!-- $-0.0030$ -->
      <defs>
       <path d="M 22.09375 33.703125 
C 31 33.703125 34.90625 25.96875 34.90625 17.03125 
C 34.90625 5 28.5 0.390625 22.703125 0.390625 
C 17.40625 0.390625 8.796875 3.03125 6.09375 10.828125 
C 6.59375 10.625 7.09375 10.625 7.59375 10.625 
C 10 10.625 11.796875 12.21875 11.796875 14.8125 
C 11.796875 17.703125 9.59375 19 7.59375 19 
C 5.90625 19 3.296875 18.203125 3.296875 14.46875 
C 3.296875 5.234375 12.296875 -2 22.90625 -2 
C 34 -2 42.5 6.71875 42.5 16.953125 
C 42.5 26.671875 34.5 33.703125 25 34.796875 
C 32.59375 36.375 39.90625 43.0625 39.90625 52.015625 
C 39.90625 59.6875 32 65.296875 23 65.296875 
C 13.90625 65.296875 5.90625 59.828125 5.90625 52.015625 
C 5.90625 48.59375 8.5 48 9.796875 48 
C 11.90625 48 13.703125 49.296875 13.703125 51.890625 
C 13.703125 54.46875 11.90625 55.765625 9.796875 55.765625 
C 9.40625 55.765625 8.90625 55.765625 8.5 55.578125 
C 11.40625 61.859375 19.296875 63 22.796875 63 
C 26.296875 63 32.90625 61.328125 32.90625 51.875 
C 32.90625 49.109375 32.5 44.1875 29.09375 39.84375 
C 26.09375 36 22.703125 36 19.40625 35.6875 
C 18.90625 35.6875 16.59375 35.453125 16.203125 35.453125 
C 15.5 35.359375 15.09375 35.265625 15.09375 34.5 
C 15.09375 33.796875 15.203125 33.703125 17.203125 33.703125 
z
" id="CMR17-51"/>
      </defs>
      <g transform="translate(268.678072 246.081427)scale(0.18 -0.18)">
       <use transform="scale(0.996264)" xlink:href="#CMSY10-0"/>
       <use transform="translate(77.487468 0)scale(0.996264)" xlink:href="#CMR17-48"/>
       <use transform="translate(123.177945 0)scale(0.996264)" xlink:href="#CMMI12-58"/>
       <use transform="translate(150.275122 0)scale(0.996264)" xlink:href="#CMR17-48"/>
       <use transform="translate(195.965599 0)scale(0.996264)" xlink:href="#CMR17-48"/>
       <use transform="translate(241.656076 0)scale(0.996264)" xlink:href="#CMR17-51"/>
       <use transform="translate(287.346553 0)scale(0.996264)" xlink:href="#CMR17-48"/>
      </g>
     </g>
    </g>
    <g id="ytick_3">
     <g id="line2d_5">
      <g>
       <use style="stroke:#000000;stroke-width:0.8;" x="261.678072" xlink:href="#m863a5be27a" y="211.140242"/>
      </g>
     </g>
     <g id="text_4">
      <!-- $-0.0015$ -->
      <g transform="translate(268.678072 217.366893)scale(0.18 -0.18)">
       <use transform="scale(0.996264)" xlink:href="#CMSY10-0"/>
       <use transform="translate(77.487468 0)scale(0.996264)" xlink:href="#CMR17-48"/>
       <use transform="translate(123.177945 0)scale(0.996264)" xlink:href="#CMMI12-58"/>
       <use transform="translate(150.275122 0)scale(0.996264)" xlink:href="#CMR17-48"/>
       <use transform="translate(195.965599 0)scale(0.996264)" xlink:href="#CMR17-48"/>
       <use transform="translate(241.656076 0)scale(0.996264)" xlink:href="#CMR17-49"/>
       <use transform="translate(287.346553 0)scale(0.996264)" xlink:href="#CMR17-53"/>
      </g>
     </g>
    </g>
    <g id="ytick_4">
     <g id="line2d_6">
      <g>
       <use style="stroke:#000000;stroke-width:0.8;" x="261.678072" xlink:href="#m863a5be27a" y="182.425708"/>
      </g>
     </g>
     <g id="text_5">
      <!-- $0.0000$ -->
      <g transform="translate(268.678072 188.652358)scale(0.18 -0.18)">
       <use transform="scale(0.996264)" xlink:href="#CMR17-48"/>
       <use transform="translate(45.690477 0)scale(0.996264)" xlink:href="#CMMI12-58"/>
       <use transform="translate(72.787654 0)scale(0.996264)" xlink:href="#CMR17-48"/>
       <use transform="translate(118.478131 0)scale(0.996264)" xlink:href="#CMR17-48"/>
       <use transform="translate(164.168608 0)scale(0.996264)" xlink:href="#CMR17-48"/>
       <use transform="translate(209.859086 0)scale(0.996264)" xlink:href="#CMR17-48"/>
      </g>
     </g>
    </g>
    <g id="ytick_5">
     <g id="line2d_7">
      <g>
       <use style="stroke:#000000;stroke-width:0.8;" x="261.678072" xlink:href="#m863a5be27a" y="153.711174"/>
      </g>
     </g>
     <g id="text_6">
      <!-- $0.0015$ -->
      <g transform="translate(268.678072 159.937824)scale(0.18 -0.18)">
       <use transform="scale(0.996264)" xlink:href="#CMR17-48"/>
       <use transform="translate(45.690477 0)scale(0.996264)" xlink:href="#CMMI12-58"/>
       <use transform="translate(72.787654 0)scale(0.996264)" xlink:href="#CMR17-48"/>
       <use transform="translate(118.478131 0)scale(0.996264)" xlink:href="#CMR17-48"/>
       <use transform="translate(164.168608 0)scale(0.996264)" xlink:href="#CMR17-49"/>
       <use transform="translate(209.859086 0)scale(0.996264)" xlink:href="#CMR17-53"/>
      </g>
     </g>
    </g>
    <g id="ytick_6">
     <g id="line2d_8">
      <g>
       <use style="stroke:#000000;stroke-width:0.8;" x="261.678072" xlink:href="#m863a5be27a" y="124.996639"/>
      </g>
     </g>
     <g id="text_7">
      <!-- $0.0030$ -->
      <g transform="translate(268.678072 131.223289)scale(0.18 -0.18)">
       <use transform="scale(0.996264)" xlink:href="#CMR17-48"/>
       <use transform="translate(45.690477 0)scale(0.996264)" xlink:href="#CMMI12-58"/>
       <use transform="translate(72.787654 0)scale(0.996264)" xlink:href="#CMR17-48"/>
       <use transform="translate(118.478131 0)scale(0.996264)" xlink:href="#CMR17-48"/>
       <use transform="translate(164.168608 0)scale(0.996264)" xlink:href="#CMR17-51"/>
       <use transform="translate(209.859086 0)scale(0.996264)" xlink:href="#CMR17-48"/>
      </g>
     </g>
    </g>
    <g id="ytick_7">
     <g id="line2d_9">
      <g>
       <use style="stroke:#000000;stroke-width:0.8;" x="261.678072" xlink:href="#m863a5be27a" y="96.282105"/>
      </g>
     </g>
     <g id="text_8">
      <!-- $0.0045$ -->
      <g transform="translate(268.678072 102.508755)scale(0.18 -0.18)">
       <use transform="scale(0.996264)" xlink:href="#CMR17-48"/>
       <use transform="translate(45.690477 0)scale(0.996264)" xlink:href="#CMMI12-58"/>
       <use transform="translate(72.787654 0)scale(0.996264)" xlink:href="#CMR17-48"/>
       <use transform="translate(118.478131 0)scale(0.996264)" xlink:href="#CMR17-48"/>
       <use transform="translate(164.168608 0)scale(0.996264)" xlink:href="#CMR17-52"/>
       <use transform="translate(209.859086 0)scale(0.996264)" xlink:href="#CMR17-53"/>
      </g>
     </g>
    </g>
    <g id="ytick_8">
     <g id="line2d_10">
      <g>
       <use style="stroke:#000000;stroke-width:0.8;" x="261.678072" xlink:href="#m863a5be27a" y="67.56757"/>
      </g>
     </g>
     <g id="text_9">
      <!-- $0.0060$ -->
      <defs>
       <path d="M 10.59375 34 
C 10.59375 57.65625 21.796875 63 28.296875 63 
C 30.40625 63 35.5 62.640625 37.5 59 
C 35.90625 59 32.90625 59 32.90625 55.515625 
C 32.90625 52.828125 35.09375 51.921875 36.5 51.921875 
C 37.40625 51.921875 40.09375 52.3125 40.09375 55.625 
C 40.09375 61.78125 35.09375 65.296875 28.203125 65.296875 
C 16.296875 65.296875 3.796875 52.96875 3.796875 31 
C 3.796875 3.953125 15.09375 -2 23.09375 -2 
C 32.796875 -2 42 6.671875 42 20.046875 
C 42 32.515625 33.90625 41.59375 23.703125 41.59375 
C 17.59375 41.59375 13.09375 37.609375 10.59375 30.625 
z
M 23.09375 0.390625 
C 10.796875 0.390625 10.796875 18.75 10.796875 22.4375 
C 10.796875 29.625 14.203125 40 23.5 40 
C 25.203125 40 30.09375 40 33.40625 33.125 
C 35.203125 29.21875 35.203125 25.140625 35.203125 20.140625 
C 35.203125 14.75 35.203125 10.78125 33.09375 6.78125 
C 30.90625 2.671875 27.703125 0.390625 23.09375 0.390625 
z
" id="CMR17-54"/>
      </defs>
      <g transform="translate(268.678072 73.79422)scale(0.18 -0.18)">
       <use transform="scale(0.996264)" xlink:href="#CMR17-48"/>
       <use transform="translate(45.690477 0)scale(0.996264)" xlink:href="#CMMI12-58"/>
       <use transform="translate(72.787654 0)scale(0.996264)" xlink:href="#CMR17-48"/>
       <use transform="translate(118.478131 0)scale(0.996264)" xlink:href="#CMR17-48"/>
       <use transform="translate(164.168608 0)scale(0.996264)" xlink:href="#CMR17-54"/>
       <use transform="translate(209.859086 0)scale(0.996264)" xlink:href="#CMR17-48"/>
      </g>
     </g>
    </g>
    <g id="ytick_9">
     <g id="line2d_11">
      <g>
       <use style="stroke:#000000;stroke-width:0.8;" x="261.678072" xlink:href="#m863a5be27a" y="38.853036"/>
      </g>
     </g>
     <g id="text_10">
      <!-- $0.0075$ -->
      <defs>
       <path d="M 45.09375 61.578125 
L 45.09375 63.765625 
L 21.59375 63.765625 
C 9.90625 63.765625 9.703125 65.078125 9.296875 67 
L 7.5 67 
L 4.59375 48.34375 
L 6.40625 48.34375 
C 6.703125 50.234375 7.40625 55.3125 8.59375 57.203125 
C 9.203125 58 16.59375 58 18.296875 58 
L 40.296875 58 
L 29.203125 41.578125 
C 21.796875 30.53125 16.703125 15.609375 16.703125 2.578125 
C 16.703125 1.390625 16.703125 -2 20.296875 -2 
C 23.90625 -2 23.90625 1.390625 23.90625 2.671875 
L 23.90625 7.265625 
C 23.90625 23.5625 26.703125 34.3125 31.296875 41.1875 
z
" id="CMR17-55"/>
      </defs>
      <g transform="translate(268.678072 45.079686)scale(0.18 -0.18)">
       <use transform="scale(0.996264)" xlink:href="#CMR17-48"/>
       <use transform="translate(45.690477 0)scale(0.996264)" xlink:href="#CMMI12-58"/>
       <use transform="translate(72.787654 0)scale(0.996264)" xlink:href="#CMR17-48"/>
       <use transform="translate(118.478131 0)scale(0.996264)" xlink:href="#CMR17-48"/>
       <use transform="translate(164.168608 0)scale(0.996264)" xlink:href="#CMR17-55"/>
       <use transform="translate(209.859086 0)scale(0.996264)" xlink:href="#CMR17-53"/>
      </g>
     </g>
    </g>
   </g>
   <g id="patch_3">
    <path d="M 248.469386 285.798032 
L 248.469386 280.055125 
L 248.469386 27.367222 
L 248.469386 21.624315 
L 261.678072 21.624315 
L 261.678072 27.367222 
L 261.678072 280.055125 
L 261.678072 285.798032 
z
" style="fill:none;stroke:#000000;stroke-linejoin:miter;stroke-width:0.8;"/>
   </g>
  </g>
 </g>
 <defs>
  <clipPath id="p39ee9e0a56">
   <rect height="242.096268" width="241.269386" x="7.2" y="32.66304"/>
  </clipPath>
  <clipPath id="p343e9744b5">
   <rect height="264.173717" width="13.208686" x="248.469386" y="21.624315"/>
  </clipPath>
 </defs>
</svg>
