<?xml version="1.0" encoding="utf-8" standalone="no"?>
<!DOCTYPE svg PUBLIC "-//W3C//DTD SVG 1.1//EN"
  "http://www.w3.org/Graphics/SVG/1.1/DTD/svg11.dtd">
<!-- Created with matplotlib (https://matplotlib.org/) -->
<svg height="200.421364pt" version="1.1" viewBox="0 0 377.526064 200.421364" width="377.526064pt" xmlns="http://www.w3.org/2000/svg" xmlns:xlink="http://www.w3.org/1999/xlink">
 <defs>
  <style type="text/css">
*{stroke-linecap:butt;stroke-linejoin:round;}
  </style>
 </defs>
 <g id="figure_1">
  <g id="patch_1">
   <path d="M 0 200.421364 
L 377.526064 200.421364 
L 377.526064 0 
L 0 0 
z
" style="fill:none;"/>
  </g>
  <g id="axes_1">
   <g id="patch_2">
    <path d="M 35.526064 170.28 
L 370.326064 170.28 
L 370.326064 7.2 
L 35.526064 7.2 
z
" style="fill:#ffffff;"/>
   </g>
   <g id="matplotlib.axis_1">
    <g id="xtick_1">
     <g id="line2d_1">
      <defs>
       <path d="M 0 0 
L 0 3.5 
" id="mb4f8b2a613" style="stroke:#000000;stroke-width:0.8;"/>
      </defs>
      <g>
       <use style="stroke:#000000;stroke-width:0.8;" x="81.180609" xlink:href="#mb4f8b2a613" y="170.28"/>
      </g>
     </g>
     <g id="text_1">
      <!-- $-6$ -->
      <defs>
       <path d="M 65.90625 23 
C 67.59375 23 69.40625 23 69.40625 25 
C 69.40625 27 67.59375 27 65.90625 27 
L 11.796875 27 
C 10.09375 27 8.296875 27 8.296875 25 
C 8.296875 23 10.09375 23 11.796875 23 
z
" id="CMSY10-0"/>
       <path d="M 10.59375 34 
C 10.59375 57.65625 21.796875 63 28.296875 63 
C 30.40625 63 35.5 62.640625 37.5 59 
C 35.90625 59 32.90625 59 32.90625 55.515625 
C 32.90625 52.828125 35.09375 51.921875 36.5 51.921875 
C 37.40625 51.921875 40.09375 52.3125 40.09375 55.625 
C 40.09375 61.78125 35.09375 65.296875 28.203125 65.296875 
C 16.296875 65.296875 3.796875 52.96875 3.796875 31 
C 3.796875 3.953125 15.09375 -2 23.09375 -2 
C 32.796875 -2 42 6.671875 42 20.046875 
C 42 32.515625 33.90625 41.59375 23.703125 41.59375 
C 17.59375 41.59375 13.09375 37.609375 10.59375 30.625 
z
M 23.09375 0.390625 
C 10.796875 0.390625 10.796875 18.75 10.796875 22.4375 
C 10.796875 29.625 14.203125 40 23.5 40 
C 25.203125 40 30.09375 40 33.40625 33.125 
C 35.203125 29.21875 35.203125 25.140625 35.203125 20.140625 
C 35.203125 14.75 35.203125 10.78125 33.09375 6.78125 
C 30.90625 2.671875 27.703125 0.390625 23.09375 0.390625 
z
" id="CMR17-54"/>
      </defs>
      <g transform="translate(70.094595 189.7333)scale(0.18 -0.18)">
       <use transform="scale(0.996264)" xlink:href="#CMSY10-0"/>
       <use transform="translate(77.487468 0)scale(0.996264)" xlink:href="#CMR17-54"/>
      </g>
     </g>
    </g>
    <g id="xtick_2">
     <g id="line2d_2">
      <g>
       <use style="stroke:#000000;stroke-width:0.8;" x="142.053336" xlink:href="#mb4f8b2a613" y="170.28"/>
      </g>
     </g>
     <g id="text_2">
      <!-- $-4$ -->
      <defs>
       <path d="M 33.59375 64.40625 
C 33.59375 66.5 33.5 66.5 31.703125 66.5 
L 2 19.59375 
L 2 17 
L 27.796875 17 
L 27.796875 7.140625 
C 27.796875 3.5 27.59375 2.5 20.59375 2.5 
L 18.703125 2.5 
L 18.703125 0 
C 21.90625 0 27.296875 0 30.703125 0 
C 34.09375 0 39.5 0 42.703125 0 
L 42.703125 2.5 
L 40.796875 2.5 
C 33.796875 2.5 33.59375 3.5 33.59375 7.140625 
L 33.59375 17 
L 43.796875 17 
L 43.796875 19.59375 
L 33.59375 19.59375 
z
M 28.09375 57.859375 
L 28.09375 19.59375 
L 4 19.59375 
z
" id="CMR17-52"/>
      </defs>
      <g transform="translate(130.967323 189.7333)scale(0.18 -0.18)">
       <use transform="scale(0.996264)" xlink:href="#CMSY10-0"/>
       <use transform="translate(77.487468 0)scale(0.996264)" xlink:href="#CMR17-52"/>
      </g>
     </g>
    </g>
    <g id="xtick_3">
     <g id="line2d_3">
      <g>
       <use style="stroke:#000000;stroke-width:0.8;" x="202.926064" xlink:href="#mb4f8b2a613" y="170.28"/>
      </g>
     </g>
     <g id="text_3">
      <!-- $-2$ -->
      <defs>
       <path d="M 41.703125 15.453125 
L 39.90625 15.453125 
C 38.90625 8.375 38.09375 7.171875 37.703125 6.5625 
C 37.203125 5.765625 30 5.765625 28.59375 5.765625 
L 9.40625 5.765625 
C 13 9.671875 20 16.75 28.5 24.953125 
C 34.59375 30.734375 41.703125 37.53125 41.703125 47.421875 
C 41.703125 59.21875 32.296875 66 21.796875 66 
C 10.796875 66 4.09375 56.3125 4.09375 47.34375 
C 4.09375 43.4375 7 42.9375 8.203125 42.9375 
C 9.203125 42.9375 12.203125 43.546875 12.203125 47.03125 
C 12.203125 50.109375 9.59375 51 8.203125 51 
C 7.59375 51 7 50.90625 6.59375 50.703125 
C 8.5 59.21875 14.296875 63.40625 20.40625 63.40625 
C 29.09375 63.40625 34.796875 56.515625 34.796875 47.421875 
C 34.796875 38.734375 29.703125 31.25 24 24.75 
L 4.09375 2.28125 
L 4.09375 0 
L 39.296875 0 
z
" id="CMR17-50"/>
      </defs>
      <g transform="translate(191.84005 189.7333)scale(0.18 -0.18)">
       <use transform="scale(0.996264)" xlink:href="#CMSY10-0"/>
       <use transform="translate(77.487468 0)scale(0.996264)" xlink:href="#CMR17-50"/>
      </g>
     </g>
    </g>
    <g id="xtick_4">
     <g id="line2d_4">
      <g>
       <use style="stroke:#000000;stroke-width:0.8;" x="263.798791" xlink:href="#mb4f8b2a613" y="170.28"/>
      </g>
     </g>
     <g id="text_4">
      <!-- $0$ -->
      <defs>
       <path d="M 42 31.640625 
C 42 37.75 41.90625 48.125 37.703125 56.109375 
C 34 63.109375 28.09375 65.59375 22.90625 65.59375 
C 18.09375 65.59375 12 63.40625 8.203125 56.203125 
C 4.203125 48.71875 3.796875 39.4375 3.796875 31.640625 
C 3.796875 25.953125 3.90625 17.28125 7 9.671875 
C 11.296875 -0.609375 19 -2 22.90625 -2 
C 27.5 -2 34.5 -0.109375 38.59375 9.375 
C 41.59375 16.28125 42 24.359375 42 31.640625 
z
M 22.90625 -0.40625 
C 16.5 -0.40625 12.703125 5.078125 11.296875 12.6875 
C 10.203125 18.5625 10.203125 27.15625 10.203125 32.75 
C 10.203125 40.4375 10.203125 46.828125 11.5 52.921875 
C 13.40625 61.390625 19 64 22.90625 64 
C 27 64 32.296875 61.296875 34.203125 53.125 
C 35.5 47.4375 35.59375 40.734375 35.59375 32.75 
C 35.59375 26.25 35.59375 18.265625 34.40625 12.375 
C 32.296875 1.484375 26.40625 -0.40625 22.90625 -0.40625 
z
" id="CMR17-48"/>
      </defs>
      <g transform="translate(259.686648 189.7333)scale(0.18 -0.18)">
       <use transform="scale(0.996264)" xlink:href="#CMR17-48"/>
      </g>
     </g>
    </g>
    <g id="xtick_5">
     <g id="line2d_5">
      <g>
       <use style="stroke:#000000;stroke-width:0.8;" x="324.671518" xlink:href="#mb4f8b2a613" y="170.28"/>
      </g>
     </g>
     <g id="text_5">
      <!-- $2$ -->
      <g transform="translate(320.559375 189.7333)scale(0.18 -0.18)">
       <use transform="scale(0.996264)" xlink:href="#CMR17-50"/>
      </g>
     </g>
    </g>
   </g>
   <g id="matplotlib.axis_2">
    <g id="ytick_1">
     <g id="line2d_6">
      <defs>
       <path d="M 0 0 
L -3.5 0 
" id="m91516c7c11" style="stroke:#000000;stroke-width:0.8;"/>
      </defs>
      <g>
       <use style="stroke:#000000;stroke-width:0.8;" x="35.526064" xlink:href="#m91516c7c11" y="162.867273"/>
      </g>
     </g>
     <g id="text_6">
      <!-- $0.0$ -->
      <defs>
       <path d="M 18.40625 4.796875 
C 18.40625 7.6875 16 9.671875 13.59375 9.671875 
C 10.703125 9.671875 8.703125 7.28125 8.703125 4.890625 
C 8.703125 2 11.09375 0 13.5 0 
C 16.40625 0 18.40625 2.390625 18.40625 4.796875 
z
" id="CMMI12-58"/>
      </defs>
      <g transform="translate(7.2 169.093923)scale(0.18 -0.18)">
       <use transform="scale(0.996264)" xlink:href="#CMR17-48"/>
       <use transform="translate(45.690477 0)scale(0.996264)" xlink:href="#CMMI12-58"/>
       <use transform="translate(72.787654 0)scale(0.996264)" xlink:href="#CMR17-48"/>
      </g>
     </g>
    </g>
    <g id="ytick_2">
     <g id="line2d_7">
      <g>
       <use style="stroke:#000000;stroke-width:0.8;" x="35.526064" xlink:href="#m91516c7c11" y="88.509333"/>
      </g>
     </g>
     <g id="text_7">
      <!-- $0.2$ -->
      <g transform="translate(7.2 94.735983)scale(0.18 -0.18)">
       <use transform="scale(0.996264)" xlink:href="#CMR17-48"/>
       <use transform="translate(45.690477 0)scale(0.996264)" xlink:href="#CMMI12-58"/>
       <use transform="translate(72.787654 0)scale(0.996264)" xlink:href="#CMR17-50"/>
      </g>
     </g>
    </g>
    <g id="ytick_3">
     <g id="line2d_8">
      <g>
       <use style="stroke:#000000;stroke-width:0.8;" x="35.526064" xlink:href="#m91516c7c11" y="14.151393"/>
      </g>
     </g>
     <g id="text_8">
      <!-- $0.4$ -->
      <g transform="translate(7.2 20.378043)scale(0.18 -0.18)">
       <use transform="scale(0.996264)" xlink:href="#CMR17-48"/>
       <use transform="translate(45.690477 0)scale(0.996264)" xlink:href="#CMMI12-58"/>
       <use transform="translate(72.787654 0)scale(0.996264)" xlink:href="#CMR17-52"/>
      </g>
     </g>
    </g>
   </g>
   <g id="line2d_9">
    <path clip-path="url(#p244a9af9cf)" d="M 50.744245 162.867273 
L 53.818626 162.867273 
L 56.893006 162.867273 
L 59.967386 162.867273 
L 63.041766 162.867273 
L 66.116146 162.867273 
L 69.190526 162.867273 
L 72.264907 162.867272 
L 75.339287 162.867272 
L 78.413667 162.867271 
L 81.488047 162.86727 
L 84.562427 162.867268 
L 87.636807 162.867265 
L 90.711188 162.867259 
L 93.785568 162.867248 
L 96.859948 162.867229 
L 99.934328 162.867197 
L 103.008708 162.867144 
L 106.083088 162.867054 
L 109.157469 162.866905 
L 112.231849 162.866661 
L 115.306229 162.866267 
L 118.380609 162.865635 
L 121.454989 162.864632 
L 124.529369 162.863059 
L 127.60375 162.860617 
L 130.67813 162.856867 
L 133.75251 162.851169 
L 136.82689 162.842604 
L 139.90127 162.829867 
L 142.97565 162.81113 
L 146.050031 162.783862 
L 149.124411 162.744608 
L 152.198791 162.688713 
L 155.273171 162.609986 
L 158.347551 162.500311 
L 161.421931 162.349198 
L 164.496312 162.143281 
L 167.570692 161.86579 
L 170.645072 161.496006 
L 173.719452 161.008743 
L 176.793832 160.373908 
L 179.868212 159.556182 
L 182.942593 158.514908 
L 186.016973 157.20425 
L 189.091353 155.573703 
L 192.165733 153.569029 
L 195.240113 151.133693 
L 198.314493 148.210814 
L 201.388874 144.745677 
L 204.463254 140.688746 
L 207.537634 135.999119 
L 210.612014 130.648289 
L 213.686394 124.624029 
L 216.760774 117.934162 
L 219.835155 110.609954 
L 222.909535 102.708823 
L 225.983915 94.316078 
L 229.058295 85.545412 
L 232.132675 76.53793 
L 235.207055 67.459567 
L 238.281436 58.496873 
L 241.355816 49.851225 
L 244.430196 41.731683 
L 247.504576 34.34681 
L 250.578956 27.895897 
L 253.653336 22.560076 
L 256.727717 18.493902 
L 259.802097 15.81792 
L 262.876477 14.612727 
L 265.950857 14.914948 
L 269.025237 16.71538 
L 272.099617 19.959461 
L 275.173998 24.550014 
L 278.248378 30.352086 
L 281.322758 37.199532 
L 284.397138 44.902907 
L 287.471518 53.25814 
L 290.545898 62.055437 
L 293.620279 71.08788 
L 296.694659 80.159236 
L 299.769039 89.09059 
L 302.843419 97.725525 
L 305.917799 105.933683 
L 308.992179 113.612694 
L 312.06656 120.688541 
L 315.14094 127.114535 
L 318.21532 132.869157 
L 321.2897 137.95304 
L 324.36408 142.385388 
L 327.43846 146.200128 
L 330.51284 149.442054 
L 333.587221 152.163166 
L 336.661601 154.419381 
L 339.735981 156.26771 
L 342.810361 157.763976 
L 345.884741 158.961065 
L 348.959121 159.907702 
L 352.033502 160.647691 
L 355.107882 161.219557 
" style="fill:none;stroke:#1f77b4;stroke-linecap:square;stroke-width:4;"/>
   </g>
   <g id="line2d_10">
    <path clip-path="url(#p244a9af9cf)" d="M 50.744245 152.83063 
L 53.818626 151.778009 
L 56.893006 150.646205 
L 59.967386 149.433196 
L 63.041766 148.137409 
L 66.116146 146.757781 
L 69.190526 145.293817 
L 72.264907 143.745651 
L 75.339287 142.1141 
L 78.413667 140.400717 
L 81.488047 138.607837 
L 84.562427 136.738613 
L 87.636807 134.797055 
L 90.711188 132.788048 
L 93.785568 130.717365 
L 96.859948 128.591675 
L 99.934328 126.41853 
L 103.008708 124.206343 
L 106.083088 121.964358 
L 109.157469 119.702601 
L 112.231849 117.431822 
L 115.306229 115.16342 
L 118.380609 112.909359 
L 121.454989 110.682073 
L 124.529369 108.494357 
L 127.60375 106.359249 
L 130.67813 104.289908 
L 133.75251 102.299478 
L 136.82689 100.400954 
L 139.90127 98.607042 
L 142.97565 96.930016 
L 146.050031 95.381585 
L 149.124411 93.972748 
L 152.198791 92.713674 
L 155.273171 91.613574 
L 158.347551 90.680588 
L 161.421931 89.921689 
L 164.496312 89.342596 
L 167.570692 88.947697 
L 170.645072 88.74 
L 173.719452 88.72109 
L 176.793832 88.89111 
L 179.868212 89.248764 
L 182.942593 89.791326 
L 186.016973 90.514679 
L 189.091353 91.413367 
L 192.165733 92.48066 
L 195.240113 93.708643 
L 198.314493 95.088312 
L 201.388874 96.60968 
L 204.463254 98.261902 
L 207.537634 100.033403 
L 210.612014 101.912009 
L 213.686394 103.88509 
L 216.760774 105.939698 
L 219.835155 108.062706 
L 222.909535 110.24095 
L 225.983915 112.461355 
L 229.058295 114.711069 
L 232.132675 116.977576 
L 235.207055 119.248811 
L 238.281436 121.513254 
L 241.355816 123.76002 
L 244.430196 125.978931 
L 247.504576 128.160586 
L 250.578956 130.296399 
L 253.653336 132.378645 
L 256.727717 134.400478 
L 259.802097 136.355945 
L 262.876477 138.239984 
L 265.950857 140.048412 
L 269.025237 141.777907 
L 272.099617 143.425973 
L 275.173998 144.990904 
L 278.248378 146.47174 
L 281.322758 147.868215 
L 284.397138 149.180702 
L 287.471518 150.410157 
L 290.545898 151.558054 
L 293.620279 152.62633 
L 296.694659 153.617321 
L 299.769039 154.5337 
L 302.843419 155.378422 
L 305.917799 156.154663 
L 308.992179 156.865773 
L 312.06656 157.515219 
L 315.14094 158.106546 
L 318.21532 158.643327 
L 321.2897 159.129132 
L 324.36408 159.567492 
L 327.43846 159.961866 
L 330.51284 160.315624 
L 333.587221 160.632018 
L 336.661601 160.914169 
L 339.735981 161.165052 
L 342.810361 161.387487 
L 345.884741 161.584133 
L 348.959121 161.757482 
L 352.033502 161.909857 
L 355.107882 162.043415 
" style="fill:none;stroke:#ff7f0e;stroke-linecap:square;stroke-width:4;"/>
   </g>
   <g id="patch_3">
    <path d="M 35.526064 170.28 
L 35.526064 7.2 
" style="fill:none;stroke:#000000;stroke-linecap:square;stroke-linejoin:miter;stroke-width:0.8;"/>
   </g>
   <g id="patch_4">
    <path d="M 370.326064 170.28 
L 370.326064 7.2 
" style="fill:none;stroke:#000000;stroke-linecap:square;stroke-linejoin:miter;stroke-width:0.8;"/>
   </g>
   <g id="patch_5">
    <path d="M 35.526064 170.28 
L 370.326064 170.28 
" style="fill:none;stroke:#000000;stroke-linecap:square;stroke-linejoin:miter;stroke-width:0.8;"/>
   </g>
   <g id="patch_6">
    <path d="M 35.526064 7.2 
L 370.326064 7.2 
" style="fill:none;stroke:#000000;stroke-linecap:square;stroke-linejoin:miter;stroke-width:0.8;"/>
   </g>
   <g id="legend_1">
    <g id="patch_7">
     <path d="M 48.126064 71.776128 
L 120.298903 71.776128 
Q 123.898903 71.776128 123.898903 68.176128 
L 123.898903 19.8 
Q 123.898903 16.2 120.298903 16.2 
L 48.126064 16.2 
Q 44.526064 16.2 44.526064 19.8 
L 44.526064 68.176128 
Q 44.526064 71.776128 48.126064 71.776128 
z
" style="fill:#ffffff;opacity:0.8;stroke:#cccccc;stroke-linejoin:miter;"/>
    </g>
    <g id="line2d_11">
     <path d="M 51.726064 29.7 
L 87.726064 29.7 
" style="fill:none;stroke:#1f77b4;stroke-linecap:square;stroke-width:4;"/>
    </g>
    <g id="line2d_12"/>
    <g id="text_9">
     <!-- $X$ -->
     <defs>
      <path d="M 47.5 40.5625 
L 38.09375 62.40625 
C 39.40625 64.796875 42.40625 65.1875 43.59375 65.296875 
C 44.203125 65.296875 45.296875 65.296875 45.296875 67.0625 
C 45.296875 68.1875 44.40625 68.1875 43.796875 68.1875 
C 42.09375 68.1875 40.09375 68.1875 38.40625 68.1875 
L 32.59375 68.1875 
C 26.5 68.1875 22.09375 68.1875 22 68.1875 
C 21.203125 68.1875 20.203125 68.1875 20.203125 66.296875 
C 20.203125 65.296875 21.09375 65.296875 22.40625 65.296875 
C 28.203125 65.296875 28.59375 64.296875 29.59375 61.90625 
L 41.5 34.140625 
L 19.796875 10.828125 
C 16.203125 6.90625 11.90625 3.09375 4.5 3.09375 
C 3.296875 3 2.5 3 2.5 1.0625 
C 2.5 0.75 2.59375 0 3.703125 0 
C 5.09375 0 6.59375 0 8 0 
L 12.703125 0 
C 15.90625 0 19.40625 0 22.5 0 
C 23.203125 0 24.40625 0 24.40625 1.796875 
C 24.40625 2.796875 23.703125 2.890625 23.09375 2.890625 
C 21.09375 3.09375 19.796875 4.1875 19.796875 5.78125 
C 19.796875 7.484375 21 8.703125 23.90625 11.6875 
L 32.796875 21.375 
C 35 23.6875 40.296875 29.46875 42.5 31.65625 
L 53 7.078125 
C 53.09375 6.890625 53.5 5.890625 53.5 5.78125 
C 53.5 4.890625 51.296875 3.09375 48.09375 3.09375 
C 47.5 3.09375 46.40625 3.09375 46.40625 1.109375 
C 46.40625 0 47.40625 0 47.90625 0 
C 49.59375 0 51.59375 0 53.296875 0 
L 64.296875 0 
C 66.09375 0 68 0 69.703125 0 
C 70.40625 0 71.5 0 71.5 2.03125 
C 71.5 3.09375 70.5 3.09375 69.59375 3.09375 
C 63.59375 3.09375 63.40625 3.59375 61.703125 7.265625 
L 48.5 38.140625 
L 61.203125 51.8125 
C 62.203125 52.828125 64.5 55.34375 65.40625 56.34375 
C 69.703125 60.875 73.703125 65 81.796875 65 
C 82.796875 65.296875 83.796875 65.296875 83.796875 67.0625 
C 83.796875 68.1875 82.90625 68.1875 82.5 68.1875 
C 81.09375 68.1875 79.59375 68.1875 78.203125 68.1875 
L 73.59375 68.1875 
C 70.40625 68.1875 66.90625 68.1875 63.796875 68.1875 
C 63.09375 68.1875 61.90625 68.1875 61.90625 66.390625 
C 61.90625 65.390625 62.59375 65.296875 63.203125 65.296875 
C 64.796875 65.109375 66.5 64.3125 66.5 62.40625 
L 66.40625 62.21875 
C 66.296875 61.515625 66.09375 60.515625 65 59.328125 
z
" id="CMMI12-88"/>
     </defs>
     <g transform="translate(102.126064 36)scale(0.18 -0.18)">
      <use transform="scale(0.996264)" xlink:href="#CMMI12-88"/>
     </g>
    </g>
    <g id="line2d_13">
     <path d="M 51.726064 54.788064 
L 87.726064 54.788064 
" style="fill:none;stroke:#ff7f0e;stroke-linecap:square;stroke-width:4;"/>
    </g>
    <g id="line2d_14"/>
    <g id="text_10">
     <!-- $Y$ -->
     <defs>
      <path d="M 58.796875 56.953125 
L 61.09375 59.234375 
C 65.5 63.71875 69.203125 64.828125 72.703125 65.109375 
C 73.796875 65.203125 74.703125 65.296875 74.703125 67 
C 74.703125 68 73.703125 68 73.5 68 
C 72.296875 68 71 68 69.796875 68 
L 65.703125 68 
C 62.796875 68 59.703125 68 56.90625 68 
C 56.203125 68 55.09375 68 55.09375 66.03125 
C 55.09375 65.09375 56.09375 65 56.40625 65 
C 59.40625 65 59.40625 63.5 59.40625 62.90625 
C 59.40625 61.8125 58.59375 60.3125 56.59375 58.015625 
L 32.796875 30.765625 
L 21.5 61.109375 
C 20.90625 62.5 20.90625 62.703125 20.90625 62.90625 
C 20.90625 65 25 65 26.203125 65 
C 27.40625 65 28.5 65 28.5 66.859375 
C 28.5 68 27.59375 68 27 68 
C 25.296875 68 23.296875 68 21.59375 68 
L 10.5 68 
C 8.703125 68 6.796875 68 5.09375 68 
C 4.40625 68 3.296875 68 3.296875 66.03125 
C 3.296875 65 4.203125 65 5.703125 65 
C 10.59375 65 11.5 64.09375 12.40625 61.8125 
L 24.796875 28.671875 
C 24.90625 28.375 25.203125 27.265625 25.203125 26.96875 
C 25.203125 26.671875 20.296875 7.0625 20 6.0625 
C 19.203125 3.390625 18.203125 2.890625 11.796875 2.890625 
C 10.09375 2.890625 9.296875 2.890625 9.296875 1 
C 9.296875 0 10.40625 0 10.703125 0 
C 12.5 0 14.59375 0 16.5 0 
L 28.296875 0 
C 30.09375 0 32.203125 0 34 0 
C 34.703125 0 35.90625 0 35.90625 1.796875 
C 35.90625 2.890625 35.203125 2.890625 33.5 2.890625 
C 27.296875 2.890625 27.296875 3.59375 27.296875 4.6875 
C 27.296875 5.390625 28.09375 8.5625 28.59375 10.5625 
L 32.203125 24.90625 
C 32.796875 26.984375 32.796875 27.171875 33.703125 28.171875 
z
" id="CMMI12-89"/>
     </defs>
     <g transform="translate(102.126064 61.088064)scale(0.18 -0.18)">
      <use transform="scale(0.996264)" xlink:href="#CMMI12-89"/>
     </g>
    </g>
   </g>
  </g>
 </g>
 <defs>
  <clipPath id="p244a9af9cf">
   <rect height="163.08" width="334.8" x="35.526064" y="7.2"/>
  </clipPath>
 </defs>
</svg>
