<?xml version="1.0" encoding="utf-8" standalone="no"?>
<!DOCTYPE svg PUBLIC "-//W3C//DTD SVG 1.1//EN"
  "http://www.w3.org/Graphics/SVG/1.1/DTD/svg11.dtd">
<!-- Created with matplotlib (https://matplotlib.org/) -->
<svg height="227.601364pt" version="1.1" viewBox="0 0 377.526064 227.601364" width="377.526064pt" xmlns="http://www.w3.org/2000/svg" xmlns:xlink="http://www.w3.org/1999/xlink">
 <defs>
  <style type="text/css">
*{stroke-linecap:butt;stroke-linejoin:round;}
  </style>
 </defs>
 <g id="figure_1">
  <g id="patch_1">
   <path d="M 0 227.601364 
L 377.526064 227.601364 
L 377.526064 0 
L 0 0 
z
" style="fill:none;"/>
  </g>
  <g id="axes_1">
   <g id="patch_2">
    <path d="M 35.526064 197.46 
L 370.326064 197.46 
L 370.326064 7.2 
L 35.526064 7.2 
z
" style="fill:#ffffff;"/>
   </g>
   <g id="matplotlib.axis_1">
    <g id="xtick_1">
     <g id="line2d_1">
      <defs>
       <path d="M 0 0 
L 0 3.5 
" id="m35db704257" style="stroke:#000000;stroke-width:0.8;"/>
      </defs>
      <g>
       <use style="stroke:#000000;stroke-width:0.8;" x="81.180609" xlink:href="#m35db704257" y="197.46"/>
      </g>
     </g>
     <g id="text_1">
      <!-- $-6$ -->
      <defs>
       <path d="M 65.90625 23 
C 67.59375 23 69.40625 23 69.40625 25 
C 69.40625 27 67.59375 27 65.90625 27 
L 11.796875 27 
C 10.09375 27 8.296875 27 8.296875 25 
C 8.296875 23 10.09375 23 11.796875 23 
z
" id="CMSY10-0"/>
       <path d="M 10.59375 34 
C 10.59375 57.65625 21.796875 63 28.296875 63 
C 30.40625 63 35.5 62.640625 37.5 59 
C 35.90625 59 32.90625 59 32.90625 55.515625 
C 32.90625 52.828125 35.09375 51.921875 36.5 51.921875 
C 37.40625 51.921875 40.09375 52.3125 40.09375 55.625 
C 40.09375 61.78125 35.09375 65.296875 28.203125 65.296875 
C 16.296875 65.296875 3.796875 52.96875 3.796875 31 
C 3.796875 3.953125 15.09375 -2 23.09375 -2 
C 32.796875 -2 42 6.671875 42 20.046875 
C 42 32.515625 33.90625 41.59375 23.703125 41.59375 
C 17.59375 41.59375 13.09375 37.609375 10.59375 30.625 
z
M 23.09375 0.390625 
C 10.796875 0.390625 10.796875 18.75 10.796875 22.4375 
C 10.796875 29.625 14.203125 40 23.5 40 
C 25.203125 40 30.09375 40 33.40625 33.125 
C 35.203125 29.21875 35.203125 25.140625 35.203125 20.140625 
C 35.203125 14.75 35.203125 10.78125 33.09375 6.78125 
C 30.90625 2.671875 27.703125 0.390625 23.09375 0.390625 
z
" id="CMR17-54"/>
      </defs>
      <g transform="translate(70.094595 216.9133)scale(0.18 -0.18)">
       <use transform="scale(0.996264)" xlink:href="#CMSY10-0"/>
       <use transform="translate(77.487468 0)scale(0.996264)" xlink:href="#CMR17-54"/>
      </g>
     </g>
    </g>
    <g id="xtick_2">
     <g id="line2d_2">
      <g>
       <use style="stroke:#000000;stroke-width:0.8;" x="142.053336" xlink:href="#m35db704257" y="197.46"/>
      </g>
     </g>
     <g id="text_2">
      <!-- $-4$ -->
      <defs>
       <path d="M 33.59375 64.40625 
C 33.59375 66.5 33.5 66.5 31.703125 66.5 
L 2 19.59375 
L 2 17 
L 27.796875 17 
L 27.796875 7.140625 
C 27.796875 3.5 27.59375 2.5 20.59375 2.5 
L 18.703125 2.5 
L 18.703125 0 
C 21.90625 0 27.296875 0 30.703125 0 
C 34.09375 0 39.5 0 42.703125 0 
L 42.703125 2.5 
L 40.796875 2.5 
C 33.796875 2.5 33.59375 3.5 33.59375 7.140625 
L 33.59375 17 
L 43.796875 17 
L 43.796875 19.59375 
L 33.59375 19.59375 
z
M 28.09375 57.859375 
L 28.09375 19.59375 
L 4 19.59375 
z
" id="CMR17-52"/>
      </defs>
      <g transform="translate(130.967323 216.9133)scale(0.18 -0.18)">
       <use transform="scale(0.996264)" xlink:href="#CMSY10-0"/>
       <use transform="translate(77.487468 0)scale(0.996264)" xlink:href="#CMR17-52"/>
      </g>
     </g>
    </g>
    <g id="xtick_3">
     <g id="line2d_3">
      <g>
       <use style="stroke:#000000;stroke-width:0.8;" x="202.926064" xlink:href="#m35db704257" y="197.46"/>
      </g>
     </g>
     <g id="text_3">
      <!-- $-2$ -->
      <defs>
       <path d="M 41.703125 15.453125 
L 39.90625 15.453125 
C 38.90625 8.375 38.09375 7.171875 37.703125 6.5625 
C 37.203125 5.765625 30 5.765625 28.59375 5.765625 
L 9.40625 5.765625 
C 13 9.671875 20 16.75 28.5 24.953125 
C 34.59375 30.734375 41.703125 37.53125 41.703125 47.421875 
C 41.703125 59.21875 32.296875 66 21.796875 66 
C 10.796875 66 4.09375 56.3125 4.09375 47.34375 
C 4.09375 43.4375 7 42.9375 8.203125 42.9375 
C 9.203125 42.9375 12.203125 43.546875 12.203125 47.03125 
C 12.203125 50.109375 9.59375 51 8.203125 51 
C 7.59375 51 7 50.90625 6.59375 50.703125 
C 8.5 59.21875 14.296875 63.40625 20.40625 63.40625 
C 29.09375 63.40625 34.796875 56.515625 34.796875 47.421875 
C 34.796875 38.734375 29.703125 31.25 24 24.75 
L 4.09375 2.28125 
L 4.09375 0 
L 39.296875 0 
z
" id="CMR17-50"/>
      </defs>
      <g transform="translate(191.84005 216.9133)scale(0.18 -0.18)">
       <use transform="scale(0.996264)" xlink:href="#CMSY10-0"/>
       <use transform="translate(77.487468 0)scale(0.996264)" xlink:href="#CMR17-50"/>
      </g>
     </g>
    </g>
    <g id="xtick_4">
     <g id="line2d_4">
      <g>
       <use style="stroke:#000000;stroke-width:0.8;" x="263.798791" xlink:href="#m35db704257" y="197.46"/>
      </g>
     </g>
     <g id="text_4">
      <!-- $0$ -->
      <defs>
       <path d="M 42 31.640625 
C 42 37.75 41.90625 48.125 37.703125 56.109375 
C 34 63.109375 28.09375 65.59375 22.90625 65.59375 
C 18.09375 65.59375 12 63.40625 8.203125 56.203125 
C 4.203125 48.71875 3.796875 39.4375 3.796875 31.640625 
C 3.796875 25.953125 3.90625 17.28125 7 9.671875 
C 11.296875 -0.609375 19 -2 22.90625 -2 
C 27.5 -2 34.5 -0.109375 38.59375 9.375 
C 41.59375 16.28125 42 24.359375 42 31.640625 
z
M 22.90625 -0.40625 
C 16.5 -0.40625 12.703125 5.078125 11.296875 12.6875 
C 10.203125 18.5625 10.203125 27.15625 10.203125 32.75 
C 10.203125 40.4375 10.203125 46.828125 11.5 52.921875 
C 13.40625 61.390625 19 64 22.90625 64 
C 27 64 32.296875 61.296875 34.203125 53.125 
C 35.5 47.4375 35.59375 40.734375 35.59375 32.75 
C 35.59375 26.25 35.59375 18.265625 34.40625 12.375 
C 32.296875 1.484375 26.40625 -0.40625 22.90625 -0.40625 
z
" id="CMR17-48"/>
      </defs>
      <g transform="translate(259.686648 216.9133)scale(0.18 -0.18)">
       <use transform="scale(0.996264)" xlink:href="#CMR17-48"/>
      </g>
     </g>
    </g>
    <g id="xtick_5">
     <g id="line2d_5">
      <g>
       <use style="stroke:#000000;stroke-width:0.8;" x="324.671518" xlink:href="#m35db704257" y="197.46"/>
      </g>
     </g>
     <g id="text_5">
      <!-- $2$ -->
      <g transform="translate(320.559375 216.9133)scale(0.18 -0.18)">
       <use transform="scale(0.996264)" xlink:href="#CMR17-50"/>
      </g>
     </g>
    </g>
   </g>
   <g id="matplotlib.axis_2">
    <g id="ytick_1">
     <g id="line2d_6">
      <defs>
       <path d="M 0 0 
L -3.5 0 
" id="m57eb390137" style="stroke:#000000;stroke-width:0.8;"/>
      </defs>
      <g>
       <use style="stroke:#000000;stroke-width:0.8;" x="35.526064" xlink:href="#m57eb390137" y="188.811818"/>
      </g>
     </g>
     <g id="text_6">
      <!-- $0.0$ -->
      <defs>
       <path d="M 18.40625 4.796875 
C 18.40625 7.6875 16 9.671875 13.59375 9.671875 
C 10.703125 9.671875 8.703125 7.28125 8.703125 4.890625 
C 8.703125 2 11.09375 0 13.5 0 
C 16.40625 0 18.40625 2.390625 18.40625 4.796875 
z
" id="CMMI12-58"/>
      </defs>
      <g transform="translate(7.2 195.038468)scale(0.18 -0.18)">
       <use transform="scale(0.996264)" xlink:href="#CMR17-48"/>
       <use transform="translate(45.690477 0)scale(0.996264)" xlink:href="#CMMI12-58"/>
       <use transform="translate(72.787654 0)scale(0.996264)" xlink:href="#CMR17-48"/>
      </g>
     </g>
    </g>
    <g id="ytick_2">
     <g id="line2d_7">
      <g>
       <use style="stroke:#000000;stroke-width:0.8;" x="35.526064" xlink:href="#m57eb390137" y="145.436353"/>
      </g>
     </g>
     <g id="text_7">
      <!-- $0.1$ -->
      <defs>
       <path d="M 26.59375 63.40625 
C 26.59375 65.5 26.5 65.5 25.09375 65.5 
C 21.203125 61.1875 15.296875 59.796875 9.703125 59.796875 
C 9.40625 59.796875 8.90625 59.796875 8.796875 59.5 
C 8.703125 59.296875 8.703125 59.09375 8.703125 57 
C 11.796875 57 17 57.59375 21 59.984375 
L 21 7.203125 
C 21 3.6875 20.796875 2.5 12.203125 2.5 
L 9.203125 2.5 
L 9.203125 0 
C 14 0 19 0 23.796875 0 
C 28.59375 0 33.59375 0 38.40625 0 
L 38.40625 2.5 
L 35.40625 2.5 
C 26.796875 2.5 26.59375 3.59375 26.59375 7.15625 
z
" id="CMR17-49"/>
      </defs>
      <g transform="translate(7.2 151.663003)scale(0.18 -0.18)">
       <use transform="scale(0.996264)" xlink:href="#CMR17-48"/>
       <use transform="translate(45.690477 0)scale(0.996264)" xlink:href="#CMMI12-58"/>
       <use transform="translate(72.787654 0)scale(0.996264)" xlink:href="#CMR17-49"/>
      </g>
     </g>
    </g>
    <g id="ytick_3">
     <g id="line2d_8">
      <g>
       <use style="stroke:#000000;stroke-width:0.8;" x="35.526064" xlink:href="#m57eb390137" y="102.060889"/>
      </g>
     </g>
     <g id="text_8">
      <!-- $0.2$ -->
      <g transform="translate(7.2 108.287539)scale(0.18 -0.18)">
       <use transform="scale(0.996264)" xlink:href="#CMR17-48"/>
       <use transform="translate(45.690477 0)scale(0.996264)" xlink:href="#CMMI12-58"/>
       <use transform="translate(72.787654 0)scale(0.996264)" xlink:href="#CMR17-50"/>
      </g>
     </g>
    </g>
    <g id="ytick_4">
     <g id="line2d_9">
      <g>
       <use style="stroke:#000000;stroke-width:0.8;" x="35.526064" xlink:href="#m57eb390137" y="58.685424"/>
      </g>
     </g>
     <g id="text_9">
      <!-- $0.3$ -->
      <defs>
       <path d="M 22.09375 33.703125 
C 31 33.703125 34.90625 25.96875 34.90625 17.03125 
C 34.90625 5 28.5 0.390625 22.703125 0.390625 
C 17.40625 0.390625 8.796875 3.03125 6.09375 10.828125 
C 6.59375 10.625 7.09375 10.625 7.59375 10.625 
C 10 10.625 11.796875 12.21875 11.796875 14.8125 
C 11.796875 17.703125 9.59375 19 7.59375 19 
C 5.90625 19 3.296875 18.203125 3.296875 14.46875 
C 3.296875 5.234375 12.296875 -2 22.90625 -2 
C 34 -2 42.5 6.71875 42.5 16.953125 
C 42.5 26.671875 34.5 33.703125 25 34.796875 
C 32.59375 36.375 39.90625 43.0625 39.90625 52.015625 
C 39.90625 59.6875 32 65.296875 23 65.296875 
C 13.90625 65.296875 5.90625 59.828125 5.90625 52.015625 
C 5.90625 48.59375 8.5 48 9.796875 48 
C 11.90625 48 13.703125 49.296875 13.703125 51.890625 
C 13.703125 54.46875 11.90625 55.765625 9.796875 55.765625 
C 9.40625 55.765625 8.90625 55.765625 8.5 55.578125 
C 11.40625 61.859375 19.296875 63 22.796875 63 
C 26.296875 63 32.90625 61.328125 32.90625 51.875 
C 32.90625 49.109375 32.5 44.1875 29.09375 39.84375 
C 26.09375 36 22.703125 36 19.40625 35.6875 
C 18.90625 35.6875 16.59375 35.453125 16.203125 35.453125 
C 15.5 35.359375 15.09375 35.265625 15.09375 34.5 
C 15.09375 33.796875 15.203125 33.703125 17.203125 33.703125 
z
" id="CMR17-51"/>
      </defs>
      <g transform="translate(7.2 64.912074)scale(0.18 -0.18)">
       <use transform="scale(0.996264)" xlink:href="#CMR17-48"/>
       <use transform="translate(45.690477 0)scale(0.996264)" xlink:href="#CMMI12-58"/>
       <use transform="translate(72.787654 0)scale(0.996264)" xlink:href="#CMR17-51"/>
      </g>
     </g>
    </g>
    <g id="ytick_5">
     <g id="line2d_10">
      <g>
       <use style="stroke:#000000;stroke-width:0.8;" x="35.526064" xlink:href="#m57eb390137" y="15.309959"/>
      </g>
     </g>
     <g id="text_10">
      <!-- $0.4$ -->
      <g transform="translate(7.2 21.536609)scale(0.18 -0.18)">
       <use transform="scale(0.996264)" xlink:href="#CMR17-48"/>
       <use transform="translate(45.690477 0)scale(0.996264)" xlink:href="#CMMI12-58"/>
       <use transform="translate(72.787654 0)scale(0.996264)" xlink:href="#CMR17-52"/>
      </g>
     </g>
    </g>
   </g>
   <g id="line2d_11">
    <path clip-path="url(#p1e5f1a7b0f)" d="M 50.744245 188.811818 
L 53.818626 188.811818 
L 56.893006 188.811818 
L 59.967386 188.811818 
L 63.041766 188.811818 
L 66.116146 188.811818 
L 69.190526 188.811818 
L 72.264907 188.811818 
L 75.339287 188.811817 
L 78.413667 188.811817 
L 81.488047 188.811815 
L 84.562427 188.811813 
L 87.636807 188.811809 
L 90.711188 188.811802 
L 93.785568 188.811789 
L 96.859948 188.811767 
L 99.934328 188.81173 
L 103.008708 188.811668 
L 106.083088 188.811563 
L 109.157469 188.811389 
L 112.231849 188.811105 
L 115.306229 188.810645 
L 118.380609 188.809907 
L 121.454989 188.808737 
L 124.529369 188.806902 
L 127.60375 188.804053 
L 130.67813 188.799678 
L 133.75251 188.793031 
L 136.82689 188.783038 
L 139.90127 188.768178 
L 142.97565 188.746318 
L 146.050031 188.714506 
L 149.124411 188.66871 
L 152.198791 188.603499 
L 155.273171 188.51165 
L 158.347551 188.383696 
L 161.421931 188.207397 
L 164.496312 187.967161 
L 167.570692 187.643422 
L 170.645072 187.212007 
L 173.719452 186.643533 
L 176.793832 185.902892 
L 179.868212 184.948878 
L 182.942593 183.734059 
L 186.016973 182.204959 
L 189.091353 180.302653 
L 192.165733 177.963868 
L 195.240113 175.122641 
L 198.314493 171.712616 
L 201.388874 167.669957 
L 204.463254 162.93687 
L 207.537634 157.465639 
L 210.612014 151.223004 
L 213.686394 144.1947 
L 216.760774 136.389855 
L 219.835155 127.844946 
L 222.909535 118.62696 
L 225.983915 108.835424 
L 229.058295 98.602981 
L 232.132675 88.094251 
L 235.207055 77.502828 
L 238.281436 67.046352 
L 241.355816 56.959763 
L 244.430196 47.486963 
L 247.504576 38.871279 
L 250.578956 31.345213 
L 253.653336 25.120089 
L 256.727717 20.37622 
L 259.802097 17.25424 
L 262.876477 15.848182 
L 265.950857 16.200773 
L 269.025237 18.301277 
L 272.099617 22.086037 
L 275.173998 27.441683 
L 278.248378 34.210767 
L 281.322758 42.199455 
L 284.397138 51.186725 
L 287.471518 60.934497 
L 290.545898 71.19801 
L 293.620279 81.73586 
L 296.694659 92.319108 
L 299.769039 102.739022 
L 302.843419 112.813112 
L 305.917799 122.389297 
L 308.992179 131.348144 
L 312.06656 139.603298 
L 315.14094 147.100291 
L 318.21532 153.814017 
L 321.2897 159.745214 
L 324.36408 164.916286 
L 327.43846 169.366816 
L 330.51284 173.149063 
L 333.587221 176.323694 
L 336.661601 178.955944 
L 339.735981 181.112329 
L 342.810361 182.857972 
L 345.884741 184.254576 
L 348.959121 185.358985 
L 352.033502 186.222307 
L 355.107882 186.889483 
" style="fill:none;stroke:#1f77b4;stroke-linecap:square;stroke-width:4;"/>
   </g>
   <g id="line2d_12">
    <path clip-path="url(#p1e5f1a7b0f)" d="M 50.744245 177.102402 
L 53.818626 175.874344 
L 56.893006 174.553906 
L 59.967386 173.138728 
L 63.041766 171.626977 
L 66.116146 170.017411 
L 69.190526 168.309453 
L 72.264907 166.503259 
L 75.339287 164.599783 
L 78.413667 162.600837 
L 81.488047 160.509143 
L 84.562427 158.328382 
L 87.636807 156.063231 
L 90.711188 153.719389 
L 93.785568 151.303593 
L 96.859948 148.823621 
L 99.934328 146.288285 
L 103.008708 143.7074 
L 106.083088 141.091751 
L 109.157469 138.453035 
L 112.231849 135.803793 
L 115.306229 133.157323 
L 118.380609 130.527585 
L 121.454989 127.929085 
L 124.529369 125.37675 
L 127.60375 122.885791 
L 130.67813 120.471559 
L 133.75251 118.149391 
L 136.82689 115.934446 
L 139.90127 113.841549 
L 142.97565 111.885019 
L 146.050031 110.078516 
L 149.124411 108.434873 
L 152.198791 106.965954 
L 155.273171 105.682503 
L 158.347551 104.594019 
L 161.421931 103.708638 
L 164.496312 103.033029 
L 167.570692 102.572314 
L 170.645072 102.33 
L 173.719452 102.307938 
L 176.793832 102.506296 
L 179.868212 102.923559 
L 182.942593 103.556547 
L 186.016973 104.400459 
L 189.091353 105.448928 
L 192.165733 106.694103 
L 195.240113 108.126751 
L 198.314493 109.736364 
L 201.388874 111.511293 
L 204.463254 113.438886 
L 207.537634 115.505636 
L 210.612014 117.697344 
L 213.686394 119.999272 
L 216.760774 122.396314 
L 219.835155 124.873157 
L 222.909535 127.414441 
L 225.983915 130.004914 
L 229.058295 132.62958 
L 232.132675 135.273839 
L 235.207055 137.923613 
L 238.281436 140.565463 
L 241.355816 143.186689 
L 244.430196 145.77542 
L 247.504576 148.320683 
L 250.578956 150.812465 
L 253.653336 153.241752 
L 256.727717 155.600557 
L 259.802097 157.881936 
L 262.876477 160.079981 
L 265.950857 162.189814 
L 269.025237 164.207558 
L 272.099617 166.130301 
L 275.173998 167.956054 
L 278.248378 169.683697 
L 281.322758 171.312918 
L 284.397138 172.844153 
L 287.471518 174.278516 
L 290.545898 175.617729 
L 293.620279 176.864052 
L 296.694659 178.020208 
L 299.769039 179.089317 
L 302.843419 180.074825 
L 305.917799 180.98044 
L 308.992179 181.810068 
L 312.06656 182.567756 
L 315.14094 183.257637 
L 318.21532 183.883881 
L 321.2897 184.450654 
L 324.36408 184.962073 
L 327.43846 185.422178 
L 330.51284 185.834895 
L 333.587221 186.204021 
L 336.661601 186.533197 
L 339.735981 186.825894 
L 342.810361 187.085402 
L 345.884741 187.314822 
L 348.959121 187.517062 
L 352.033502 187.694833 
L 355.107882 187.850651 
" style="fill:none;stroke:#ff7f0e;stroke-linecap:square;stroke-width:4;"/>
   </g>
   <g id="patch_3">
    <path d="M 35.526064 197.46 
L 35.526064 7.2 
" style="fill:none;stroke:#000000;stroke-linecap:square;stroke-linejoin:miter;stroke-width:0.8;"/>
   </g>
   <g id="patch_4">
    <path d="M 370.326064 197.46 
L 370.326064 7.2 
" style="fill:none;stroke:#000000;stroke-linecap:square;stroke-linejoin:miter;stroke-width:0.8;"/>
   </g>
   <g id="patch_5">
    <path d="M 35.526064 197.46 
L 370.326064 197.46 
" style="fill:none;stroke:#000000;stroke-linecap:square;stroke-linejoin:miter;stroke-width:0.8;"/>
   </g>
   <g id="patch_6">
    <path d="M 35.526064 7.2 
L 370.326064 7.2 
" style="fill:none;stroke:#000000;stroke-linecap:square;stroke-linejoin:miter;stroke-width:0.8;"/>
   </g>
   <g id="legend_1">
    <g id="patch_7">
     <path d="M 48.126064 71.776128 
L 124.58199 71.776128 
Q 128.18199 71.776128 128.18199 68.176128 
L 128.18199 19.8 
Q 128.18199 16.2 124.58199 16.2 
L 48.126064 16.2 
Q 44.526064 16.2 44.526064 19.8 
L 44.526064 68.176128 
Q 44.526064 71.776128 48.126064 71.776128 
z
" style="fill:#ffffff;opacity:0.8;stroke:#cccccc;stroke-linejoin:miter;"/>
    </g>
    <g id="line2d_13">
     <path d="M 51.726064 29.7 
L 87.726064 29.7 
" style="fill:none;stroke:#1f77b4;stroke-linecap:square;stroke-width:4;"/>
    </g>
    <g id="line2d_14"/>
    <g id="text_11">
     <!-- $f_X$ -->
     <defs>
      <path d="M 44.59375 40.09375 
C 46.59375 40.09375 47.40625 40.09375 47.40625 42 
C 47.40625 43 46.59375 43 44.796875 43 
L 36.703125 43 
C 38.59375 53.578125 40 60.890625 40.796875 64.171875 
C 41.40625 66.640625 43.5 69 46.09375 69 
C 48.203125 69 50.296875 68.09375 51.296875 67.15625 
C 47.40625 66.75 46.203125 63.78125 46.203125 62.015625 
C 46.203125 59.953125 47.703125 58.734375 49.59375 58.734375 
C 51.59375 58.734375 54.59375 60.46875 54.59375 64.359375 
C 54.59375 68.640625 50.40625 71 46 71 
C 41.703125 71 37.5 67.71875 35.5 63.71875 
C 33.703125 60.125 32.703125 56.421875 30.40625 43 
L 23.703125 43 
C 21.796875 43 20.796875 43 20.796875 41.203125 
C 20.796875 40.09375 21.40625 40.09375 23.40625 40.09375 
L 29.796875 40.09375 
C 28 30.875 23.90625 8.46875 21.59375 -2.140625 
C 19.90625 -10.765625 18.40625 -18 13.40625 -18 
C 13.09375 -18 10.203125 -18 8.40625 -16.109375 
C 13.5 -15.703125 13.5 -11.34375 13.5 -11.25 
C 13.5 -9.265625 12 -8.078125 10.09375 -8.078125 
C 8.09375 -8.078125 5.09375 -9.765625 5.09375 -13.546875 
C 5.09375 -17.8125 9.5 -20 13.40625 -20 
C 23.59375 -20 27.796875 -1.84375 28.90625 3.109375 
C 30.703125 10.75 35.59375 37.125 36.09375 40.09375 
z
" id="CMMI12-102"/>
      <path d="M 47.5 40.5625 
L 38.09375 62.40625 
C 39.40625 64.796875 42.40625 65.1875 43.59375 65.296875 
C 44.203125 65.296875 45.296875 65.296875 45.296875 67.0625 
C 45.296875 68.1875 44.40625 68.1875 43.796875 68.1875 
C 42.09375 68.1875 40.09375 68.1875 38.40625 68.1875 
L 32.59375 68.1875 
C 26.5 68.1875 22.09375 68.1875 22 68.1875 
C 21.203125 68.1875 20.203125 68.1875 20.203125 66.296875 
C 20.203125 65.296875 21.09375 65.296875 22.40625 65.296875 
C 28.203125 65.296875 28.59375 64.296875 29.59375 61.90625 
L 41.5 34.140625 
L 19.796875 10.828125 
C 16.203125 6.90625 11.90625 3.09375 4.5 3.09375 
C 3.296875 3 2.5 3 2.5 1.0625 
C 2.5 0.75 2.59375 0 3.703125 0 
C 5.09375 0 6.59375 0 8 0 
L 12.703125 0 
C 15.90625 0 19.40625 0 22.5 0 
C 23.203125 0 24.40625 0 24.40625 1.796875 
C 24.40625 2.796875 23.703125 2.890625 23.09375 2.890625 
C 21.09375 3.09375 19.796875 4.1875 19.796875 5.78125 
C 19.796875 7.484375 21 8.703125 23.90625 11.6875 
L 32.796875 21.375 
C 35 23.6875 40.296875 29.46875 42.5 31.65625 
L 53 7.078125 
C 53.09375 6.890625 53.5 5.890625 53.5 5.78125 
C 53.5 4.890625 51.296875 3.09375 48.09375 3.09375 
C 47.5 3.09375 46.40625 3.09375 46.40625 1.109375 
C 46.40625 0 47.40625 0 47.90625 0 
C 49.59375 0 51.59375 0 53.296875 0 
L 64.296875 0 
C 66.09375 0 68 0 69.703125 0 
C 70.40625 0 71.5 0 71.5 2.03125 
C 71.5 3.09375 70.5 3.09375 69.59375 3.09375 
C 63.59375 3.09375 63.40625 3.59375 61.703125 7.265625 
L 48.5 38.140625 
L 61.203125 51.8125 
C 62.203125 52.828125 64.5 55.34375 65.40625 56.34375 
C 69.703125 60.875 73.703125 65 81.796875 65 
C 82.796875 65.296875 83.796875 65.296875 83.796875 67.0625 
C 83.796875 68.1875 82.90625 68.1875 82.5 68.1875 
C 81.09375 68.1875 79.59375 68.1875 78.203125 68.1875 
L 73.59375 68.1875 
C 70.40625 68.1875 66.90625 68.1875 63.796875 68.1875 
C 63.09375 68.1875 61.90625 68.1875 61.90625 66.390625 
C 61.90625 65.390625 62.59375 65.296875 63.203125 65.296875 
C 64.796875 65.109375 66.5 64.3125 66.5 62.40625 
L 66.40625 62.21875 
C 66.296875 61.515625 66.09375 60.515625 65 59.328125 
z
" id="CMMI12-88"/>
     </defs>
     <g transform="translate(102.126064 36)scale(0.18 -0.18)">
      <use transform="translate(0 14.943915)scale(0.996264)" xlink:href="#CMMI12-102"/>
      <use transform="translate(48.083238 0)scale(0.697382)" xlink:href="#CMMI12-88"/>
     </g>
    </g>
    <g id="line2d_15">
     <path d="M 51.726064 54.788064 
L 87.726064 54.788064 
" style="fill:none;stroke:#ff7f0e;stroke-linecap:square;stroke-width:4;"/>
    </g>
    <g id="line2d_16"/>
    <g id="text_12">
     <!-- $f_Y$ -->
     <defs>
      <path d="M 58.796875 56.953125 
L 61.09375 59.234375 
C 65.5 63.71875 69.203125 64.828125 72.703125 65.109375 
C 73.796875 65.203125 74.703125 65.296875 74.703125 67 
C 74.703125 68 73.703125 68 73.5 68 
C 72.296875 68 71 68 69.796875 68 
L 65.703125 68 
C 62.796875 68 59.703125 68 56.90625 68 
C 56.203125 68 55.09375 68 55.09375 66.03125 
C 55.09375 65.09375 56.09375 65 56.40625 65 
C 59.40625 65 59.40625 63.5 59.40625 62.90625 
C 59.40625 61.8125 58.59375 60.3125 56.59375 58.015625 
L 32.796875 30.765625 
L 21.5 61.109375 
C 20.90625 62.5 20.90625 62.703125 20.90625 62.90625 
C 20.90625 65 25 65 26.203125 65 
C 27.40625 65 28.5 65 28.5 66.859375 
C 28.5 68 27.59375 68 27 68 
C 25.296875 68 23.296875 68 21.59375 68 
L 10.5 68 
C 8.703125 68 6.796875 68 5.09375 68 
C 4.40625 68 3.296875 68 3.296875 66.03125 
C 3.296875 65 4.203125 65 5.703125 65 
C 10.59375 65 11.5 64.09375 12.40625 61.8125 
L 24.796875 28.671875 
C 24.90625 28.375 25.203125 27.265625 25.203125 26.96875 
C 25.203125 26.671875 20.296875 7.0625 20 6.0625 
C 19.203125 3.390625 18.203125 2.890625 11.796875 2.890625 
C 10.09375 2.890625 9.296875 2.890625 9.296875 1 
C 9.296875 0 10.40625 0 10.703125 0 
C 12.5 0 14.59375 0 16.5 0 
L 28.296875 0 
C 30.09375 0 32.203125 0 34 0 
C 34.703125 0 35.90625 0 35.90625 1.796875 
C 35.90625 2.890625 35.203125 2.890625 33.5 2.890625 
C 27.296875 2.890625 27.296875 3.59375 27.296875 4.6875 
C 27.296875 5.390625 28.09375 8.5625 28.59375 10.5625 
L 32.203125 24.90625 
C 32.796875 26.984375 32.796875 27.171875 33.703125 28.171875 
z
" id="CMMI12-89"/>
     </defs>
     <g transform="translate(102.126064 61.088064)scale(0.18 -0.18)">
      <use transform="translate(0 14.943915)scale(0.996264)" xlink:href="#CMMI12-102"/>
      <use transform="translate(48.083238 0)scale(0.697382)" xlink:href="#CMMI12-89"/>
     </g>
    </g>
   </g>
  </g>
 </g>
 <defs>
  <clipPath id="p1e5f1a7b0f">
   <rect height="190.26" width="334.8" x="35.526064" y="7.2"/>
  </clipPath>
 </defs>
</svg>
