<?xml version="1.0" encoding="utf-8" standalone="no"?>
<!DOCTYPE svg PUBLIC "-//W3C//DTD SVG 1.1//EN"
  "http://www.w3.org/Graphics/SVG/1.1/DTD/svg11.dtd">
<!-- Created with matplotlib (https://matplotlib.org/) -->
<svg height="302.4pt" version="1.1" viewBox="0 0 301.416334 302.4" width="301.416334pt" xmlns="http://www.w3.org/2000/svg" xmlns:xlink="http://www.w3.org/1999/xlink">
 <defs>
  <style type="text/css">
*{stroke-linecap:butt;stroke-linejoin:round;}
  </style>
 </defs>
 <g id="figure_1">
  <g id="patch_1">
   <path d="M 0 302.4 
L 301.416334 302.4 
L 301.416334 0 
L 0 0 
z
" style="fill:none;"/>
  </g>
  <g id="axes_1">
   <g id="line2d_1">
    <path clip-path="url(#pc06e5e2d90)" d="M 20.246197 172.820774 
L 20.246197 129.579226 
M 60.846213 247.843033 
L 34.286705 213.719376 
M 138.964956 282.109091 
L 97.046588 271.493918 
M 182.058813 278.538232 
L 138.964956 282.109091 
M 221.658269 261.1683 
L 182.058813 278.538232 
M 253.47211 231.881596 
L 221.658269 261.1683 
M 274.052812 193.85179 
L 253.47211 231.881596 
M 281.170137 151.2 
L 274.052812 193.85179 
M 274.052812 108.54821 
L 281.170137 151.2 
M 253.47211 70.518404 
L 274.052812 108.54821 
M 221.658269 41.2317 
L 253.47211 70.518404 
M 182.058813 23.861768 
L 221.658269 41.2317 
M 138.964956 20.290909 
L 182.058813 23.861768 
M 97.046588 30.906082 
L 138.964956 20.290909 
M 60.846213 54.556967 
L 97.046588 30.906082 
M 34.286705 88.680624 
L 20.246197 129.579226 
M 34.286705 88.680624 
L 60.846213 54.556967 
M 186.968396 235.907156 
L 182.058813 278.538232 
M 186.968396 235.907156 
L 221.658269 261.1683 
M 186.968396 235.907156 
L 199.139398 194.756464 
M 110.211938 138.38422 
L 149.812393 151.2 
M 110.211938 138.38422 
L 86.833229 172.820774 
M 110.211938 138.38422 
L 113.392738 95.455569 
M 110.211938 138.38422 
L 71.09 124.174568 
M 126.178847 57.873239 
L 138.964956 20.290909 
M 126.178847 57.873239 
L 97.046588 30.906082 
M 126.178847 57.873239 
L 113.392738 95.455569 
M 215.016105 80.369888 
L 253.47211 70.518404 
M 215.016105 80.369888 
L 221.658269 41.2317 
M 215.016105 80.369888 
L 208.37394 119.508076 
M 199.14969 156.566898 
L 208.37394 119.508076 
M 199.14969 156.566898 
L 199.139398 194.756464 
M 199.14969 156.566898 
L 236.249754 165.623845 
M 169.642338 117.890436 
L 149.812393 151.2 
M 169.642338 117.890436 
L 208.37394 119.508076 
M 53.539713 156.724887 
L 20.246197 129.579226 
M 53.539713 156.724887 
L 20.246197 172.820774 
M 53.539713 156.724887 
L 86.833229 172.820774 
M 69.668256 88.821314 
L 60.846213 54.556967 
M 69.668256 88.821314 
L 34.286705 88.680624 
M 69.668256 88.821314 
L 71.09 124.174568 
M 250.973804 134.319146 
L 281.170137 151.2 
M 250.973804 134.319146 
L 274.052812 108.54821 
M 250.973804 134.319146 
L 236.249754 165.623845 
M 234.401044 201.471556 
L 253.47211 231.881596 
M 234.401044 201.471556 
L 274.052812 193.85179 
M 234.401044 201.471556 
L 199.139398 194.756464 
M 115.150494 242.465296 
L 97.046588 271.493918 
M 115.150494 242.465296 
L 136.868243 216.031385 
M 158.347991 254.209346 
L 138.964956 282.109091 
M 158.347991 254.209346 
L 182.058813 278.538232 
M 158.347991 254.209346 
L 186.968396 235.907156 
M 64.315089 198.094656 
L 34.286705 213.719376 
M 64.315089 198.094656 
L 86.833229 172.820774 
M 64.315089 198.094656 
L 92.524791 216.804239 
M 64.315089 198.094656 
L 53.539713 156.724887 
M 121.47156 171.182379 
L 149.812393 151.2 
M 121.47156 171.182379 
L 86.833229 172.820774 
M 121.47156 171.182379 
L 110.211938 138.38422 
M 152.782058 185.500818 
L 149.812393 151.2 
M 152.782058 185.500818 
L 136.868243 216.031385 
M 152.782058 185.500818 
L 121.47156 171.182379 
M 157.727291 47.640339 
L 182.058813 23.861768 
M 157.727291 47.640339 
L 138.964956 20.290909 
M 157.727291 47.640339 
L 168.056022 79.157538 
M 157.727291 47.640339 
L 126.178847 57.873239 
M 192.140398 56.354922 
L 221.658269 41.2317 
M 192.140398 56.354922 
L 182.058813 23.861768 
M 192.140398 56.354922 
L 168.056022 79.157538 
M 192.140398 56.354922 
L 215.016105 80.369888 
M 192.140398 56.354922 
L 157.727291 47.640339 
M 240.89854 102.076701 
L 274.052812 108.54821 
M 240.89854 102.076701 
L 253.47211 70.518404 
M 240.89854 102.076701 
L 208.37394 119.508076 
M 240.89854 102.076701 
L 215.016105 80.369888 
M 240.89854 102.076701 
L 250.973804 134.319146 
M 93.090832 64.522824 
L 97.046588 30.906082 
M 93.090832 64.522824 
L 60.846213 54.556967 
M 93.090832 64.522824 
L 113.392738 95.455569 
M 93.090832 64.522824 
L 126.178847 57.873239 
M 93.090832 64.522824 
L 69.668256 88.821314 
M 137.592834 121.368025 
L 149.812393 151.2 
M 137.592834 121.368025 
L 113.392738 95.455569 
M 137.592834 121.368025 
L 110.211938 138.38422 
M 137.592834 121.368025 
L 169.642338 117.890436 
M 222.476841 230.134632 
L 221.658269 261.1683 
M 222.476841 230.134632 
L 253.47211 231.881596 
M 222.476841 230.134632 
L 199.139398 194.756464 
M 222.476841 230.134632 
L 186.968396 235.907156 
M 222.476841 230.134632 
L 234.401044 201.471556 
M 172.16239 209.152799 
L 136.868243 216.031385 
M 172.16239 209.152799 
L 199.139398 194.756464 
M 172.16239 209.152799 
L 186.968396 235.907156 
M 172.16239 209.152799 
L 152.782058 185.500818 
M 139.556901 83.390851 
L 113.392738 95.455569 
M 139.556901 83.390851 
L 168.056022 79.157538 
M 139.556901 83.390851 
L 126.178847 57.873239 
M 139.556901 83.390851 
L 157.727291 47.640339 
M 139.556901 83.390851 
L 137.592834 121.368025 
M 189.886751 97.662388 
L 208.37394 119.508076 
M 189.886751 97.662388 
L 168.056022 79.157538 
M 189.886751 97.662388 
L 215.016105 80.369888 
M 189.886751 97.662388 
L 169.642338 117.890436 
M 189.886751 97.662388 
L 192.140398 56.354922 
M 178.850275 175.656212 
L 149.812393 151.2 
M 178.850275 175.656212 
L 199.139398 194.756464 
M 178.850275 175.656212 
L 199.14969 156.566898 
M 178.850275 175.656212 
L 152.782058 185.500818 
M 178.850275 175.656212 
L 172.16239 209.152799 
M 78.946401 259.668476 
L 60.846213 247.843033 
M 78.946401 259.668476 
L 97.046588 271.493918 
M 114.387398 198.681722 
L 136.868243 216.031385 
M 114.387398 198.681722 
L 92.524791 216.804239 
M 114.387398 198.681722 
L 121.47156 171.182379 
M 114.387398 198.681722 
L 152.782058 185.500818 
M 224.742772 141.096528 
L 208.37394 119.508076 
M 224.742772 141.096528 
L 236.249754 165.623845 
M 224.742772 141.096528 
L 199.14969 156.566898 
M 224.742772 141.096528 
L 250.973804 134.319146 
M 224.742772 141.096528 
L 240.89854 102.076701 
M 89.468228 105.730266 
L 113.392738 95.455569 
M 89.468228 105.730266 
L 71.09 124.174568 
M 89.468228 105.730266 
L 110.211938 138.38422 
M 89.468228 105.730266 
L 69.668256 88.821314 
M 89.468228 105.730266 
L 93.090832 64.522824 
M 51.903957 107.240927 
L 20.246197 129.579226 
M 51.903957 107.240927 
L 34.286705 88.680624 
M 51.903957 107.240927 
L 71.09 124.174568 
M 51.903957 107.240927 
L 69.668256 88.821314 
M 77.886562 148.845587 
L 86.833229 172.820774 
M 77.886562 148.845587 
L 71.09 124.174568 
M 77.886562 148.845587 
L 110.211938 138.38422 
M 77.886562 148.845587 
L 53.539713 156.724887 
M 27.266451 193.270075 
L 20.246197 172.820774 
M 27.266451 193.270075 
L 34.286705 213.719376 
M 27.266451 193.270075 
L 64.315089 198.094656 
M 67.881818 223.338487 
L 34.286705 213.719376 
M 67.881818 223.338487 
L 60.846213 247.843033 
M 67.881818 223.338487 
L 92.524791 216.804239 
M 67.881818 223.338487 
L 64.315089 198.094656 
M 175.559382 143.97038 
L 149.812393 151.2 
M 175.559382 143.97038 
L 208.37394 119.508076 
M 175.559382 143.97038 
L 199.14969 156.566898 
M 175.559382 143.97038 
L 169.642338 117.890436 
M 175.559382 143.97038 
L 178.850275 175.656212 
M 46.964516 132.173223 
L 20.246197 129.579226 
M 46.964516 132.173223 
L 71.09 124.174568 
M 46.964516 132.173223 
L 53.539713 156.724887 
M 46.964516 132.173223 
L 51.903957 107.240927 
M 46.964516 132.173223 
L 77.886562 148.845587 
M 219.697653 182.741758 
L 199.139398 194.756464 
M 219.697653 182.741758 
L 236.249754 165.623845 
M 219.697653 182.741758 
L 199.14969 156.566898 
M 219.697653 182.741758 
L 234.401044 201.471556 
M 258.203487 156.834651 
L 281.170137 151.2 
M 258.203487 156.834651 
L 236.249754 165.623845 
M 258.203487 156.834651 
L 250.973804 134.319146 
M 254.816197 180.186566 
L 274.052812 193.85179 
M 254.816197 180.186566 
L 281.170137 151.2 
M 254.816197 180.186566 
L 236.249754 165.623845 
M 254.816197 180.186566 
L 234.401044 201.471556 
M 254.816197 180.186566 
L 219.697653 182.741758 
M 254.816197 180.186566 
L 258.203487 156.834651 
M 163.822933 231.24194 
L 136.868243 216.031385 
M 163.822933 231.24194 
L 186.968396 235.907156 
M 163.822933 231.24194 
L 158.347991 254.209346 
M 163.822933 231.24194 
L 172.16239 209.152799 
M 134.108144 258.05193 
L 97.046588 271.493918 
M 134.108144 258.05193 
L 138.964956 282.109091 
M 134.108144 258.05193 
L 136.868243 216.031385 
M 134.108144 258.05193 
L 115.150494 242.465296 
M 134.108144 258.05193 
L 158.347991 254.209346 
M 134.108144 258.05193 
L 163.822933 231.24194 
M 156.444244 99.032035 
L 168.056022 79.157538 
M 156.444244 99.032035 
L 169.642338 117.890436 
M 156.444244 99.032035 
L 137.592834 121.368025 
M 156.444244 99.032035 
L 139.556901 83.390851 
M 156.444244 99.032035 
L 189.886751 97.662388 
M 42.599512 176.57655 
L 20.246197 172.820774 
M 42.599512 176.57655 
L 53.539713 156.724887 
M 42.599512 176.57655 
L 64.315089 198.094656 
M 42.599512 176.57655 
L 27.266451 193.270075 
M 91.876013 240.181498 
L 60.846213 247.843033 
M 91.876013 240.181498 
L 97.046588 271.493918 
M 91.876013 240.181498 
L 92.524791 216.804239 
M 91.876013 240.181498 
L 115.150494 242.465296 
M 91.876013 240.181498 
L 78.946401 259.668476 
M 91.876013 240.181498 
L 67.881818 223.338487 
M 92.441364 194.455051 
L 86.833229 172.820774 
M 92.441364 194.455051 
L 92.524791 216.804239 
M 92.441364 194.455051 
L 64.315089 198.094656 
M 92.441364 194.455051 
L 121.47156 171.182379 
M 92.441364 194.455051 
L 114.387398 198.681722 
M 115.436573 220.561873 
L 136.868243 216.031385 
M 115.436573 220.561873 
L 92.524791 216.804239 
M 115.436573 220.561873 
L 115.150494 242.465296 
M 115.436573 220.561873 
L 114.387398 198.681722 
M 115.436573 220.561873 
L 91.876013 240.181498 
L 91.876013 240.181498 
" style="fill:none;stroke:#1f77b4;stroke-linecap:square;stroke-width:2.5;"/>
   </g>
   <g id="line2d_2"/>
  </g>
 </g>
 <defs>
  <clipPath id="pc06e5e2d90">
   <rect height="288" width="287.016334" x="7.2" y="7.2"/>
  </clipPath>
 </defs>
</svg>
