<?xml version="1.0" encoding="utf-8" standalone="no"?>
<!DOCTYPE svg PUBLIC "-//W3C//DTD SVG 1.1//EN"
  "http://www.w3.org/Graphics/SVG/1.1/DTD/svg11.dtd">
<!-- Created with matplotlib (https://matplotlib.org/) -->
<svg height="308.841024pt" version="1.1" viewBox="0 0 419.276946 308.841024" width="419.276946pt" xmlns="http://www.w3.org/2000/svg" xmlns:xlink="http://www.w3.org/1999/xlink">
 <defs>
  <style type="text/css">
*{stroke-linecap:butt;stroke-linejoin:round;}
  </style>
 </defs>
 <g id="figure_1">
  <g id="patch_1">
   <path d="M 0 308.841024 
L 419.276946 308.841024 
L 419.276946 0 
L 0 0 
z
" style="fill:none;"/>
  </g>
  <g id="axes_1">
   <g id="PathCollection_1">
    <path clip-path="url(#pa37c655f56)" d="M 261.031893 226.005452 
L 242.396996 240.511086 
L 238.943072 249.221321 
L 237.099262 259.948494 
L 248.186162 249.742283 
M 223.748185 60.513224 
L 236.323685 86.048842 
L 242.443118 97.424386 
L 254.559292 119.398262 
L 259.862693 133.012577 
L 276.805789 166.376119 
L 276.805791 166.376127 
L 276.805792 166.376135 
L 276.805794 166.376164 
L 276.805801 166.376125 
L 269.451657 122.30516 
L 248.186162 83.009967 
M 7.2 161.711044 
L 12.865706 148.655449 
L 14.253478 144.720751 
L 17.638249 136.67053 
L 29.832277 110.336009 
L 33.941508 101.825155 
L 35.430972 84.14483 
L 21.707685 101.776509 
L 7.2 144.035951 
" style="fill:#481769;"/>
   </g>
   <g id="PathCollection_2">
    <path clip-path="url(#pa37c655f56)" d="M 127.807988 301.119117 
L 91.549779 288.861367 
L 88.510277 287.538768 
L 86.063981 287.694178 
L 84.527504 289.347487 
L 86.555811 290.672647 
M 237.099262 259.948494 
L 238.943072 249.221321 
L 242.396996 240.511086 
L 261.031893 226.005452 
L 269.451657 210.44709 
L 276.805794 166.376164 
L 276.805792 166.376135 
L 276.805791 166.376127 
L 276.805789 166.376119 
L 259.862693 133.012577 
L 254.559292 119.398262 
L 242.443118 97.424386 
L 236.323685 86.048842 
L 223.748185 60.513224 
L 215.313763 52.748791 
L 210.597977 50.680256 
L 208.816829 56.077438 
L 213.033428 66.185403 
L 224.32881 89.121635 
L 236.635975 111.999684 
L 239.045791 116.370122 
L 249.873789 144.166584 
L 254.946819 154.156156 
L 259.043102 170.734036 
L 259.872897 185.000541 
L 261.422806 204.74359 
L 258.683979 212.516284 
L 235.942313 230.218678 
L 228.637404 248.64047 
L 224.737821 271.328002 
M 35.430972 84.14483 
L 33.941508 101.825155 
L 29.832277 110.336009 
L 17.638249 136.67053 
L 14.253478 144.720751 
L 12.865706 148.655449 
L 7.2 161.711044 
L 7.2 188.716299 
L 8.040392 191.164277 
L 9.257649 189.062022 
L 10.012932 187.356375 
L 23.164005 157.052104 
L 27.074268 145.965481 
L 36.611388 123.282735 
L 38.417939 119.381262 
L 46.8696 101.876562 
L 49.676448 68.558549 
L 50.678766 66.989648 
L 84.82283 56.806791 
L 95.750404 50.590857 
L 129.79204 31.337294 
L 129.948338 31.226947 
L 129.965591 31.119234 
L 129.868951 31.111226 
L 86.555811 42.079603 
L 49.150922 66.517437 
" style="fill:#423f85;"/>
   </g>
   <g id="PathCollection_3">
    <path clip-path="url(#pa37c655f56)" d="M 84.527504 289.347487 
L 86.063981 287.694178 
L 88.510277 287.538768 
L 91.549779 288.861367 
L 127.807988 301.119117 
L 129.868951 301.641024 
L 137.199623 301.033587 
L 135.608942 293.378939 
L 127.598256 290.393629 
L 106.754065 283.34687 
L 94.460707 277.99758 
L 84.566589 278.626141 
L 78.352261 285.313 
M 224.737821 271.328002 
L 228.637404 248.64047 
L 235.942313 230.218678 
L 258.683979 212.516284 
L 261.422806 204.74359 
L 259.872897 185.000541 
L 259.043102 170.734036 
L 254.946819 154.156156 
L 249.873789 144.166584 
L 239.045791 116.370122 
L 236.635975 111.999684 
L 224.32881 89.121635 
L 213.033428 66.185403 
L 208.816829 56.077438 
L 210.597977 50.680256 
L 203.438459 47.5398 
L 198.953167 61.130999 
L 209.571417 86.5849 
L 212.333935 92.194427 
L 216.501204 99.94105 
L 223.677855 121.790454 
L 227.889731 133.260324 
L 235.519175 151.539417 
L 238.01607 165.06778 
L 240.921855 177.063769 
L 241.803122 190.231271 
L 240.878197 196.959946 
L 234.487985 212.056981 
L 232.557007 217.537029 
L 229.48763 219.92627 
L 218.331736 248.059619 
L 215.761991 263.010236 
L 212.050616 277.627237 
L 213.454176 280.819149 
L 215.313763 280.003459 
M 129.965591 31.119234 
L 129.948338 31.226947 
L 129.79204 31.337294 
L 95.750404 50.590857 
L 84.82283 56.806791 
L 50.678766 66.989648 
L 49.676448 68.558549 
L 46.8696 101.876562 
L 38.417939 119.381262 
L 36.611388 123.282735 
L 27.074268 145.965481 
L 23.164005 157.052104 
L 10.012932 187.356375 
L 9.257649 189.062022 
L 8.040392 191.164277 
L 13.311696 206.51906 
L 22.164118 191.230551 
L 27.656866 178.826343 
L 33.462305 165.448758 
L 37.078368 155.196268 
L 40.685169 149.885437 
L 42.688974 144.10315 
L 49.633864 129.535687 
L 58.444645 106.351522 
L 60.048076 103.443322 
L 70.180006 89.56286 
L 79.007608 75.745254 
L 82.724748 74.636684 
L 106.882102 60.89525 
L 122.798649 51.893031 
L 137.166754 41.749068 
L 138.752717 31.847356 
" style="fill:#33628d;"/>
   </g>
   <g id="PathCollection_4">
    <path clip-path="url(#pa37c655f56)" d="M 78.352261 285.313 
L 84.566589 278.626141 
L 94.460707 277.99758 
L 106.754065 283.34687 
L 127.598256 290.393629 
L 135.608942 293.378939 
L 137.199623 301.033587 
L 144.652597 300.416016 
L 141.444696 284.979013 
L 125.289677 278.958589 
L 121.95835 277.832373 
L 100.411136 268.456392 
L 83.069197 269.558103 
L 72.177018 281.278512 
M 213.454176 280.819149 
L 212.050616 277.627237 
L 215.761991 263.010236 
L 218.331736 248.059619 
L 229.48763 219.92627 
L 232.557007 217.537029 
L 234.487985 212.056981 
L 240.878197 196.959946 
L 241.803122 190.231271 
L 240.921855 177.063769 
L 238.01607 165.06778 
L 235.519175 151.539417 
L 227.889731 133.260324 
L 223.677855 121.790454 
L 216.501204 99.94105 
L 212.333935 92.194427 
L 209.571417 86.5849 
L 198.953167 61.130999 
L 203.438459 47.5398 
L 196.278941 44.399344 
L 189.089505 66.184559 
L 194.046805 78.06812 
L 196.293693 101.554886 
L 204.299964 117.646326 
L 208.357993 130.001046 
L 217.300379 154.353139 
L 217.747443 156.391919 
L 220.062257 178.758486 
L 219.514659 192.527787 
L 218.683432 198.574816 
L 216.68539 203.295241 
L 212.601709 215.296491 
L 206.046197 232.605921 
L 202.764844 250.11474 
L 198.318253 267.627338 
L 205.628441 284.251835 
M 138.752717 31.847356 
L 137.166754 41.749068 
L 122.798649 51.893031 
L 106.882102 60.89525 
L 82.724748 74.636684 
L 79.007608 75.745254 
L 70.180006 89.56286 
L 60.048076 103.443322 
L 58.444645 106.351522 
L 49.633864 129.535687 
L 42.688974 144.10315 
L 40.685169 149.885437 
L 37.078368 155.196268 
L 33.462305 165.448758 
L 27.656866 178.826343 
L 22.164118 191.230551 
L 13.311696 206.51906 
L 14.453843 209.84602 
L 17.601463 219.014724 
L 28.214795 211.638011 
L 34.997229 197.254442 
L 43.055398 177.667511 
L 45.709548 174.070989 
L 47.039432 170.324921 
L 55.496996 157.871589 
L 60.838928 142.45662 
L 62.937122 139.614317 
L 66.755238 131.406543 
L 75.0902 116.289125 
L 79.533309 110.202189 
L 93.642736 93.84048 
L 114.852596 75.248939 
L 118.209928 72.905376 
L 121.643893 68.326659 
L 144.38517 52.271189 
L 147.539844 32.575478 
" style="fill:#26818e;"/>
   </g>
   <g id="PathCollection_5">
    <path clip-path="url(#pa37c655f56)" d="M 72.177018 281.278512 
L 83.069197 269.558103 
L 100.411136 268.456392 
L 121.95835 277.832373 
L 125.289677 278.958589 
L 141.444696 284.979013 
L 144.652597 300.416016 
L 152.10557 299.798445 
L 147.28045 276.579087 
L 140.971289 274.227878 
L 140.880343 262.320598 
L 126.164577 256.778046 
L 108.923322 256.221855 
L 105.323414 255.983562 
L 94.788518 259.650425 
L 81.571805 260.490066 
L 75.280747 267.259489 
L 65.485934 276.907009 
L 67.853367 278.45373 
M 205.628441 284.251835 
L 198.318253 267.627338 
L 202.764844 250.11474 
L 206.046197 232.605921 
L 212.601709 215.296491 
L 216.68539 203.295241 
L 218.683432 198.574816 
L 219.514659 192.527787 
L 220.062257 178.758486 
L 217.747443 156.391919 
L 217.300379 154.353139 
L 208.357993 130.001046 
L 204.299964 117.646326 
L 196.293693 101.554886 
L 194.046805 78.06812 
L 189.089505 66.184559 
L 196.278941 44.399344 
L 189.119423 41.258889 
L 182.563783 61.123596 
L 152.689271 56.015006 
L 156.32697 33.3036 
L 147.539844 32.575478 
L 144.38517 52.271189 
L 121.643893 68.326659 
L 118.209928 72.905376 
L 114.852596 75.248939 
L 93.642736 93.84048 
L 79.533309 110.202189 
L 75.0902 116.289125 
L 66.755238 131.406543 
L 62.937122 139.614317 
L 60.838928 142.45662 
L 55.496996 157.871589 
L 47.039432 170.324921 
L 45.709548 174.070989 
L 43.055398 177.667511 
L 34.997229 197.254442 
L 28.214795 211.638011 
L 17.601463 219.014724 
L 21.619731 230.71954 
L 45.7821 213.925677 
L 47.705357 209.847008 
L 49.990367 204.292852 
L 65.302916 183.543484 
L 69.57829 171.50045 
L 75.781138 161.023326 
L 85.528097 147.819685 
L 90.285941 137.591783 
L 102.584872 120.396867 
L 109.472681 115.230154 
L 130.382069 98.215765 
L 132.045902 97.760527 
L 147.049017 93.849621 
L 159.062357 89.295186 
L 161.128392 90.800029 
L 162.413385 94.043314 
L 169.278337 111.598014 
L 176.183552 117.353576 
L 181.207954 132.778543 
L 186.690379 144.73501 
L 194.089745 163.751919 
L 195.433535 169.880111 
L 195.737834 172.820356 
L 195.594337 176.428571 
L 194.360598 210.028935 
L 193.787368 211.71356 
L 193.231907 213.180222 
L 185.792869 252.873834 
L 184.58589 257.62744 
L 197.802707 287.68452 
" style="fill:#1fa088;"/>
   </g>
   <g id="PathCollection_6">
    <path clip-path="url(#pa37c655f56)" d="M 159.558544 299.180874 
L 155.212544 278.267133 
L 178.254007 264.457375 
L 189.976972 291.117205 
L 197.802707 287.68452 
L 184.58589 257.62744 
L 185.792869 252.873834 
L 193.231907 213.180222 
L 193.787368 211.71356 
L 194.360598 210.028935 
L 195.594337 176.428571 
L 195.737834 172.820356 
L 195.433535 169.880111 
L 194.089745 163.751919 
L 186.690379 144.73501 
L 181.207954 132.778543 
L 176.183552 117.353576 
L 169.278337 111.598014 
L 162.413385 94.043314 
L 161.128392 90.800029 
L 159.062357 89.295186 
L 147.049017 93.849621 
L 132.045902 97.760527 
L 130.382069 98.215765 
L 109.472681 115.230154 
L 102.584872 120.396867 
L 90.285941 137.591783 
L 85.528097 147.819685 
L 75.781138 161.023326 
L 69.57829 171.50045 
L 65.302916 183.543484 
L 49.990367 204.292852 
L 47.705357 209.847008 
L 45.7821 213.925677 
L 21.619731 230.71954 
L 21.707685 230.975741 
L 34.820926 247.823633 
L 55.006739 240.510083 
L 56.183595 239.23731 
L 61.907136 239.460129 
L 57.704424 241.816091 
L 67.884266 261.609383 
L 57.590309 271.74854 
L 65.485934 276.907009 
L 75.280747 267.259489 
L 81.571805 260.490066 
L 94.788518 259.650425 
L 105.323414 255.983562 
L 108.923322 256.221855 
L 126.164577 256.778046 
L 140.880343 262.320598 
L 140.971289 274.227878 
L 147.28045 276.579087 
L 152.10557 299.798445 
M 181.959906 38.118433 
L 178.592208 48.32313 
L 163.245374 45.698797 
L 165.114097 34.031722 
L 156.32697 33.3036 
L 152.689271 56.015006 
L 182.563783 61.123596 
L 189.119423 41.258889 
M 118.081553 225.939703 
L 104.691449 219.980657 
L 97.055528 221.586784 
L 96.737993 213.947899 
L 96.466034 199.310967 
L 102.939006 187.442205 
L 108.332378 176.941518 
L 130.207363 162.858312 
L 137.089397 156.640289 
L 145.506613 158.935973 
L 149.241238 164.083739 
L 152.255078 175.790228 
L 156.50347 197.151404 
L 154.640168 214.625704 
L 131.371636 226.325411 
" style="fill:#3fbc73;"/>
   </g>
   <g id="PathCollection_7">
    <path clip-path="url(#pa37c655f56)" d="M 167.011517 298.563303 
L 164.848446 288.154212 
L 176.316537 281.280883 
L 182.151238 294.549891 
L 189.976972 291.117205 
L 178.254007 264.457375 
L 155.212544 278.267133 
L 159.558544 299.180874 
M 174.800388 34.977977 
L 174.620633 35.522665 
L 173.801478 35.382588 
L 173.901224 34.759845 
L 165.114097 34.031722 
L 163.245374 45.698797 
L 178.592208 48.32313 
L 181.959906 38.118433 
M 48.227618 265.048553 
L 49.638256 264.537463 
L 50.35794 265.93679 
L 49.694685 266.590071 
L 57.590309 271.74854 
L 67.884266 261.609383 
L 57.704424 241.816091 
L 61.907136 239.460129 
L 56.183595 239.23731 
L 55.006739 240.510083 
L 34.820926 247.823633 
M 131.371636 226.325411 
L 154.640168 214.625704 
L 156.50347 197.151404 
L 152.255078 175.790228 
L 149.241238 164.083739 
L 145.506613 158.935973 
L 137.089397 156.640289 
L 130.207363 162.858312 
L 108.332378 176.941518 
L 102.939006 187.442205 
L 96.466034 199.310967 
L 96.737993 213.947899 
L 97.055528 221.586784 
L 104.691449 219.980657 
L 118.081553 225.939703 
" style="fill:#84d44b;"/>
   </g>
   <g id="PathCollection_8">
    <path clip-path="url(#pa37c655f56)" d="M 182.151238 294.549891 
L 176.316537 281.280883 
L 164.848446 288.154212 
L 167.011517 298.563303 
L 174.396693 297.95135 
M 173.901224 34.759845 
L 173.801478 35.382588 
L 174.620633 35.522665 
L 174.800388 34.977977 
L 174.396693 34.8009 
M 49.694685 266.590071 
L 50.35794 265.93679 
L 49.638256 264.537463 
L 48.227618 265.048553 
L 49.150922 266.234813 
" style="fill:#d8e219;"/>
   </g>
   <g id="line2d_1">
    <path clip-path="url(#pa37c655f56)" d="M 7.2 188.716299 
L 7.2 144.035951 
M 49.150922 266.234813 
L 21.707685 230.975741 
M 129.868951 301.641024 
L 86.555811 290.672647 
M 174.396693 297.95135 
L 129.868951 301.641024 
M 215.313763 280.003459 
L 174.396693 297.95135 
M 248.186162 249.742283 
L 215.313763 280.003459 
M 269.451657 210.44709 
L 248.186162 249.742283 
M 276.805801 166.376125 
L 269.451657 210.44709 
M 269.451657 122.30516 
L 276.805801 166.376125 
M 248.186162 83.009967 
L 269.451657 122.30516 
M 215.313763 52.748791 
L 248.186162 83.009967 
M 174.396693 34.8009 
L 215.313763 52.748791 
M 129.868951 31.111226 
L 174.396693 34.8009 
M 86.555811 42.079603 
L 129.868951 31.111226 
M 49.150922 66.517437 
L 86.555811 42.079603 
M 21.707685 101.776509 
L 7.2 144.035951 
M 21.707685 101.776509 
L 49.150922 66.517437 
M 179.469635 253.901787 
L 174.396693 297.95135 
M 179.469635 253.901787 
L 215.313763 280.003459 
M 179.469635 253.901787 
L 192.04561 211.381866 
M 100.159219 153.133919 
L 141.077321 166.376125 
M 100.159219 153.133919 
L 76.002618 188.716299 
M 100.159219 153.133919 
L 103.445855 108.77688 
M 100.159219 153.133919 
L 59.735556 138.451462 
M 116.657403 69.944053 
L 129.868951 31.111226 
M 116.657403 69.944053 
L 86.555811 42.079603 
M 116.657403 69.944053 
L 103.445855 108.77688 
M 208.45059 93.189245 
L 248.186162 83.009967 
M 208.45059 93.189245 
L 215.313763 52.748791 
M 208.45059 93.189245 
L 201.587417 133.629698 
M 192.056244 171.921598 
L 201.587417 133.629698 
M 192.056244 171.921598 
L 192.04561 211.381866 
M 192.056244 171.921598 
L 230.390758 181.279902 
M 161.567078 131.958234 
L 141.077321 166.376125 
M 161.567078 131.958234 
L 201.587417 133.629698 
M 41.601309 172.084844 
L 7.2 144.035951 
M 41.601309 172.084844 
L 7.2 188.716299 
M 41.601309 172.084844 
L 76.002618 188.716299 
M 58.266505 101.92188 
L 49.150922 66.517437 
M 58.266505 101.92188 
L 21.707685 101.776509 
M 58.266505 101.92188 
L 59.735556 138.451462 
M 245.604729 148.933586 
L 276.805801 166.376125 
M 245.604729 148.933586 
L 269.451657 122.30516 
M 245.604729 148.933586 
L 230.390758 181.279902 
M 228.480535 218.320393 
L 248.186162 249.742283 
M 228.480535 218.320393 
L 269.451657 210.44709 
M 228.480535 218.320393 
L 192.04561 211.381866 
M 105.262098 260.67814 
L 86.555811 290.672647 
M 105.262098 260.67814 
L 127.702473 233.364679 
M 149.896928 272.812956 
L 129.868951 301.641024 
M 149.896928 272.812956 
L 174.396693 297.95135 
M 149.896928 272.812956 
L 179.469635 253.901787 
M 52.73522 214.831132 
L 21.707685 230.975741 
M 52.73522 214.831132 
L 76.002618 188.716299 
M 52.73522 214.831132 
L 81.883558 234.163248 
M 52.73522 214.831132 
L 41.601309 172.084844 
M 111.793488 187.023388 
L 141.077321 166.376125 
M 111.793488 187.023388 
L 76.002618 188.716299 
M 111.793488 187.023388 
L 100.159219 153.133919 
M 144.145797 201.818252 
L 141.077321 166.376125 
M 144.145797 201.818252 
L 127.702473 233.364679 
M 144.145797 201.818252 
L 111.793488 187.023388 
M 149.255575 59.370669 
L 174.396693 34.8009 
M 149.255575 59.370669 
L 129.868951 31.111226 
M 149.255575 59.370669 
L 159.927979 91.936556 
M 149.255575 59.370669 
L 116.657403 69.944053 
M 184.813728 68.375216 
L 215.313763 52.748791 
M 184.813728 68.375216 
L 174.396693 34.8009 
M 184.813728 68.375216 
L 159.927979 91.936556 
M 184.813728 68.375216 
L 208.45059 93.189245 
M 184.813728 68.375216 
L 149.255575 59.370669 
M 235.194225 115.618321 
L 269.451657 122.30516 
M 235.194225 115.618321 
L 248.186162 83.009967 
M 235.194225 115.618321 
L 201.587417 133.629698 
M 235.194225 115.618321 
L 208.45059 93.189245 
M 235.194225 115.618321 
L 245.604729 148.933586 
M 82.468433 76.814893 
L 86.555811 42.079603 
M 82.468433 76.814893 
L 49.150922 66.517437 
M 82.468433 76.814893 
L 103.445855 108.77688 
M 82.468433 76.814893 
L 116.657403 69.944053 
M 82.468433 76.814893 
L 58.266505 101.92188 
M 128.451173 135.551535 
L 141.077321 166.376125 
M 128.451173 135.551535 
L 103.445855 108.77688 
M 128.451173 135.551535 
L 100.159219 153.133919 
M 128.451173 135.551535 
L 161.567078 131.958234 
M 216.159571 247.937191 
L 215.313763 280.003459 
M 216.159571 247.937191 
L 248.186162 249.742283 
M 216.159571 247.937191 
L 192.04561 211.381866 
M 216.159571 247.937191 
L 179.469635 253.901787 
M 216.159571 247.937191 
L 228.480535 218.320393 
M 164.170981 226.257218 
L 127.702473 233.364679 
M 164.170981 226.257218 
L 192.04561 211.381866 
M 164.170981 226.257218 
L 179.469635 253.901787 
M 164.170981 226.257218 
L 144.145797 201.818252 
M 130.480592 96.310726 
L 103.445855 108.77688 
M 130.480592 96.310726 
L 159.927979 91.936556 
M 130.480592 96.310726 
L 116.657403 69.944053 
M 130.480592 96.310726 
L 149.255575 59.370669 
M 130.480592 96.310726 
L 128.451173 135.551535 
M 182.485094 111.057128 
L 201.587417 133.629698 
M 182.485094 111.057128 
L 159.927979 91.936556 
M 182.485094 111.057128 
L 208.45059 93.189245 
M 182.485094 111.057128 
L 161.567078 131.958234 
M 182.485094 111.057128 
L 184.813728 68.375216 
M 171.081395 191.646081 
L 141.077321 166.376125 
M 171.081395 191.646081 
L 192.04561 211.381866 
M 171.081395 191.646081 
L 192.056244 171.921598 
M 171.081395 191.646081 
L 144.145797 201.818252 
M 171.081395 191.646081 
L 164.170981 226.257218 
M 67.853367 278.45373 
L 49.150922 266.234813 
M 67.853367 278.45373 
L 86.555811 290.672647 
M 104.473611 215.437731 
L 127.702473 233.364679 
M 104.473611 215.437731 
L 81.883558 234.163248 
M 104.473611 215.437731 
L 111.793488 187.023388 
M 104.473611 215.437731 
L 144.145797 201.818252 
M 218.500898 155.936474 
L 201.587417 133.629698 
M 218.500898 155.936474 
L 230.390758 181.279902 
M 218.500898 155.936474 
L 192.056244 171.921598 
M 218.500898 155.936474 
L 245.604729 148.933586 
M 218.500898 155.936474 
L 235.194225 115.618321 
M 78.725293 119.393452 
L 103.445855 108.77688 
M 78.725293 119.393452 
L 59.735556 138.451462 
M 78.725293 119.393452 
L 100.159219 153.133919 
M 78.725293 119.393452 
L 58.266505 101.92188 
M 78.725293 119.393452 
L 82.468433 76.814893 
M 39.911126 120.954379 
L 7.2 144.035951 
M 39.911126 120.954379 
L 21.707685 101.776509 
M 39.911126 120.954379 
L 59.735556 138.451462 
M 39.911126 120.954379 
L 58.266505 101.92188 
M 66.758264 163.943373 
L 76.002618 188.716299 
M 66.758264 163.943373 
L 59.735556 138.451462 
M 66.758264 163.943373 
L 100.159219 153.133919 
M 66.758264 163.943373 
L 41.601309 172.084844 
M 14.453843 209.84602 
L 7.2 188.716299 
M 14.453843 209.84602 
L 21.707685 230.975741 
M 14.453843 209.84602 
L 52.73522 214.831132 
M 56.420626 240.914914 
L 21.707685 230.975741 
M 56.420626 240.914914 
L 49.150922 266.234813 
M 56.420626 240.914914 
L 81.883558 234.163248 
M 56.420626 240.914914 
L 52.73522 214.831132 
M 167.681003 158.90595 
L 141.077321 166.376125 
M 167.681003 158.90595 
L 201.587417 133.629698 
M 167.681003 158.90595 
L 192.056244 171.921598 
M 167.681003 158.90595 
L 161.567078 131.958234 
M 167.681003 158.90595 
L 171.081395 191.646081 
M 34.807332 146.71626 
L 7.2 144.035951 
M 34.807332 146.71626 
L 59.735556 138.451462 
M 34.807332 146.71626 
L 41.601309 172.084844 
M 34.807332 146.71626 
L 39.911126 120.954379 
M 34.807332 146.71626 
L 66.758264 163.943373 
M 213.287911 198.967389 
L 192.04561 211.381866 
M 213.287911 198.967389 
L 230.390758 181.279902 
M 213.287911 198.967389 
L 192.056244 171.921598 
M 213.287911 198.967389 
L 228.480535 218.320393 
M 253.074969 172.198261 
L 276.805801 166.376125 
M 253.074969 172.198261 
L 230.390758 181.279902 
M 253.074969 172.198261 
L 245.604729 148.933586 
M 249.574972 196.327177 
L 269.451657 210.44709 
M 249.574972 196.327177 
L 276.805801 166.376125 
M 249.574972 196.327177 
L 230.390758 181.279902 
M 249.574972 196.327177 
L 228.480535 218.320393 
M 249.574972 196.327177 
L 213.287911 198.967389 
M 249.574972 196.327177 
L 253.074969 172.198261 
M 155.55404 249.081343 
L 127.702473 233.364679 
M 155.55404 249.081343 
L 179.469635 253.901787 
M 155.55404 249.081343 
L 149.896928 272.812956 
M 155.55404 249.081343 
L 164.170981 226.257218 
M 124.850536 276.783396 
L 86.555811 290.672647 
M 124.850536 276.783396 
L 129.868951 301.641024 
M 124.850536 276.783396 
L 127.702473 233.364679 
M 124.850536 276.783396 
L 105.262098 260.67814 
M 124.850536 276.783396 
L 149.896928 272.812956 
M 124.850536 276.783396 
L 155.55404 249.081343 
M 147.929837 112.472347 
L 159.927979 91.936556 
M 147.929837 112.472347 
L 161.567078 131.958234 
M 147.929837 112.472347 
L 128.451173 135.551535 
M 147.929837 112.472347 
L 130.480592 96.310726 
M 147.929837 112.472347 
L 182.485094 111.057128 
M 30.297088 192.597042 
L 7.2 188.716299 
M 30.297088 192.597042 
L 41.601309 172.084844 
M 30.297088 192.597042 
L 52.73522 214.831132 
M 30.297088 192.597042 
L 14.453843 209.84602 
M 81.213193 258.318352 
L 49.150922 266.234813 
M 81.213193 258.318352 
L 86.555811 290.672647 
M 81.213193 258.318352 
L 81.883558 234.163248 
M 81.213193 258.318352 
L 105.262098 260.67814 
M 81.213193 258.318352 
L 67.853367 278.45373 
M 81.213193 258.318352 
L 56.420626 240.914914 
M 81.797355 211.070425 
L 76.002618 188.716299 
M 81.797355 211.070425 
L 81.883558 234.163248 
M 81.797355 211.070425 
L 52.73522 214.831132 
M 81.797355 211.070425 
L 111.793488 187.023388 
M 81.797355 211.070425 
L 104.473611 215.437731 
M 105.557696 238.045912 
L 127.702473 233.364679 
M 105.557696 238.045912 
L 81.883558 234.163248 
M 105.557696 238.045912 
L 105.262098 260.67814 
M 105.557696 238.045912 
L 104.473611 215.437731 
M 105.557696 238.045912 
L 81.213193 258.318352 
L 81.213193 258.318352 
" style="fill:none;stroke:#ffffff;stroke-linecap:square;stroke-opacity:0.25;stroke-width:2.5;"/>
   </g>
   <g id="line2d_2"/>
   <g id="text_1">
    <!-- $\mathbb{E}[\bm{\mathsf{u}}]$ -->
    <defs>
     <path d="M 25.90625 34 
C 28.40625 34 33.203125 34 36.703125 31.96875 
C 41.5 28.953125 41.90625 23.703125 41.90625 23.125 
C 42 21.765625 42 20.5 43.703125 20.5 
C 45.40625 20.5 45.40625 21.890625 45.40625 23.703125 
L 45.40625 50.796875 
C 45.40625 52.390625 45.40625 54 43.703125 54 
C 42 54 41.90625 52.421875 41.90625 51.578125 
C 41.296875 38 31.09375 38 25.90625 38 
L 25.90625 58.9375 
C 25.90625 65.59375 27.796875 65.59375 30.203125 65.59375 
L 35 65.59375 
C 48.5 65.59375 55.203125 58.734375 55.796875 51.875 
C 55.90625 51.078125 56 49.59375 57.59375 49.59375 
C 59.296875 49.59375 59.296875 51.1875 59.296875 52.890625 
L 59.296875 65.90625 
C 59.296875 69 59.09375 69 56 69 
L 4.796875 69 
C 3 69 1.40625 69 1.40625 67.25 
C 1.40625 65.59375 3.296875 65.59375 4.09375 65.59375 
C 9.796875 65.59375 10.203125 64.796875 10.203125 59.875 
L 10.203125 9.71875 
C 10.203125 5 9.90625 4 4.59375 4 
C 3.09375 4 1.40625 4 1.40625 2.296875 
C 1.40625 0.5 3 0.5 4.796875 0.5 
L 57.796875 0.5 
C 59.703125 0.5 60.703125 0.5 61 1.921875 
C 61.09375 2.015625 63.90625 18.953125 63.90625 19.453125 
C 63.90625 20.5625 63 21.28125 62.203125 21.28125 
C 60.796875 21.28125 60.40625 19.96875 60.40625 19.859375 
C 59.796875 17.21875 58.796875 12.9375 51.5 8.578125 
C 46.296875 5.421875 41.203125 4 35.703125 4 
L 30.203125 4 
C 27.796875 4 25.90625 4 25.90625 10.6875 
z
M 55.796875 65.59375 
L 55.796875 60.875 
C 54.09375 62.734375 52.203125 64.3125 50.09375 65.59375 
z
M 36.296875 36.171875 
C 37.90625 36.875 40.09375 38.375 41.90625 40.46875 
L 41.90625 32.0625 
C 39.5 34.765625 36.40625 36.0625 36.296875 36.0625 
z
M 13.703125 60.078125 
C 13.703125 61.296875 13.703125 63.796875 12.90625 65.59375 
L 23.5 65.59375 
C 22.40625 63.296875 22.40625 59.984375 22.40625 59.078125 
L 22.40625 10.515625 
C 22.40625 6.90625 23.09375 4.90625 23.5 4 
L 12.90625 4 
C 13.703125 5.796875 13.703125 8.296875 13.703125 9.515625 
z
M 50.90625 4 
L 50.90625 4.09375 
C 54.09375 5.734375 56.796875 7.875 58.796875 9.703125 
C 58.703125 9.3125 58 4.8125 57.90625 4 
z
" id="MSBM10-69"/>
     <path d="M 23.5 -25 
L 23.5 -21.515625 
L 14.09375 -21.515625 
L 14.09375 71 
L 23.5 71 
L 23.5 74.484375 
L 10.59375 74.484375 
L 10.59375 -25 
z
" id="CMR17-91"/>
     <path d="M 50 41.4375 
C 50 44.671875 49.296875 46.28125 45.203125 46.28125 
L 41.203125 46.28125 
C 37.40625 46.28125 36.40625 44.96875 36.40625 41.453125 
L 36.40625 17.5625 
C 36.40625 10.90625 32.90625 5.15625 25.796875 5.15625 
C 20.203125 5.15625 19.59375 6.578125 19.59375 11.921875 
L 19.59375 41.453125 
C 19.59375 44.671875 18.90625 46.28125 14.796875 46.28125 
L 10.796875 46.28125 
C 7.203125 46.28125 6 45.171875 6 41.453125 
L 6 12.8125 
C 6 2.03125 11.796875 -1 22.203125 -1 
C 24.90625 -1 32 -1 36.703125 7.578125 
L 36.703125 4.90625 
C 36.703125 1.625 37.40625 0 41.5 0 
L 45.203125 0 
C 49 0 50 1.3125 50 4.84375 
z
" id="CMSSBX10-117"/>
     <path d="M 14.296875 74.484375 
L 1.40625 74.484375 
L 1.40625 71 
L 10.796875 71 
L 10.796875 -21.515625 
L 1.40625 -21.515625 
L 1.40625 -25 
L 14.296875 -25 
z
" id="CMR17-93"/>
    </defs>
    <g transform="translate(121.355497 25.111226)scale(0.24 -0.24)">
     <use transform="scale(0.996264)" xlink:href="#MSBM10-69"/>
     <use transform="translate(66.417819 0)scale(0.996264)" xlink:href="#CMR17-91"/>
     <use transform="translate(91.288877 0)scale(0.996264)" xlink:href="#CMSSBX10-117"/>
     <use transform="translate(147.190665 0)scale(0.996264)" xlink:href="#CMR17-93"/>
    </g>
   </g>
  </g>
  <g id="axes_2">
   <g id="PathCollection_9">
    <path clip-path="url(#p176ca8a748)" d="M 396.830838 52.642093 
L 397.707119 55.050192 
L 398.628671 55.804281 
L 404.384937 64.526366 
L 399.068019 54.701563 
M 292.498526 73.790289 
L 297.412471 64.590035 
L 299.181923 63.243972 
L 298.042037 60.766561 
L 296.123257 63.231809 
" style="fill:#440154;"/>
   </g>
   <g id="PathCollection_10">
    <path clip-path="url(#p176ca8a748)" d="M 404.384937 64.526366 
L 398.628671 55.804281 
L 397.707119 55.050192 
L 396.830838 52.642093 
L 385.929667 42.606858 
L 391.075826 56.748967 
L 396.487844 61.177523 
L 403.302102 71.502711 
L 403.907274 77.952899 
L 405.250975 88.779304 
L 404.748998 94.393114 
L 404.046606 101.427802 
L 405.263366 110.161965 
L 403.348821 113.662412 
L 394.206862 122.737551 
L 392.69319 130.129679 
L 391.734326 137.24012 
L 399.068019 130.488979 
L 408.734153 112.627528 
L 412.076946 92.595271 
L 408.734153 72.563014 
M 321.356621 38.86898 
L 325.022932 40.998147 
L 328.164699 38.471242 
L 339.059419 32.688383 
L 325.599678 36.096852 
M 298.042037 60.766561 
L 299.181923 63.243972 
L 297.412471 64.590035 
L 292.498526 73.790289 
L 289.528855 82.440647 
L 289.528855 95.019135 
L 295.55089 87.350676 
L 295.460082 83.016491 
L 295.914541 77.934789 
L 301.014973 68.385379 
L 307.728873 63.277958 
L 303.403759 53.87782 
" style="fill:#482173;"/>
   </g>
   <g id="PathCollection_11">
    <path clip-path="url(#p176ca8a748)" d="M 346.517986 153.977352 
L 347.349824 151.110784 
L 344.782581 151.578462 
L 333.119262 146.366385 
L 327.99625 145.250917 
L 324.945289 145.130782 
L 322.685553 147.189797 
L 325.599678 149.09369 
L 345.287469 154.079316 
M 391.734326 137.24012 
L 392.69319 130.129679 
L 394.206862 122.737551 
L 403.348821 113.662412 
L 405.263366 110.161965 
L 404.046606 101.427802 
L 404.748998 94.393114 
L 405.250975 88.779304 
L 403.907274 77.952899 
L 403.302102 71.502711 
L 396.487844 61.177523 
L 391.075826 56.748967 
L 385.929667 42.606858 
L 384.12602 40.946483 
L 379.670893 38.992283 
L 377.95577 44.107757 
L 382.201825 52.284578 
L 384.444533 58.447741 
L 394.347018 66.550765 
L 396.774195 70.228504 
L 398.106627 84.430131 
L 398.154002 84.811837 
L 398.107649 85.33022 
L 394.743572 97.862646 
L 394.430484 102.076755 
L 396.150035 106.467627 
L 389.396873 115.296724 
L 388.495509 115.89867 
L 387.409077 122.70091 
L 385.965547 129.750494 
L 384.153976 143.184176 
L 383.994901 144.148579 
L 384.036028 144.283533 
L 384.12602 144.244059 
M 339.059419 32.688383 
L 328.164699 38.471242 
L 325.022932 40.998147 
L 321.356621 38.86898 
L 308.597456 47.204958 
L 303.403759 53.87782 
L 307.728873 63.277958 
L 301.014973 68.385379 
L 295.914541 77.934789 
L 295.460082 83.016491 
L 295.55089 87.350676 
L 289.528855 95.019135 
L 289.528855 102.749896 
L 292.826056 112.354314 
L 294.752923 117.967087 
L 296.332119 112.810884 
L 301.595809 106.067887 
L 303.833028 97.608564 
L 302.270807 96.589746 
L 304.070946 94.29745 
L 303.998312 90.830715 
L 303.748874 84.560054 
L 304.752378 82.772177 
L 305.135739 72.600552 
L 312.992482 69.553695 
L 317.740928 67.567852 
L 322.985689 60.486213 
L 326.031464 55.374271 
L 330.23622 50.580455 
L 336.127432 45.842187 
L 341.18998 43.155013 
L 348.770274 36.188032 
L 350.207848 31.518941 
L 345.287469 31.111226 
" style="fill:#375a8c;"/>
   </g>
   <g id="PathCollection_12">
    <path clip-path="url(#p176ca8a748)" d="M 322.685553 147.189797 
L 324.945289 145.130782 
L 327.99625 145.250917 
L 333.119262 146.366385 
L 344.782581 151.578462 
L 347.349824 151.110784 
L 346.517986 153.977352 
L 351.967466 153.525796 
L 355.329831 141.938855 
L 356.724389 139.483552 
L 355.689234 135.529947 
L 349.675358 136.763341 
L 343.646397 133.03646 
L 340.548926 140.759928 
L 331.962998 138.890455 
L 323.86216 138.571476 
L 317.862165 144.038521 
M 384.036028 144.283533 
L 383.994901 144.148579 
L 384.153976 143.184176 
L 385.965547 129.750494 
L 387.409077 122.70091 
L 388.495509 115.89867 
L 389.396873 115.296724 
L 396.150035 106.467627 
L 394.430484 102.076755 
L 394.743572 97.862646 
L 398.107649 85.33022 
L 398.154002 84.811837 
L 398.106627 84.430131 
L 396.774195 70.228504 
L 394.347018 66.550765 
L 384.444533 58.447741 
L 382.201825 52.284578 
L 377.95577 44.107757 
L 379.670893 38.992283 
L 374.332506 36.65065 
L 370.562224 47.895775 
L 371.096983 48.925585 
L 374.364911 63.898775 
L 377.502134 77.256018 
L 377.411405 77.690678 
L 377.192129 78.228367 
L 377.824428 77.961002 
L 382.899814 89.466887 
L 384.600239 97.81247 
L 387.260531 103.215502 
L 388.745121 107.006401 
L 385.855006 110.784944 
L 380.482603 114.372723 
L 379.30095 121.771149 
L 377.536987 130.802147 
L 376.264114 138.519024 
L 378.730082 146.610937 
M 350.207848 31.518941 
L 348.770274 36.188032 
L 341.18998 43.155013 
L 336.127432 45.842187 
L 330.23622 50.580455 
L 326.031464 55.374271 
L 322.985689 60.486213 
L 317.740928 67.567852 
L 312.992482 69.553695 
L 305.135739 72.600552 
L 304.752378 82.772177 
L 303.748874 84.560054 
L 303.998312 90.830715 
L 304.070946 94.29745 
L 302.270807 96.589746 
L 303.833028 97.608564 
L 301.595809 106.067887 
L 296.332119 112.810884 
L 294.752923 117.967087 
L 296.123257 121.958733 
L 298.708296 125.279991 
L 301.652507 123.541894 
L 301.55061 119.13471 
L 303.212981 113.70693 
L 305.869988 110.303199 
L 307.498435 104.14575 
L 313.124174 99.037646 
L 311.821855 93.036068 
L 311.654242 88.822423 
L 314.47941 83.789011 
L 318.193949 81.640331 
L 326.113581 77.651433 
L 333.127233 68.43469 
L 334.433481 67.65214 
L 345.372186 64.485043 
L 347.817096 62.832819 
L 356.751985 62.522319 
L 364.237986 63.24091 
L 369.217265 49.038886 
L 356.191625 50.340143 
L 349.288883 53.421527 
L 349.158359 45.559135 
L 352.863137 42.154106 
L 355.990094 31.998071 
" style="fill:#23888e;"/>
   </g>
   <g id="PathCollection_13">
    <path clip-path="url(#p176ca8a748)" d="M 317.862165 144.038521 
L 323.86216 138.571476 
L 331.962998 138.890455 
L 340.548926 140.759928 
L 343.646397 133.03646 
L 349.675358 136.763341 
L 355.689234 135.529947 
L 356.724389 139.483552 
L 355.329831 141.938855 
L 351.967466 153.525796 
L 357.416946 153.074239 
L 359.428035 146.143886 
L 366.910766 132.969563 
L 366.696316 132.150505 
L 359.913417 122.372333 
L 356.845699 120.600071 
L 357.503135 115.693638 
L 363.645477 105.959422 
L 369.154852 115.397685 
L 370.13063 124.612068 
L 368.639025 132.248667 
L 368.533327 132.88947 
L 373.424136 148.938341 
L 378.730082 146.610937 
L 376.264114 138.519024 
L 377.536987 130.802147 
L 379.30095 121.771149 
L 380.482603 114.372723 
L 385.855006 110.784944 
L 388.745121 107.006401 
L 387.260531 103.215502 
L 384.600239 97.81247 
L 382.899814 89.466887 
L 377.824428 77.961002 
L 377.192129 78.228367 
L 377.411405 77.690678 
L 377.502134 77.256018 
L 374.364911 63.898775 
L 371.096983 48.925585 
L 370.562224 47.895775 
L 374.332506 36.65065 
L 368.994118 34.309016 
L 367.438618 38.948403 
L 360.019154 38.17137 
L 361.772341 32.477202 
L 355.990094 31.998071 
L 352.863137 42.154106 
L 349.158359 45.559135 
L 349.288883 53.421527 
L 356.191625 50.340143 
L 369.217265 49.038886 
L 364.237986 63.24091 
L 356.751985 62.522319 
L 347.817096 62.832819 
L 345.372186 64.485043 
L 334.433481 67.65214 
L 333.127233 68.43469 
L 326.113581 77.651433 
L 318.193949 81.640331 
L 314.47941 83.789011 
L 311.654242 88.822423 
L 311.821855 93.036068 
L 313.124174 99.037646 
L 307.498435 104.14575 
L 305.869988 110.303199 
L 303.212981 113.70693 
L 301.55061 119.13471 
L 301.652507 123.541894 
L 298.708296 125.279991 
L 302.762428 130.48874 
L 310.324063 126.024775 
L 310.062359 114.705777 
L 310.093844 114.602976 
L 310.144167 114.53851 
L 310.17501 114.42189 
L 311.370868 113.336064 
L 312.03058 114.386846 
L 313.586222 116.84843 
L 320.72128 124.138013 
L 315.670875 129.12224 
L 320.241807 135.11049 
L 313.961615 141.490164 
L 317.098567 143.539637 
M 334.522546 115.496744 
L 337.621057 124.457062 
L 334.174475 129.951812 
L 328.430886 130.007298 
L 324.815505 123.627297 
L 328.35345 119.364486 
L 330.242361 114.221582 
L 328.456311 108.886819 
L 327.825733 102.417709 
L 333.527407 91.657239 
L 343.740463 97.278173 
L 341.885806 104.182065 
L 336.04048 114.107664 
M 374.229944 92.401994 
L 375.032881 94.222249 
L 375.301892 95.542537 
L 377.678443 100.369295 
L 373.551605 105.561688 
L 365.495395 102.694546 
L 371.016526 93.760781 
" style="fill:#32b67a;"/>
   </g>
   <g id="PathCollection_14">
    <path clip-path="url(#p176ca8a748)" d="M 362.866426 152.622682 
L 363.52624 150.348918 
L 366.332899 145.407428 
L 368.11819 151.265744 
L 373.424136 148.938341 
L 368.533327 132.88947 
L 368.639025 132.248667 
L 370.13063 124.612068 
L 369.154852 115.397685 
L 363.645477 105.959422 
L 357.503135 115.693638 
L 356.845699 120.600071 
L 359.913417 122.372333 
L 366.696316 132.150505 
L 366.910766 132.969563 
L 359.428035 146.143886 
L 357.416946 153.074239 
M 361.772341 32.477202 
L 360.019154 38.17137 
L 367.438618 38.948403 
L 368.994118 34.309016 
L 365.527351 32.788351 
M 306.816559 135.697488 
L 309.751936 133.964607 
L 312.151403 137.108083 
L 310.234639 139.055209 
L 313.961615 141.490164 
L 320.241807 135.11049 
L 315.670875 129.12224 
L 320.72128 124.138013 
L 313.586222 116.84843 
L 312.03058 114.386846 
L 311.370868 113.336064 
L 310.17501 114.42189 
L 310.144167 114.53851 
L 310.093844 114.602976 
L 310.062359 114.705777 
L 310.324063 126.024775 
L 302.762428 130.48874 
M 336.04048 114.107664 
L 341.885806 104.182065 
L 343.740463 97.278173 
L 333.527407 91.657239 
L 327.825733 102.417709 
L 328.456311 108.886819 
L 330.242361 114.221582 
L 328.35345 119.364486 
L 324.815505 123.627297 
L 328.430886 130.007298 
L 334.174475 129.951812 
L 337.621057 124.457062 
L 334.522546 115.496744 
M 371.016526 93.760781 
L 365.495395 102.694546 
L 373.551605 105.561688 
L 377.678443 100.369295 
L 375.301892 95.542537 
L 375.032881 94.222249 
L 374.229944 92.401994 
" style="fill:#98d83e;"/>
   </g>
   <g id="PathCollection_15">
    <path clip-path="url(#p176ca8a748)" d="M 368.11819 151.265744 
L 366.332899 145.407428 
L 363.52624 150.348918 
L 362.866426 152.622682 
L 365.527351 152.402192 
M 310.234639 139.055209 
L 312.151403 137.108083 
L 309.751936 133.964607 
L 306.816559 135.697488 
L 308.597456 137.985584 
" style="fill:#fde725;"/>
   </g>
   <g id="line2d_3">
    <path clip-path="url(#p176ca8a748)" d="M 289.528855 102.749896 
L 289.528855 82.440647 
M 308.597456 137.985584 
L 296.123257 121.958733 
M 345.287469 154.079316 
L 325.599678 149.09369 
M 365.527351 152.402192 
L 345.287469 154.079316 
M 384.12602 144.244059 
L 365.527351 152.402192 
M 399.068019 130.488979 
L 384.12602 144.244059 
M 408.734153 112.627528 
L 399.068019 130.488979 
M 412.076946 92.595271 
L 408.734153 112.627528 
M 408.734153 72.563014 
L 412.076946 92.595271 
M 399.068019 54.701563 
L 408.734153 72.563014 
M 384.12602 40.946483 
L 399.068019 54.701563 
M 365.527351 32.788351 
L 384.12602 40.946483 
M 345.287469 31.111226 
L 365.527351 32.788351 
M 325.599678 36.096852 
L 345.287469 31.111226 
M 308.597456 47.204958 
L 325.599678 36.096852 
M 296.123257 63.231809 
L 289.528855 82.440647 
M 296.123257 63.231809 
L 308.597456 47.204958 
M 367.833234 132.379663 
L 365.527351 152.402192 
M 367.833234 132.379663 
L 384.12602 144.244059 
M 367.833234 132.379663 
L 373.549586 113.052426 
M 331.783045 86.576087 
L 350.382182 92.595271 
M 331.783045 86.576087 
L 320.802772 102.749896 
M 331.783045 86.576087 
L 333.276971 66.413796 
M 331.783045 86.576087 
L 313.408653 79.902243 
M 339.28222 48.762511 
L 345.287469 31.111226 
M 339.28222 48.762511 
L 325.599678 36.096852 
M 339.28222 48.762511 
L 333.276971 66.413796 
M 381.006396 59.328508 
L 399.068019 54.701563 
M 381.006396 59.328508 
L 384.12602 40.946483 
M 381.006396 59.328508 
L 377.886772 77.710532 
M 373.55442 95.115941 
L 377.886772 77.710532 
M 373.55442 95.115941 
L 373.549586 113.052426 
M 373.55442 95.115941 
L 390.979199 99.369715 
M 359.695708 76.950775 
L 350.382182 92.595271 
M 359.695708 76.950775 
L 377.886772 77.710532 
M 305.165813 95.190144 
L 289.528855 82.440647 
M 305.165813 95.190144 
L 289.528855 102.749896 
M 305.165813 95.190144 
L 320.802772 102.749896 
M 312.740902 63.297887 
L 308.597456 47.204958 
M 312.740902 63.297887 
L 296.123257 63.231809 
M 312.740902 63.297887 
L 313.408653 79.902243 
M 397.894641 84.666844 
L 412.076946 92.595271 
M 397.894641 84.666844 
L 408.734153 72.563014 
M 397.894641 84.666844 
L 390.979199 99.369715 
M 390.110916 116.206302 
L 399.068019 130.488979 
M 390.110916 116.206302 
L 408.734153 112.627528 
M 390.110916 116.206302 
L 373.549586 113.052426 
M 334.102536 135.459824 
L 325.599678 149.09369 
M 334.102536 135.459824 
L 344.302706 123.044614 
M 354.391095 140.975649 
L 345.287469 154.079316 
M 354.391095 140.975649 
L 365.527351 152.402192 
M 354.391095 140.975649 
L 367.833234 132.379663 
M 310.226682 114.620274 
L 296.123257 121.958733 
M 310.226682 114.620274 
L 320.802772 102.749896 
M 310.226682 114.620274 
L 323.475927 123.4076 
M 310.226682 114.620274 
L 305.165813 95.190144 
M 337.071349 101.980391 
L 350.382182 92.595271 
M 337.071349 101.980391 
L 320.802772 102.749896 
M 337.071349 101.980391 
L 331.783045 86.576087 
M 351.776944 108.705329 
L 350.382182 92.595271 
M 351.776944 108.705329 
L 344.302706 123.044614 
M 351.776944 108.705329 
L 337.071349 101.980391 
M 354.099571 43.956427 
L 365.527351 32.788351 
M 354.099571 43.956427 
L 345.287469 31.111226 
M 354.099571 43.956427 
L 358.950664 58.759104 
M 354.099571 43.956427 
L 339.28222 48.762511 
M 370.262368 48.049404 
L 384.12602 40.946483 
M 370.262368 48.049404 
L 365.527351 32.788351 
M 370.262368 48.049404 
L 358.950664 58.759104 
M 370.262368 48.049404 
L 381.006396 59.328508 
M 370.262368 48.049404 
L 354.099571 43.956427 
M 393.162593 69.523542 
L 408.734153 72.563014 
M 393.162593 69.523542 
L 399.068019 54.701563 
M 393.162593 69.523542 
L 377.886772 77.710532 
M 393.162593 69.523542 
L 381.006396 59.328508 
M 393.162593 69.523542 
L 397.894641 84.666844 
M 323.741779 51.88562 
L 325.599678 36.096852 
M 323.741779 51.88562 
L 308.597456 47.204958 
M 323.741779 51.88562 
L 333.276971 66.413796 
M 323.741779 51.88562 
L 339.28222 48.762511 
M 323.741779 51.88562 
L 312.740902 63.297887 
M 344.643024 78.584094 
L 350.382182 92.595271 
M 344.643024 78.584094 
L 333.276971 66.413796 
M 344.643024 78.584094 
L 331.783045 86.576087 
M 344.643024 78.584094 
L 359.695708 76.950775 
M 384.510478 129.668483 
L 384.12602 144.244059 
M 384.510478 129.668483 
L 399.068019 130.488979 
M 384.510478 129.668483 
L 373.549586 113.052426 
M 384.510478 129.668483 
L 367.833234 132.379663 
M 384.510478 129.668483 
L 390.110916 116.206302 
M 360.879301 119.81395 
L 344.302706 123.044614 
M 360.879301 119.81395 
L 373.549586 113.052426 
M 360.879301 119.81395 
L 367.833234 132.379663 
M 360.879301 119.81395 
L 351.776944 108.705329 
M 345.565488 60.747363 
L 333.276971 66.413796 
M 345.565488 60.747363 
L 358.950664 58.759104 
M 345.565488 60.747363 
L 339.28222 48.762511 
M 345.565488 60.747363 
L 354.099571 43.956427 
M 345.565488 60.747363 
L 344.643024 78.584094 
M 369.203898 67.450272 
L 377.886772 77.710532 
M 369.203898 67.450272 
L 358.950664 58.759104 
M 369.203898 67.450272 
L 381.006396 59.328508 
M 369.203898 67.450272 
L 359.695708 76.950775 
M 369.203898 67.450272 
L 370.262368 48.049404 
M 364.020398 104.081615 
L 350.382182 92.595271 
M 364.020398 104.081615 
L 373.549586 113.052426 
M 364.020398 104.081615 
L 373.55442 95.115941 
M 364.020398 104.081615 
L 351.776944 108.705329 
M 364.020398 104.081615 
L 360.879301 119.81395 
M 317.098567 143.539637 
L 308.597456 137.985584 
M 317.098567 143.539637 
L 325.599678 149.09369 
M 333.744132 114.896001 
L 344.302706 123.044614 
M 333.744132 114.896001 
L 323.475927 123.4076 
M 333.744132 114.896001 
L 337.071349 101.980391 
M 333.744132 114.896001 
L 351.776944 108.705329 
M 385.574717 87.849976 
L 377.886772 77.710532 
M 385.574717 87.849976 
L 390.979199 99.369715 
M 385.574717 87.849976 
L 373.55442 95.115941 
M 385.574717 87.849976 
L 397.894641 84.666844 
M 385.574717 87.849976 
L 393.162593 69.523542 
M 322.040351 71.239511 
L 333.276971 66.413796 
M 322.040351 71.239511 
L 313.408653 79.902243 
M 322.040351 71.239511 
L 331.783045 86.576087 
M 322.040351 71.239511 
L 312.740902 63.297887 
M 322.040351 71.239511 
L 323.741779 51.88562 
M 304.397548 71.949023 
L 289.528855 82.440647 
M 304.397548 71.949023 
L 296.123257 63.231809 
M 304.397548 71.949023 
L 313.408653 79.902243 
M 304.397548 71.949023 
L 312.740902 63.297887 
M 316.600793 91.489475 
L 320.802772 102.749896 
M 316.600793 91.489475 
L 313.408653 79.902243 
M 316.600793 91.489475 
L 331.783045 86.576087 
M 316.600793 91.489475 
L 305.165813 95.190144 
M 292.826056 112.354314 
L 289.528855 102.749896 
M 292.826056 112.354314 
L 296.123257 121.958733 
M 292.826056 112.354314 
L 310.226682 114.620274 
M 311.901867 126.476539 
L 296.123257 121.958733 
M 311.901867 126.476539 
L 308.597456 137.985584 
M 311.901867 126.476539 
L 323.475927 123.4076 
M 311.901867 126.476539 
L 310.226682 114.620274 
M 362.474765 89.199737 
L 350.382182 92.595271 
M 362.474765 89.199737 
L 377.886772 77.710532 
M 362.474765 89.199737 
L 373.55442 95.115941 
M 362.474765 89.199737 
L 359.695708 76.950775 
M 362.474765 89.199737 
L 364.020398 104.081615 
M 302.077642 83.658969 
L 289.528855 82.440647 
M 302.077642 83.658969 
L 313.408653 79.902243 
M 302.077642 83.658969 
L 305.165813 95.190144 
M 302.077642 83.658969 
L 304.397548 71.949023 
M 302.077642 83.658969 
L 316.600793 91.489475 
M 383.205178 107.409482 
L 373.549586 113.052426 
M 383.205178 107.409482 
L 390.979199 99.369715 
M 383.205178 107.409482 
L 373.55442 95.115941 
M 383.205178 107.409482 
L 390.110916 116.206302 
M 401.290204 95.241697 
L 412.076946 92.595271 
M 401.290204 95.241697 
L 390.979199 99.369715 
M 401.290204 95.241697 
L 397.894641 84.666844 
M 399.699297 106.209386 
L 408.734153 112.627528 
M 399.699297 106.209386 
L 412.076946 92.595271 
M 399.699297 106.209386 
L 390.979199 99.369715 
M 399.699297 106.209386 
L 390.110916 116.206302 
M 399.699297 106.209386 
L 383.205178 107.409482 
M 399.699297 106.209386 
L 401.290204 95.241697 
M 356.962509 130.188552 
L 344.302706 123.044614 
M 356.962509 130.188552 
L 367.833234 132.379663 
M 356.962509 130.188552 
L 354.391095 140.975649 
M 356.962509 130.188552 
L 360.879301 119.81395 
M 343.006371 142.780394 
L 325.599678 149.09369 
M 343.006371 142.780394 
L 345.287469 154.079316 
M 343.006371 142.780394 
L 344.302706 123.044614 
M 343.006371 142.780394 
L 334.102536 135.459824 
M 343.006371 142.780394 
L 354.391095 140.975649 
M 343.006371 142.780394 
L 356.962509 130.188552 
M 353.496962 68.093554 
L 358.950664 58.759104 
M 353.496962 68.093554 
L 359.695708 76.950775 
M 353.496962 68.093554 
L 344.643024 78.584094 
M 353.496962 68.093554 
L 345.565488 60.747363 
M 353.496962 68.093554 
L 369.203898 67.450272 
M 300.027531 104.51387 
L 289.528855 102.749896 
M 300.027531 104.51387 
L 305.165813 95.190144 
M 300.027531 104.51387 
L 310.226682 114.620274 
M 300.027531 104.51387 
L 292.826056 112.354314 
M 323.171215 134.387193 
L 308.597456 137.985584 
M 323.171215 134.387193 
L 325.599678 149.09369 
M 323.171215 134.387193 
L 323.475927 123.4076 
M 323.171215 134.387193 
L 334.102536 135.459824 
M 323.171215 134.387193 
L 317.098567 143.539637 
M 323.171215 134.387193 
L 311.901867 126.476539 
M 323.436743 112.910862 
L 320.802772 102.749896 
M 323.436743 112.910862 
L 323.475927 123.4076 
M 323.436743 112.910862 
L 310.226682 114.620274 
M 323.436743 112.910862 
L 337.071349 101.980391 
M 323.436743 112.910862 
L 333.744132 114.896001 
M 334.236898 125.172447 
L 344.302706 123.044614 
M 334.236898 125.172447 
L 323.475927 123.4076 
M 334.236898 125.172447 
L 334.102536 135.459824 
M 334.236898 125.172447 
L 333.744132 114.896001 
M 334.236898 125.172447 
L 323.171215 134.387193 
L 323.171215 134.387193 
" style="fill:none;stroke:#ffffff;stroke-linecap:square;stroke-opacity:0.25;stroke-width:1.25;"/>
   </g>
   <g id="line2d_4"/>
   <g id="text_2">
    <!-- $\bm{\mathsf{u}}_1$ -->
    <defs>
     <path d="M 26.59375 63.40625 
C 26.59375 65.5 26.5 65.5 25.09375 65.5 
C 21.203125 61.1875 15.296875 59.796875 9.703125 59.796875 
C 9.40625 59.796875 8.90625 59.796875 8.796875 59.5 
C 8.703125 59.296875 8.703125 59.09375 8.703125 57 
C 11.796875 57 17 57.59375 21 59.984375 
L 21 7.203125 
C 21 3.6875 20.796875 2.5 12.203125 2.5 
L 9.203125 2.5 
L 9.203125 0 
C 14 0 19 0 23.796875 0 
C 28.59375 0 33.59375 0 38.40625 0 
L 38.40625 2.5 
L 35.40625 2.5 
C 26.796875 2.5 26.59375 3.59375 26.59375 7.15625 
z
" id="CMR17-49"/>
    </defs>
    <g transform="translate(339.997618 31.259631)scale(0.24 -0.24)">
     <use transform="translate(0 14.943915)scale(0.996264)" xlink:href="#CMSSBX10-117"/>
     <use transform="translate(55.901788 0)scale(0.697382)" xlink:href="#CMR17-49"/>
    </g>
   </g>
  </g>
  <g id="axes_3">
   <g id="PathCollection_16">
    <path clip-path="url(#pc9830ed3ee)" d="M 396.93186 200.296797 
L 397.744631 202.60229 
L 398.697321 203.193684 
L 404.492011 219.296682 
L 405.369885 223.881397 
L 410.839226 232.739729 
L 408.734153 220.124722 
L 399.068019 202.263271 
M 294.259942 216.221168 
L 297.887271 212.651958 
L 300.286538 210.810072 
L 298.92371 207.195495 
L 296.123257 210.793517 
" style="fill:#440154;"/>
   </g>
   <g id="PathCollection_17">
    <path clip-path="url(#pc9830ed3ee)" d="M 347.747558 301.437175 
L 346.680905 299.635325 
L 344.797453 299.213834 
L 326.032583 296.765024 
L 345.287469 301.641024 
M 410.839226 232.739729 
L 405.369885 223.881397 
L 404.492011 219.296682 
L 398.697321 203.193684 
L 397.744631 202.60229 
L 396.93186 200.296797 
L 384.12602 188.508191 
L 382.417977 187.758974 
L 381.970239 189.612686 
L 382.524221 197.946605 
L 385.290289 205.792787 
L 395.208694 211.949758 
L 397.350899 217.902781 
L 399.706564 230.205286 
L 402.569287 234.84185 
L 402.455986 242.517391 
L 405.996461 246.844874 
L 404.694169 257.319329 
L 402.650415 261.35833 
L 396.158114 273.410655 
L 395.731445 277.86263 
L 394.766701 282.010329 
L 399.068019 278.050687 
L 408.734153 260.189236 
L 412.076946 240.156979 
M 324.924063 184.099961 
L 325.540973 184.157443 
L 325.853048 183.8931 
L 326.584833 183.409085 
L 325.599678 183.65856 
M 298.92371 207.195495 
L 300.286538 210.810072 
L 297.887271 212.651958 
L 294.259942 216.221168 
L 290.552405 227.020856 
L 301.397224 216.349799 
L 308.57044 210.843011 
L 304.495921 200.036318 
" style="fill:#482173;"/>
   </g>
   <g id="PathCollection_18">
    <path clip-path="url(#pc9830ed3ee)" d="M 326.032583 296.765024 
L 344.797453 299.213834 
L 346.680905 299.635325 
L 347.747558 301.437175 
L 351.851985 301.097072 
L 349.005723 296.289007 
L 343.979906 295.164297 
L 333.486474 293.794907 
L 329.119578 291.011431 
L 324.862038 292.188334 
L 320.946789 293.615513 
L 325.599678 296.655398 
M 394.766701 282.010329 
L 395.731445 277.86263 
L 396.158114 273.410655 
L 402.650415 261.35833 
L 404.694169 257.319329 
L 405.996461 246.844874 
L 402.455986 242.517391 
L 402.569287 234.84185 
L 399.706564 230.205286 
L 397.350899 217.902781 
L 395.208694 211.949758 
L 385.290289 205.792787 
L 382.524221 197.946605 
L 381.970239 189.612686 
L 382.417977 187.758974 
L 377.712597 185.695003 
L 376.031414 192.655391 
L 376.675416 202.343543 
L 376.811101 209.777163 
L 379.690179 214.64587 
L 388.349514 219.664792 
L 388.324063 228.771393 
L 388.738195 234.594327 
L 393.105845 242.409976 
L 393.525059 245.912186 
L 395.172051 250.220115 
L 397.006831 253.966994 
L 392.744469 261.022248 
L 391.489113 263.503166 
L 390.775554 264.827818 
L 389.559659 277.514774 
L 386.810394 289.334626 
M 326.584833 183.409085 
L 325.853048 183.8931 
L 325.540973 184.157443 
L 324.924063 184.099961 
L 308.597456 194.766666 
L 304.495921 200.036318 
L 308.57044 210.843011 
L 301.397224 216.349799 
L 290.552405 227.020856 
L 289.528855 230.002354 
L 289.528855 250.311603 
L 292.826056 259.916022 
L 293.488952 261.846973 
L 297.565695 260.533231 
L 296.022372 256.436104 
L 293.988843 251.060965 
L 302.871783 243.86091 
L 303.544456 241.429888 
L 304.871421 241.652595 
L 314.814808 238.088226 
L 315.529037 235.160789 
L 315.866799 228.356784 
L 323.423923 220.979184 
L 324.51371 217.739002 
L 324.443203 200.516043 
L 325.258921 199.142433 
L 334.171336 191.593174 
L 342.843177 185.857466 
L 347.535648 181.950054 
L 348.12206 178.907815 
L 345.287469 178.672934 
" style="fill:#375a8c;"/>
   </g>
   <g id="PathCollection_19">
    <path clip-path="url(#pc9830ed3ee)" d="M 320.946789 293.615513 
L 324.862038 292.188334 
L 329.119578 291.011431 
L 333.486474 293.794907 
L 343.979906 295.164297 
L 349.005723 296.289007 
L 351.851985 301.097072 
L 355.956412 300.75697 
L 351.33054 292.942688 
L 343.16236 291.11476 
L 341.481002 290.895343 
L 332.687559 285.290368 
L 324.114323 287.660252 
L 317.871971 289.935702 
L 316.080356 290.436114 
L 317.098567 291.101345 
M 386.810394 289.334626 
L 389.559659 277.514774 
L 390.775554 264.827818 
L 391.489113 263.503166 
L 392.744469 261.022248 
L 397.006831 253.966994 
L 395.172051 250.220115 
L 393.525059 245.912186 
L 393.105845 242.409976 
L 388.738195 234.594327 
L 388.324063 228.771393 
L 388.349514 219.664792 
L 379.690179 214.64587 
L 376.811101 209.777163 
L 376.675416 202.343543 
L 376.031414 192.655391 
L 377.712597 185.695003 
L 373.007216 183.631031 
L 370.178718 195.341507 
L 368.484783 195.160965 
L 369.797543 196.051198 
L 370.123659 198.153516 
L 370.416147 214.177783 
L 374.865851 221.702519 
L 376.216192 225.202467 
L 375.448022 227.090256 
L 377.565836 226.561613 
L 381.042893 238.151056 
L 384.780758 245.418246 
L 387.017161 251.028898 
L 388.750073 254.567748 
L 386.200896 258.787261 
L 376.830104 261.238863 
L 379.506234 269.644056 
L 382.024304 277.634362 
L 377.778759 287.183695 
L 380.01054 293.610984 
L 384.12602 291.805767 
M 348.12206 178.907815 
L 347.535648 181.950054 
L 342.843177 185.857466 
L 334.171336 191.593174 
L 325.258921 199.142433 
L 324.443203 200.516043 
L 324.51371 217.739002 
L 323.423923 220.979184 
L 315.866799 228.356784 
L 315.529037 235.160789 
L 314.814808 238.088226 
L 304.871421 241.652595 
L 303.544456 241.429888 
L 302.871783 243.86091 
L 293.988843 251.060965 
L 296.022372 256.436104 
L 297.565695 260.533231 
L 293.488952 261.846973 
L 294.748437 265.515728 
L 306.570878 261.705912 
L 304.679774 256.685514 
L 308.672824 256.216274 
L 320.132692 251.063687 
L 320.894914 250.667056 
L 321.247316 250.290576 
L 321.465496 249.335418 
L 326.851155 235.733887 
L 327.016334 232.406456 
L 329.279596 230.19696 
L 332.864886 219.537079 
L 334.378969 215.155477 
L 340.302915 210.735727 
L 344.055492 205.428869 
L 348.543093 193.320407 
L 352.866325 189.720461 
L 354.843181 179.464743 
" style="fill:#23888e;"/>
   </g>
   <g id="PathCollection_20">
    <path clip-path="url(#pc9830ed3ee)" d="M 360.060839 300.416867 
L 353.655357 289.59637 
L 351.190389 289.044743 
L 350.825336 283.287488 
L 343.982987 275.473815 
L 341.190847 274.393943 
L 335.120933 272.547277 
L 335.537316 263.841604 
L 335.467011 261.866244 
L 337.68892 249.824516 
L 341.709977 246.271523 
L 349.109607 239.745139 
L 338.541775 229.937498 
L 341.145951 222.40128 
L 344.984803 219.537182 
L 349.348073 220.57105 
L 359.693096 224.508751 
L 359.697961 224.510232 
L 359.698881 224.512615 
L 359.696863 224.517574 
L 351.390982 239.873713 
L 363.44059 246.060733 
L 369.523571 240.525296 
L 374.392686 239.309879 
L 375.119287 241.731726 
L 375.900389 243.250351 
L 377.856506 248.157826 
L 373.553201 247.20044 
L 366.511611 253.988559 
L 362.545082 259.032513 
L 357.429356 263.165305 
L 351.899564 269.125746 
L 359.58593 270.801472 
L 367.076356 278.573695 
L 368.099281 279.041855 
L 368.355974 279.85639 
L 368.199586 280.208147 
L 373.799531 296.335385 
L 380.01054 293.610984 
L 377.778759 287.183695 
L 382.024304 277.634362 
L 379.506234 269.644056 
L 376.830104 261.238863 
L 386.200896 258.787261 
L 388.750073 254.567748 
L 387.017161 251.028898 
L 384.780758 245.418246 
L 381.042893 238.151056 
L 377.565836 226.561613 
L 375.448022 227.090256 
L 376.216192 225.202467 
L 374.865851 221.702519 
L 370.416147 214.177783 
L 370.123659 198.153516 
L 369.797543 196.051198 
L 368.484783 195.160965 
L 370.178718 195.341507 
L 373.007216 183.631031 
L 368.301836 181.56706 
L 367.252669 185.910793 
L 360.566498 185.198173 
L 361.564303 180.021671 
L 354.843181 179.464743 
L 352.866325 189.720461 
L 348.543093 193.320407 
L 344.055492 205.428869 
L 340.302915 210.735727 
L 334.378969 215.155477 
L 332.864886 219.537079 
L 329.279596 230.19696 
L 327.016334 232.406456 
L 326.851155 235.733887 
L 321.465496 249.335418 
L 321.247316 250.290576 
L 320.894914 250.667056 
L 320.132692 251.063687 
L 308.672824 256.216274 
L 304.679774 256.685514 
L 306.570878 261.705912 
L 294.748437 265.515728 
L 296.007922 269.184482 
L 298.006979 268.540281 
L 299.641877 270.527909 
L 310.332725 279.503463 
L 318.097214 278.387144 
L 318.454187 272.300855 
L 319.612296 268.406824 
L 323.456251 265.698535 
L 331.881326 264.00184 
L 333.220506 272.567462 
L 333.252877 273.553581 
L 326.474574 282.273041 
L 323.366607 283.13217 
L 322.073325 283.603595 
L 310.549142 286.822392 
L 316.080356 290.436114 
L 317.871971 289.935702 
L 324.114323 287.660252 
L 332.687559 285.290368 
L 341.481002 290.895343 
L 343.16236 291.11476 
L 351.33054 292.942688 
L 355.956412 300.75697 
" style="fill:#32b67a;"/>
   </g>
   <g id="PathCollection_21">
    <path clip-path="url(#pc9830ed3ee)" d="M 364.165266 300.076765 
L 361.887702 296.229376 
L 366.118892 294.827411 
L 367.588521 299.059786 
L 373.799531 296.335385 
L 368.199586 280.208147 
L 368.355974 279.85639 
L 368.099281 279.041855 
L 367.076356 278.573695 
L 359.58593 270.801472 
L 351.899564 269.125746 
L 357.429356 263.165305 
L 362.545082 259.032513 
L 366.511611 253.988559 
L 373.553201 247.20044 
L 377.856506 248.157826 
L 375.900389 243.250351 
L 375.119287 241.731726 
L 374.392686 239.309879 
L 369.523571 240.525296 
L 363.44059 246.060733 
L 351.390982 239.873713 
L 359.696863 224.517574 
L 359.698881 224.512615 
L 359.697961 224.510232 
L 359.693096 224.508751 
L 349.348073 220.57105 
L 344.984803 219.537182 
L 341.145951 222.40128 
L 338.541775 229.937498 
L 349.109607 239.745139 
L 341.709977 246.271523 
L 337.68892 249.824516 
L 335.467011 261.866244 
L 335.537316 263.841604 
L 335.120933 272.547277 
L 341.190847 274.393943 
L 343.982987 275.473815 
L 350.825336 283.287488 
L 351.190389 289.044743 
L 353.655357 289.59637 
L 360.060839 300.416867 
M 361.564303 180.021671 
L 360.566498 185.198173 
L 367.252669 185.910793 
L 368.301836 181.56706 
L 365.527351 180.350058 
M 310.549142 286.822392 
L 322.073325 283.603595 
L 323.366607 283.13217 
L 326.474574 282.273041 
L 333.252877 273.553581 
L 333.220506 272.567462 
L 331.881326 264.00184 
L 323.456251 265.698535 
L 319.612296 268.406824 
L 318.454187 272.300855 
L 318.097214 278.387144 
L 310.332725 279.503463 
L 299.641877 270.527909 
L 298.006979 268.540281 
L 296.007922 269.184482 
L 296.123257 269.520441 
L 308.597456 285.547292 
" style="fill:#98d83e;"/>
   </g>
   <g id="PathCollection_22">
    <path clip-path="url(#pc9830ed3ee)" d="M 367.588521 299.059786 
L 366.118892 294.827411 
L 361.887702 296.229376 
L 364.165266 300.076765 
L 365.527351 299.963899 
" style="fill:#fde725;"/>
   </g>
   <g id="line2d_5">
    <path clip-path="url(#pc9830ed3ee)" d="M 289.528855 250.311603 
L 289.528855 230.002354 
M 308.597456 285.547292 
L 296.123257 269.520441 
M 345.287469 301.641024 
L 325.599678 296.655398 
M 365.527351 299.963899 
L 345.287469 301.641024 
M 384.12602 291.805767 
L 365.527351 299.963899 
M 399.068019 278.050687 
L 384.12602 291.805767 
M 408.734153 260.189236 
L 399.068019 278.050687 
M 412.076946 240.156979 
L 408.734153 260.189236 
M 408.734153 220.124722 
L 412.076946 240.156979 
M 399.068019 202.263271 
L 408.734153 220.124722 
M 384.12602 188.508191 
L 399.068019 202.263271 
M 365.527351 180.350058 
L 384.12602 188.508191 
M 345.287469 178.672934 
L 365.527351 180.350058 
M 325.599678 183.65856 
L 345.287469 178.672934 
M 308.597456 194.766666 
L 325.599678 183.65856 
M 296.123257 210.793517 
L 289.528855 230.002354 
M 296.123257 210.793517 
L 308.597456 194.766666 
M 367.833234 279.94137 
L 365.527351 299.963899 
M 367.833234 279.94137 
L 384.12602 291.805767 
M 367.833234 279.94137 
L 373.549586 260.614134 
M 331.783045 234.137794 
L 350.382182 240.156979 
M 331.783045 234.137794 
L 320.802772 250.311603 
M 331.783045 234.137794 
L 333.276971 213.975504 
M 331.783045 234.137794 
L 313.408653 227.46395 
M 339.28222 196.324219 
L 345.287469 178.672934 
M 339.28222 196.324219 
L 325.599678 183.65856 
M 339.28222 196.324219 
L 333.276971 213.975504 
M 381.006396 206.890215 
L 399.068019 202.263271 
M 381.006396 206.890215 
L 384.12602 188.508191 
M 381.006396 206.890215 
L 377.886772 225.272239 
M 373.55442 242.677648 
L 377.886772 225.272239 
M 373.55442 242.677648 
L 373.549586 260.614134 
M 373.55442 242.677648 
L 390.979199 246.931423 
M 359.695708 224.512483 
L 350.382182 240.156979 
M 359.695708 224.512483 
L 377.886772 225.272239 
M 305.165813 242.751851 
L 289.528855 230.002354 
M 305.165813 242.751851 
L 289.528855 250.311603 
M 305.165813 242.751851 
L 320.802772 250.311603 
M 312.740902 210.859595 
L 308.597456 194.766666 
M 312.740902 210.859595 
L 296.123257 210.793517 
M 312.740902 210.859595 
L 313.408653 227.46395 
M 397.894641 232.228552 
L 412.076946 240.156979 
M 397.894641 232.228552 
L 408.734153 220.124722 
M 397.894641 232.228552 
L 390.979199 246.931423 
M 390.110916 263.76801 
L 399.068019 278.050687 
M 390.110916 263.76801 
L 408.734153 260.189236 
M 390.110916 263.76801 
L 373.549586 260.614134 
M 334.102536 283.021531 
L 325.599678 296.655398 
M 334.102536 283.021531 
L 344.302706 270.606321 
M 354.391095 288.537356 
L 345.287469 301.641024 
M 354.391095 288.537356 
L 365.527351 299.963899 
M 354.391095 288.537356 
L 367.833234 279.94137 
M 310.226682 262.181982 
L 296.123257 269.520441 
M 310.226682 262.181982 
L 320.802772 250.311603 
M 310.226682 262.181982 
L 323.475927 270.969308 
M 310.226682 262.181982 
L 305.165813 242.751851 
M 337.071349 249.542098 
L 350.382182 240.156979 
M 337.071349 249.542098 
L 320.802772 250.311603 
M 337.071349 249.542098 
L 331.783045 234.137794 
M 351.776944 256.267037 
L 350.382182 240.156979 
M 351.776944 256.267037 
L 344.302706 270.606321 
M 351.776944 256.267037 
L 337.071349 249.542098 
M 354.099571 191.518135 
L 365.527351 180.350058 
M 354.099571 191.518135 
L 345.287469 178.672934 
M 354.099571 191.518135 
L 358.950664 206.320811 
M 354.099571 191.518135 
L 339.28222 196.324219 
M 370.262368 195.611111 
L 384.12602 188.508191 
M 370.262368 195.611111 
L 365.527351 180.350058 
M 370.262368 195.611111 
L 358.950664 206.320811 
M 370.262368 195.611111 
L 381.006396 206.890215 
M 370.262368 195.611111 
L 354.099571 191.518135 
M 393.162593 217.085249 
L 408.734153 220.124722 
M 393.162593 217.085249 
L 399.068019 202.263271 
M 393.162593 217.085249 
L 377.886772 225.272239 
M 393.162593 217.085249 
L 381.006396 206.890215 
M 393.162593 217.085249 
L 397.894641 232.228552 
M 323.741779 199.447328 
L 325.599678 183.65856 
M 323.741779 199.447328 
L 308.597456 194.766666 
M 323.741779 199.447328 
L 333.276971 213.975504 
M 323.741779 199.447328 
L 339.28222 196.324219 
M 323.741779 199.447328 
L 312.740902 210.859595 
M 344.643024 226.145802 
L 350.382182 240.156979 
M 344.643024 226.145802 
L 333.276971 213.975504 
M 344.643024 226.145802 
L 331.783045 234.137794 
M 344.643024 226.145802 
L 359.695708 224.512483 
M 384.510478 277.230191 
L 384.12602 291.805767 
M 384.510478 277.230191 
L 399.068019 278.050687 
M 384.510478 277.230191 
L 373.549586 260.614134 
M 384.510478 277.230191 
L 367.833234 279.94137 
M 384.510478 277.230191 
L 390.110916 263.76801 
M 360.879301 267.375657 
L 344.302706 270.606321 
M 360.879301 267.375657 
L 373.549586 260.614134 
M 360.879301 267.375657 
L 367.833234 279.94137 
M 360.879301 267.375657 
L 351.776944 256.267037 
M 345.565488 208.30907 
L 333.276971 213.975504 
M 345.565488 208.30907 
L 358.950664 206.320811 
M 345.565488 208.30907 
L 339.28222 196.324219 
M 345.565488 208.30907 
L 354.099571 191.518135 
M 345.565488 208.30907 
L 344.643024 226.145802 
M 369.203898 215.01198 
L 377.886772 225.272239 
M 369.203898 215.01198 
L 358.950664 206.320811 
M 369.203898 215.01198 
L 381.006396 206.890215 
M 369.203898 215.01198 
L 359.695708 224.512483 
M 369.203898 215.01198 
L 370.262368 195.611111 
M 364.020398 251.643322 
L 350.382182 240.156979 
M 364.020398 251.643322 
L 373.549586 260.614134 
M 364.020398 251.643322 
L 373.55442 242.677648 
M 364.020398 251.643322 
L 351.776944 256.267037 
M 364.020398 251.643322 
L 360.879301 267.375657 
M 317.098567 291.101345 
L 308.597456 285.547292 
M 317.098567 291.101345 
L 325.599678 296.655398 
M 333.744132 262.457709 
L 344.302706 270.606321 
M 333.744132 262.457709 
L 323.475927 270.969308 
M 333.744132 262.457709 
L 337.071349 249.542098 
M 333.744132 262.457709 
L 351.776944 256.267037 
M 385.574717 235.411683 
L 377.886772 225.272239 
M 385.574717 235.411683 
L 390.979199 246.931423 
M 385.574717 235.411683 
L 373.55442 242.677648 
M 385.574717 235.411683 
L 397.894641 232.228552 
M 385.574717 235.411683 
L 393.162593 217.085249 
M 322.040351 218.801218 
L 333.276971 213.975504 
M 322.040351 218.801218 
L 313.408653 227.46395 
M 322.040351 218.801218 
L 331.783045 234.137794 
M 322.040351 218.801218 
L 312.740902 210.859595 
M 322.040351 218.801218 
L 323.741779 199.447328 
M 304.397548 219.51073 
L 289.528855 230.002354 
M 304.397548 219.51073 
L 296.123257 210.793517 
M 304.397548 219.51073 
L 313.408653 227.46395 
M 304.397548 219.51073 
L 312.740902 210.859595 
M 316.600793 239.051182 
L 320.802772 250.311603 
M 316.600793 239.051182 
L 313.408653 227.46395 
M 316.600793 239.051182 
L 331.783045 234.137794 
M 316.600793 239.051182 
L 305.165813 242.751851 
M 292.826056 259.916022 
L 289.528855 250.311603 
M 292.826056 259.916022 
L 296.123257 269.520441 
M 292.826056 259.916022 
L 310.226682 262.181982 
M 311.901867 274.038246 
L 296.123257 269.520441 
M 311.901867 274.038246 
L 308.597456 285.547292 
M 311.901867 274.038246 
L 323.475927 270.969308 
M 311.901867 274.038246 
L 310.226682 262.181982 
M 362.474765 236.761445 
L 350.382182 240.156979 
M 362.474765 236.761445 
L 377.886772 225.272239 
M 362.474765 236.761445 
L 373.55442 242.677648 
M 362.474765 236.761445 
L 359.695708 224.512483 
M 362.474765 236.761445 
L 364.020398 251.643322 
M 302.077642 231.220676 
L 289.528855 230.002354 
M 302.077642 231.220676 
L 313.408653 227.46395 
M 302.077642 231.220676 
L 305.165813 242.751851 
M 302.077642 231.220676 
L 304.397548 219.51073 
M 302.077642 231.220676 
L 316.600793 239.051182 
M 383.205178 254.97119 
L 373.549586 260.614134 
M 383.205178 254.97119 
L 390.979199 246.931423 
M 383.205178 254.97119 
L 373.55442 242.677648 
M 383.205178 254.97119 
L 390.110916 263.76801 
M 401.290204 242.803404 
L 412.076946 240.156979 
M 401.290204 242.803404 
L 390.979199 246.931423 
M 401.290204 242.803404 
L 397.894641 232.228552 
M 399.699297 253.771093 
L 408.734153 260.189236 
M 399.699297 253.771093 
L 412.076946 240.156979 
M 399.699297 253.771093 
L 390.979199 246.931423 
M 399.699297 253.771093 
L 390.110916 263.76801 
M 399.699297 253.771093 
L 383.205178 254.97119 
M 399.699297 253.771093 
L 401.290204 242.803404 
M 356.962509 277.75026 
L 344.302706 270.606321 
M 356.962509 277.75026 
L 367.833234 279.94137 
M 356.962509 277.75026 
L 354.391095 288.537356 
M 356.962509 277.75026 
L 360.879301 267.375657 
M 343.006371 290.342102 
L 325.599678 296.655398 
M 343.006371 290.342102 
L 345.287469 301.641024 
M 343.006371 290.342102 
L 344.302706 270.606321 
M 343.006371 290.342102 
L 334.102536 283.021531 
M 343.006371 290.342102 
L 354.391095 288.537356 
M 343.006371 290.342102 
L 356.962509 277.75026 
M 353.496962 215.655262 
L 358.950664 206.320811 
M 353.496962 215.655262 
L 359.695708 224.512483 
M 353.496962 215.655262 
L 344.643024 226.145802 
M 353.496962 215.655262 
L 345.565488 208.30907 
M 353.496962 215.655262 
L 369.203898 215.01198 
M 300.027531 252.075578 
L 289.528855 250.311603 
M 300.027531 252.075578 
L 305.165813 242.751851 
M 300.027531 252.075578 
L 310.226682 262.181982 
M 300.027531 252.075578 
L 292.826056 259.916022 
M 323.171215 281.9489 
L 308.597456 285.547292 
M 323.171215 281.9489 
L 325.599678 296.655398 
M 323.171215 281.9489 
L 323.475927 270.969308 
M 323.171215 281.9489 
L 334.102536 283.021531 
M 323.171215 281.9489 
L 317.098567 291.101345 
M 323.171215 281.9489 
L 311.901867 274.038246 
M 323.436743 260.47257 
L 320.802772 250.311603 
M 323.436743 260.47257 
L 323.475927 270.969308 
M 323.436743 260.47257 
L 310.226682 262.181982 
M 323.436743 260.47257 
L 337.071349 249.542098 
M 323.436743 260.47257 
L 333.744132 262.457709 
M 334.236898 272.734155 
L 344.302706 270.606321 
M 334.236898 272.734155 
L 323.475927 270.969308 
M 334.236898 272.734155 
L 334.102536 283.021531 
M 334.236898 272.734155 
L 333.744132 262.457709 
M 334.236898 272.734155 
L 323.171215 281.9489 
L 323.171215 281.9489 
" style="fill:none;stroke:#ffffff;stroke-linecap:square;stroke-opacity:0.25;stroke-width:1.25;"/>
   </g>
   <g id="line2d_6"/>
   <g id="text_3">
    <!-- $\bm{\mathsf{u}}_2$ -->
    <defs>
     <path d="M 41.703125 15.453125 
L 39.90625 15.453125 
C 38.90625 8.375 38.09375 7.171875 37.703125 6.5625 
C 37.203125 5.765625 30 5.765625 28.59375 5.765625 
L 9.40625 5.765625 
C 13 9.671875 20 16.75 28.5 24.953125 
C 34.59375 30.734375 41.703125 37.53125 41.703125 47.421875 
C 41.703125 59.21875 32.296875 66 21.796875 66 
C 10.796875 66 4.09375 56.3125 4.09375 47.34375 
C 4.09375 43.4375 7 42.9375 8.203125 42.9375 
C 9.203125 42.9375 12.203125 43.546875 12.203125 47.03125 
C 12.203125 50.109375 9.59375 51 8.203125 51 
C 7.59375 51 7 50.90625 6.59375 50.703125 
C 8.5 59.21875 14.296875 63.40625 20.40625 63.40625 
C 29.09375 63.40625 34.796875 56.515625 34.796875 47.421875 
C 34.796875 38.734375 29.703125 31.25 24 24.75 
L 4.09375 2.28125 
L 4.09375 0 
L 39.296875 0 
z
" id="CMR17-50"/>
    </defs>
    <g transform="translate(339.997618 178.821338)scale(0.24 -0.24)">
     <use transform="translate(0 14.943915)scale(0.996264)" xlink:href="#CMSSBX10-117"/>
     <use transform="translate(55.901788 0)scale(0.697382)" xlink:href="#CMR17-50"/>
    </g>
   </g>
  </g>
 </g>
 <defs>
  <clipPath id="pa37c655f56">
   <rect height="270.529797" width="269.605801" x="7.2" y="31.111226"/>
  </clipPath>
  <clipPath id="p176ca8a748">
   <rect height="122.96809" width="122.548091" x="289.528855" y="31.111226"/>
  </clipPath>
  <clipPath id="pc9830ed3ee">
   <rect height="122.96809" width="122.548091" x="289.528855" y="178.672934"/>
  </clipPath>
 </defs>
</svg>
